<?xml version="1.0" encoding="UTF-8"?>
<svg width="87px" height="86px" viewBox="0 0 87 86" version="1.1" xmlns="http://www.w3.org/2000/svg" xmlns:xlink="http://www.w3.org/1999/xlink">
    <!-- Generator: Sketch 51.2 (57519) - http://www.bohemiancoding.com/sketch -->
    <title>if_customer-service-team-commentator-support_1284166</title>
    <desc>Created with Sketch.</desc>
    <defs></defs>
    <g id="about" stroke="none" stroke-width="1" fill="none" fill-rule="evenodd">
        <g id="Desktop-HD" transform="translate(-377.000000, -1195.000000)" fill-rule="nonzero">
            <g id="Group-10" transform="translate(360.000000, 987.000000)">
                <g id="Group-5" transform="translate(0.000000, 208.000000)">
                    <g id="if_customer-service-team-commentator-support_1284166" transform="translate(17.000000, 0.000000)">
                        <path d="M48.9375,34.9375 L53.015625,34.9375 C53.7646406,34.9375 54.375,34.3341563 54.375,33.59375 L54.375,32.25 C54.375,31.5095938 53.7646406,30.90625 53.015625,30.90625 L48.9375,30.90625 C48.1884844,30.90625 47.578125,31.5095938 47.578125,32.25 L47.578125,33.59375 C47.578125,34.3341563 48.1884844,34.9375 48.9375,34.9375 Z" id="Shape" fill="#F4F6FA"></path>
                        <path d="M38.0625,30.90625 L33.984375,30.90625 C33.2353594,30.90625 32.625,31.5095938 32.625,32.25 L32.625,33.59375 C32.625,34.3341563 33.2353594,34.9375 33.984375,34.9375 L38.0625,34.9375 C38.8115156,34.9375 39.421875,34.3341563 39.421875,33.59375 L39.421875,32.25 C39.421875,31.5095938 38.8115156,30.90625 38.0625,30.90625 Z" id="Shape" fill="#F4F6FA"></path>
                        <path d="M27.1875,24.9749375 L27.1875,17.46875 C27.1875,17.0911563 27.3479063,16.7310313 27.6306563,16.4770625 C27.9134063,16.2230938 28.2926719,16.0994688 28.6705781,16.130375 L43.5,17.463375 L58.3307813,16.130375 C58.7100469,16.098125 59.0879531,16.22175 59.3707031,16.4770625 C59.6520938,16.7310313 59.8125,17.0911563 59.8125,17.46875 L59.8125,24.9749375 L61.171875,26.3186875 L62.53125,24.9749375 L62.53125,17.46875 C62.53125,12.281875 58.2628125,8.0625 53.015625,8.0625 L52.0871719,8.0625 C51.5624531,8.0625 51.0853125,7.7641875 50.8596563,7.2965625 C49.5125156,4.4961875 46.6224844,2.6875 43.5,2.6875 L35.4565781,2.6875 C35.6550469,3.853875 36.1131563,4.96246875 36.8105156,5.950125 C37.1000625,6.35996875 37.1354063,6.896125 36.9015938,7.34090625 C36.6677813,7.7856875 36.202875,8.0625 35.6971875,8.0625 L33.984375,8.0625 C28.7371875,8.0625 24.46875,12.281875 24.46875,17.46875 L24.46875,24.9749375 L25.828125,26.3186875 L27.1875,24.9749375 Z" id="Shape" fill="#8B572A"></path>
                        <path d="M43.5,52.40625 L34.5471563,52.40625 L38.6252812,56.4375 L48.3747187,56.4375 L59.8125,45.1311875 L59.8125,38.96875 L59.8125,29.5625 L59.8125,28.7750625 L57.4920469,26.4812813 C57.2364844,26.23 57.09375,25.8873438 57.09375,25.53125 L57.09375,18.9401563 L43.6223437,20.150875 C43.5407812,20.1575938 43.4578594,20.1575938 43.3762969,20.150875 L29.90625,18.9401563 L29.90625,25.53125 C29.90625,25.8873438 29.7635156,26.23 29.5079531,26.4812813 L27.1875,28.7750625 L27.1875,29.5625 L27.1875,38.96875 L27.1875,45.1311875 L31.8284063,49.71875 L43.5,49.71875 L43.5,52.40625 Z M33.984375,37.625 C31.7359687,37.625 29.90625,35.8163125 29.90625,33.59375 L29.90625,32.25 C29.90625,30.0274375 31.7359687,28.21875 33.984375,28.21875 L38.0625,28.21875 C39.8324062,28.21875 41.3277187,29.3461563 41.8905,30.90625 L45.1108594,30.90625 C45.6736406,29.3461563 47.1689531,28.21875 48.9388594,28.21875 L53.0169844,28.21875 C55.2653906,28.21875 57.0951094,30.0274375 57.0951094,32.25 L57.0951094,33.59375 C57.0951094,35.8163125 55.2653906,37.625 53.0169844,37.625 L48.9388594,37.625 C46.6904531,37.625 44.8607344,35.8163125 44.8607344,33.59375 L42.1419844,33.59375 C42.1419844,35.8163125 40.3122656,37.625 38.0638594,37.625 L33.984375,37.625 Z M42.140625,45.6875 C41.39025,45.6875 40.78125,45.0855 40.78125,44.34375 L40.78125,38.96875 L43.5,38.96875 L43.5,43 L46.21875,43 L46.21875,45.6875 L42.140625,45.6875 Z" id="Shape" fill="#F6E0CD"></path>
                        <path d="M23.109375,40.3125 C23.8583906,40.3125 24.46875,39.7091562 24.46875,38.96875 L24.46875,29.5625 C24.46875,28.8220937 23.8583906,28.21875 23.109375,28.21875 C22.3603594,28.21875 21.75,28.8220937 21.75,29.5625 L21.75,36.28125 L21.75,38.96875 C21.75,39.7091562 22.3603594,40.3125 23.109375,40.3125 Z" id="Shape" fill="#E6DFC1"></path>
                        <path d="M38.4607969,72.9562187 L41.4038437,70.047 L33.7831875,64.666625 L2.71875,76.1812187 L2.71875,83.3125 L38.4417656,83.3125 L40.5855,76.9565625 L38.4607969,74.8562812 C37.9292812,74.330875 37.9292812,73.481625 38.4607969,72.9562187 Z" id="Shape" fill="#F4F6FA"></path>
                        <path d="M51.65625,56.9938125 L49.8985781,58.7312813 C49.644375,58.9839063 49.2977344,59.125 48.9375,59.125 L38.0625,59.125 C37.7022656,59.125 37.355625,58.9839063 37.1014219,58.7312813 L35.34375,56.9938125 L35.34375,62.4642188 L43.5,68.2235313 L51.65625,62.4642188 L51.65625,56.9938125 Z" id="Shape" fill="#F6E0CD"></path>
                        <rect id="Rectangle-path" fill="#CC5636" transform="translate(43.500146, 73.905981) rotate(-45.000000) translate(-43.500146, -73.905981) " x="41.9756211" y="72.3989801" width="3.04904888" height="3.01400235"></rect>
                        <path d="M45.5961562,70.047 L48.5392031,72.9562187 C49.0707187,73.481625 49.0707187,74.330875 48.5392031,74.8562812 L46.4145,76.9565625 L48.5582344,83.3125 L84.28125,83.3125 L84.28125,76.1812187 L53.2168125,64.666625 L45.5961562,70.047 Z" id="Shape" fill="#F4F6FA"></path>
                        <path d="M62.53125,38.96875 C62.53125,39.7091562 63.1416094,40.3125 63.890625,40.3125 C64.6396406,40.3125 65.25,39.7091562 65.25,38.96875 L65.25,29.5625 C65.25,28.8220937 64.6396406,28.21875 63.890625,28.21875 C63.1416094,28.21875 62.53125,28.8220937 62.53125,29.5625 L62.53125,38.96875 Z" id="Shape" fill="#E6DFC1"></path>
                        <path d="M70.6875,34.265625 C70.6875,32.642375 69.5184375,31.2865313 67.96875,30.9734375 L67.96875,37.5564687 C69.5184375,37.2447187 70.6875,35.888875 70.6875,34.265625 Z" id="Shape" fill="#367CCC"></path>
                        <path d="M16.3125,34.265625 C16.3125,35.888875 17.4815625,37.2447188 19.03125,37.5578125 L19.03125,36.28125 L19.03125,30.9734375 C17.4815625,31.2865313 16.3125,32.642375 16.3125,34.265625 Z" id="Shape" fill="#367CCC"></path>
                        <path d="M82.921875,51.0625 L66.7194844,51.0625 L67.6710469,52.2382813 C67.8640781,52.4774688 67.96875,52.7730938 67.96875,53.078125 L67.96875,57.78125 C67.96875,58.5216563 68.5791094,59.125 69.328125,59.125 L82.921875,59.125 C83.6708906,59.125 84.28125,58.5216563 84.28125,57.78125 L84.28125,52.40625 C84.28125,51.6658438 83.6708906,51.0625 82.921875,51.0625 Z M81.5625,56.4375 L70.6875,56.4375 L70.6875,53.75 L81.5625,53.75 L81.5625,56.4375 Z" id="Shape" fill="#367CCC"></path>
                        <path d="M43.5,79.28125 C43.2349219,79.28125 42.9820781,79.1804687 42.7523438,79.028625 L41.3086875,83.3125 L45.6926719,83.3125 L44.2476562,79.028625 C44.0179219,79.1804687 43.7650781,79.28125 43.5,79.28125 Z" id="Shape" fill="#CC5636"></path>
                        <path d="M86.1177656,73.9909062 L54.375,62.2250312 L54.375,54.3063125 L62.1329531,46.6375312 C62.3885156,46.38625 62.53125,46.0435937 62.53125,45.6875 L62.53125,42.75275 C62.9580937,42.90325 63.412125,43 63.890625,43 C65.6768437,43 67.1816719,41.8510937 67.7322187,40.2681562 C70.8954844,40.0397187 73.40625,37.4503125 73.40625,34.265625 C73.40625,31.0809375 70.8954844,28.4915312 67.7322187,28.2630937 C67.3244062,27.0886562 66.3905156,26.1668437 65.2024219,25.7650625 C65.217375,25.6857812 65.25,25.611875 65.25,25.53125 L65.25,17.46875 C65.25,10.8010625 59.7608437,5.375 53.015625,5.375 L52.906875,5.375 C50.9765625,2.08415625 47.3742187,0 43.5,0 L33.984375,0 C33.234,0 32.625,0.602 32.625,1.34375 C32.625,2.7439375 32.8982344,4.111875 33.4243125,5.38709375 C26.937375,5.6786875 21.75,10.9851562 21.75,17.46875 L21.75,25.53125 C21.75,25.611875 21.782625,25.6857812 21.7975781,25.7650625 C20.6094844,26.1681875 19.6769531,27.09 19.2677812,28.2630937 C16.1045156,28.4915312 13.59375,31.0809375 13.59375,34.265625 C13.59375,37.3696875 15.9808125,39.9053437 19.03125,40.2439687 L19.03125,45.6875 C19.03125,49.3922187 22.0803281,52.40625 25.828125,52.40625 L30.7028437,52.40625 L32.625,54.3063125 L32.625,62.2250312 L0.882234375,73.9909062 C0.352078125,74.1884375 0,74.6896562 0,75.25 L0,84.65625 C0,85.398 0.609,86 1.359375,86 L85.640625,86 C86.391,86 87,85.398 87,84.65625 L87,75.25 C87,74.6896562 86.6479219,74.1884375 86.1177656,73.9909062 Z M67.96875,30.9734375 C69.5184375,31.2851875 70.6875,32.642375 70.6875,34.265625 C70.6875,35.888875 69.5184375,37.2447188 67.96875,37.5578125 L67.96875,30.9734375 Z M19.03125,36.28125 L19.03125,37.5578125 C17.4815625,37.2460625 16.3125,35.888875 16.3125,34.265625 C16.3125,32.642375 17.4815625,31.2865313 19.03125,30.9734375 L19.03125,36.28125 Z M63.890625,28.21875 C64.6396406,28.21875 65.25,28.8220937 65.25,29.5625 L65.25,38.96875 C65.25,39.7091562 64.6396406,40.3125 63.890625,40.3125 C63.1416094,40.3125 62.53125,39.7091562 62.53125,38.96875 L62.53125,29.5625 C62.53125,28.8220937 63.1416094,28.21875 63.890625,28.21875 Z M24.46875,17.46875 C24.46875,12.281875 28.7371875,8.0625 33.984375,8.0625 L35.6971875,8.0625 C36.2042344,8.0625 36.6677813,7.78434375 36.9029531,7.3395625 C37.138125,6.89478125 37.1014219,6.35996875 36.811875,5.94878125 C36.1145156,4.96246875 35.6564063,3.853875 35.4565781,2.6875 L43.5,2.6875 C46.6224844,2.6875 49.5125156,4.4961875 50.8610156,7.2965625 C51.0853125,7.7641875 51.5638125,8.0625 52.0871719,8.0625 L53.015625,8.0625 C58.2628125,8.0625 62.53125,12.281875 62.53125,17.46875 L62.53125,24.9749375 L61.171875,26.3186875 L59.8125,24.9749375 L59.8125,17.46875 C59.8125,17.0911563 59.6520938,16.7310313 59.3693438,16.4770625 C59.0865938,16.22175 58.7100469,16.098125 58.3294219,16.130375 L43.5,17.463375 L28.6692188,16.130375 C28.2913125,16.0994688 27.9120469,16.22175 27.6292969,16.4770625 C27.3465469,16.732375 27.1875,17.0911563 27.1875,17.46875 L27.1875,24.9749375 L25.828125,26.3186875 L24.46875,24.9749375 L24.46875,17.46875 Z M21.75,36.28125 L21.75,29.5625 C21.75,28.8220937 22.3603594,28.21875 23.109375,28.21875 C23.8583906,28.21875 24.46875,28.8220937 24.46875,29.5625 L24.46875,38.96875 C24.46875,39.7091562 23.8583906,40.3125 23.109375,40.3125 C22.3603594,40.3125 21.75,39.7091562 21.75,38.96875 L21.75,36.28125 Z M25.828125,49.71875 C23.5797187,49.71875 21.75,47.9100625 21.75,45.6875 L21.75,42.75275 C22.1768437,42.90325 22.630875,43 23.109375,43 C23.587875,43 24.0419062,42.90325 24.46875,42.75275 L24.46875,45.6875 C24.46875,46.0435938 24.6114844,46.38625 24.8670469,46.6375313 L27.9840937,49.71875 L25.828125,49.71875 Z M31.8284063,49.71875 L27.1875,45.1311875 L27.1875,38.96875 L27.1875,29.5625 L27.1875,28.7750625 L29.5079531,26.4812813 C29.7635156,26.23 29.90625,25.8873438 29.90625,25.53125 L29.90625,18.9401563 L43.3776563,20.150875 C43.4592188,20.1575938 43.5421406,20.1575938 43.6237031,20.150875 L57.09375,18.9401563 L57.09375,25.53125 C57.09375,25.8873438 57.2364844,26.23 57.4920469,26.4812813 L59.8125,28.7750625 L59.8125,29.5625 L59.8125,38.96875 L59.8125,45.1311875 L48.3747188,56.4375 L38.6252813,56.4375 L34.5471563,52.40625 L43.5,52.40625 L43.5,49.71875 L31.8284063,49.71875 Z M35.34375,62.4642188 L35.34375,56.9938125 L37.1014219,58.7312813 C37.355625,58.9839063 37.7022656,59.125 38.0625,59.125 L48.9375,59.125 C49.2977344,59.125 49.644375,58.9839063 49.8985781,58.7312813 L51.65625,56.9938125 L51.65625,62.4642188 L43.5,68.2235313 L35.34375,62.4642188 Z M45.6559687,73.90625 L43.5,76.0374375 L41.3440312,73.90625 L43.5,71.7750625 L45.6559687,73.90625 Z M38.4417656,83.3125 L2.71875,83.3125 L2.71875,76.1812187 L33.7831875,64.666625 L41.4038437,70.047 L38.4607969,72.9562187 C37.9292812,73.481625 37.9292812,74.330875 38.4607969,74.8562812 L40.5855,76.9565625 L38.4417656,83.3125 Z M41.3086875,83.3125 L42.7537031,79.028625 C42.9820781,79.1804687 43.2349219,79.28125 43.5,79.28125 C43.7650781,79.28125 44.0179219,79.1804687 44.2476562,79.028625 L45.6913125,83.3125 L41.3086875,83.3125 Z M84.28125,83.3125 L48.5582344,83.3125 L46.4145,76.9565625 L48.5392031,74.8562812 C49.0707187,74.330875 49.0707187,73.481625 48.5392031,72.9562187 L45.5961562,70.047 L53.2168125,64.666625 L84.28125,76.1812187 L84.28125,83.3125 Z" id="Shape" fill="#1F2833"></path>
                        <path d="M82.921875,48.375 L63.890625,48.375 C63.368625,48.375 62.8914844,48.670625 62.6658281,49.1369062 C62.4388125,49.6018437 62.5027031,50.1554687 62.8303125,50.5585937 L65.25,53.5497813 L65.25,57.78125 C65.25,60.0038125 67.0797187,61.8125 69.328125,61.8125 L82.921875,61.8125 C85.1702812,61.8125 87,60.0038125 87,57.78125 L87,52.40625 C87,50.1836875 85.1702812,48.375 82.921875,48.375 Z M84.28125,57.78125 C84.28125,58.5216563 83.6708906,59.125 82.921875,59.125 L69.328125,59.125 C68.5791094,59.125 67.96875,58.5216563 67.96875,57.78125 L67.96875,53.078125 C67.96875,52.7730938 67.8640781,52.4774687 67.6710469,52.2382812 L66.7194844,51.0625 L82.921875,51.0625 C83.6708906,51.0625 84.28125,51.6658437 84.28125,52.40625 L84.28125,57.78125 Z" id="Shape" fill="#1F2833"></path>
                        <rect id="Rectangle-path" fill="#1F2833" x="12.234375" y="55.09375" width="2.71875" height="2.6875"></rect>
                        <rect id="Rectangle-path" fill="#1F2833" x="17.671875" y="55.09375" width="2.71875" height="2.6875"></rect>
                        <rect id="Rectangle-path" fill="#1F2833" x="23.109375" y="55.09375" width="2.71875" height="2.6875"></rect>
                        <rect id="Rectangle-path" fill="#1F2833" x="70.6875" y="53.75" width="10.875" height="2.6875"></rect>
                        <path d="M42.140625,33.59375 L44.859375,33.59375 C44.859375,35.8163125 46.6890938,37.625 48.9375,37.625 L53.015625,37.625 C55.2640313,37.625 57.09375,35.8163125 57.09375,33.59375 L57.09375,32.25 C57.09375,30.0274375 55.2640313,28.21875 53.015625,28.21875 L48.9375,28.21875 C47.1675938,28.21875 45.6722813,29.3461562 45.1095,30.90625 L41.8891406,30.90625 C41.3263594,29.3461562 39.8310469,28.21875 38.0611406,28.21875 L33.9830156,28.21875 C31.7346094,28.21875 29.9048906,30.0274375 29.9048906,32.25 L29.9048906,33.59375 C29.9048906,35.8163125 31.7346094,37.625 33.9830156,37.625 L38.0611406,37.625 C40.3109063,37.625 42.140625,35.8163125 42.140625,33.59375 Z M47.578125,32.25 C47.578125,31.5095937 48.1884844,30.90625 48.9375,30.90625 L53.015625,30.90625 C53.7646406,30.90625 54.375,31.5095937 54.375,32.25 L54.375,33.59375 C54.375,34.3341562 53.7646406,34.9375 53.015625,34.9375 L48.9375,34.9375 C48.1884844,34.9375 47.578125,34.3341562 47.578125,33.59375 L47.578125,32.25 Z M39.421875,33.59375 C39.421875,34.3341562 38.8115156,34.9375 38.0625,34.9375 L33.984375,34.9375 C33.2353594,34.9375 32.625,34.3341562 32.625,33.59375 L32.625,32.25 C32.625,31.5095937 33.2353594,30.90625 33.984375,30.90625 L38.0625,30.90625 C38.8115156,30.90625 39.421875,31.5095937 39.421875,32.25 L39.421875,33.59375 Z" id="Shape" fill="#1F2833"></path>
                        <path d="M46.21875,43 L43.5,43 L43.5,38.96875 L40.78125,38.96875 L40.78125,44.34375 C40.78125,45.0855 41.39025,45.6875 42.140625,45.6875 L46.21875,45.6875 L46.21875,43 Z" id="Shape" fill="#1F2833"></path>
                    </g>
                </g>
            </g>
        </g>
    </g>
</svg>