<?xml version="1.0" encoding="UTF-8"?>
<svg width="87px" height="86px" viewBox="0 0 87 86" version="1.1" xmlns="http://www.w3.org/2000/svg" xmlns:xlink="http://www.w3.org/1999/xlink">
    <!-- Generator: Sketch 51.2 (57519) - http://www.bohemiancoding.com/sketch -->
    <title>if_shipping-route-area-destination-location_1284243</title>
    <desc>Created with Sketch.</desc>
    <defs></defs>
    <g id="about" stroke="none" stroke-width="1" fill="none" fill-rule="evenodd">
        <g id="Desktop-HD" transform="translate(-670.000000, -987.000000)" fill-rule="nonzero">
            <g id="Group-10" transform="translate(360.000000, 987.000000)">
                <g id="Group-2" transform="translate(293.000000, 0.000000)">
                    <g id="if_shipping-route-area-destination-location_1284243" transform="translate(17.000000, 0.000000)">
                        <ellipse id="Oval" fill="#E6DFC1" cx="77.484375" cy="62.9076923" rx="1.359375" ry="1.33846154"></ellipse>
                        <ellipse id="Oval" fill="#F4F6FA" cx="59.8125" cy="21.4153846" rx="2.71875" ry="2.67692308"></ellipse>
                        <ellipse id="Oval" fill="#F4F6FA" cx="9.515625" cy="9.36923077" rx="1.359375" ry="1.33846154"></ellipse>
                        <ellipse id="Oval" fill="#F4F6FA" cx="43.5" cy="21.4153846" rx="2.71875" ry="2.67692308"></ellipse>
                        <path d="M48.5772656,19.5482308 C48.643875,19.7222308 48.7172812,19.8935538 48.7648594,20.0769231 L54.375,20.0769231 L54.375,6.69230769 L54.375,2.67692308 L35.34375,2.67692308 L35.34375,20.0769231 L38.2351406,20.0769231 C38.2827187,19.8948923 38.356125,19.7235692 38.4227344,19.5482308 C38.4553594,19.4625692 38.4771094,19.3742308 38.5138125,19.2899077 C38.6443125,18.9954462 38.7979219,18.7130308 38.9773594,18.4493538 C39.0167812,18.3904615 39.0670781,18.3396 39.1105781,18.2820462 C39.25875,18.0799385 39.4164375,17.8872 39.5917969,17.7078462 C39.672,17.6262 39.759,17.5552615 39.8432812,17.4789692 C39.9996094,17.3384308 40.1586562,17.2045846 40.3312969,17.0827846 C40.4318906,17.0105077 40.5352031,16.9449231 40.6412344,16.8806769 C40.8165937,16.7736 40.9973906,16.6772308 41.1863437,16.5888923 C41.2978125,16.5366923 41.4079219,16.4844923 41.5248281,16.4389846 C41.7328125,16.3586769 41.9489531,16.2971077 42.1678125,16.2422308 C42.2738437,16.2154615 42.3744375,16.182 42.4818281,16.1619231 C42.8121562,16.1003538 43.1506406,16.0615385 43.5,16.0615385 C43.8493594,16.0615385 44.1878437,16.1003538 44.5195312,16.1632615 C44.6269219,16.1833385 44.728875,16.2181385 44.8335469,16.2435692 C45.0537656,16.2984462 45.2685469,16.3600154 45.4765312,16.4403231 C45.5920781,16.4858308 45.7021875,16.5380308 45.8150156,16.5902308 C46.0026094,16.6785692 46.1847656,16.7736 46.360125,16.8820154 C46.4661562,16.9476 46.5694687,17.0118462 46.6700625,17.0841231 C46.8413437,17.2059231 47.00175,17.3397692 47.1580781,17.4803077 C47.2423594,17.5566 47.3293594,17.6275385 47.4095625,17.7091846 C47.5849219,17.8885385 47.7426094,18.0812769 47.8907813,18.2833846 C47.9329219,18.3409385 47.9832187,18.3918 48.024,18.4506923 C48.2034375,18.7157077 48.3584063,18.9967846 48.4875469,19.2912462 C48.5228906,19.3742308 48.5446406,19.4639077 48.5772656,19.5482308 Z" id="Shape" fill="#CC5636"></path>
                        <path d="M9.515625,2.67692308 C5.13164062,2.67692308 2.71875,5.52918462 2.71875,10.7076923 C2.71875,15.4230923 7.43714063,21.1624154 9.515625,23.4618923 C11.5941094,21.1610769 16.3125,15.4230923 16.3125,10.7076923 C16.3125,5.52918462 13.8996094,2.67692308 9.515625,2.67692308 Z M9.515625,13.3846154 C7.26721875,13.3846154 5.4375,11.5830462 5.4375,9.36923077 C5.4375,7.15541538 7.26721875,5.35384615 9.515625,5.35384615 C11.7640312,5.35384615 13.59375,7.15541538 13.59375,9.36923077 C13.59375,11.5830462 11.7640312,13.3846154 9.515625,13.3846154 Z" id="Shape" fill="#CC5636"></path>
                        <path d="M77.484375,56.2153846 C73.1003906,56.2153846 70.6875,59.0676462 70.6875,64.2461538 C70.6875,68.9615538 75.4058906,74.7008769 77.484375,77.0003538 C79.5628594,74.6995385 84.28125,68.9615538 84.28125,64.2461538 C84.28125,59.0676462 81.8683594,56.2153846 77.484375,56.2153846 Z M77.484375,66.9230769 C75.2359687,66.9230769 73.40625,65.1215077 73.40625,62.9076923 C73.40625,60.6938769 75.2359687,58.8923077 77.484375,58.8923077 C79.7327812,58.8923077 81.5625,60.6938769 81.5625,62.9076923 C81.5625,65.1215077 79.7327812,66.9230769 77.484375,66.9230769 Z" id="Shape" fill="#CC5636"></path>
                        <path d="M64.8897656,19.5482308 C64.956375,19.7222308 65.0297812,19.8935538 65.0773594,20.0769231 L67.96875,20.0769231 L67.96875,14.7230769 L65.25,14.7230769 C64.6940156,14.7230769 64.195125,14.3898 63.9871406,13.8811846 L61.6109531,8.03076923 L57.09375,8.03076923 L57.09375,16.7802923 C57.2745469,16.6758923 57.4648594,16.5862154 57.65925,16.5032308 C57.6755625,16.4965385 57.6905156,16.4871692 57.7068281,16.4791385 C57.9936563,16.3600154 58.2967969,16.2730154 58.605375,16.2034154 C58.6815,16.1860154 58.7589844,16.1712923 58.8364688,16.1579077 C59.1545625,16.1016923 59.4780938,16.0615385 59.8125,16.0615385 C60.1618594,16.0615385 60.5003438,16.1003538 60.8320313,16.1632615 C60.9394219,16.1833385 61.041375,16.2181385 61.1460469,16.2435692 C61.3662656,16.2984462 61.5810469,16.3600154 61.7890313,16.4403231 C61.9045781,16.4858308 62.0146875,16.5380308 62.1275156,16.5902308 C62.3151094,16.6785692 62.4972656,16.7736 62.672625,16.8820154 C62.7786563,16.9476 62.8819688,17.0118462 62.9825625,17.0841231 C63.1538438,17.2059231 63.31425,17.3397692 63.4705781,17.4803077 C63.5548594,17.5566 63.6418594,17.6275385 63.7220625,17.7091846 C63.8974219,17.8885385 64.0551094,18.0812769 64.2032813,18.2833846 C64.2454219,18.3409385 64.2957188,18.3918 64.3365,18.4506923 C64.5159375,18.7157077 64.6709063,18.9967846 64.8000469,19.2912462 C64.8353906,19.3742308 64.8571406,19.4639077 64.8897656,19.5482308 Z" id="Shape" fill="#367CCC"></path>
                        <path d="M9.515625,5.35384615 C7.26721875,5.35384615 5.4375,7.15541538 5.4375,9.36923077 C5.4375,11.5830462 7.26721875,13.3846154 9.515625,13.3846154 C11.7640313,13.3846154 13.59375,11.5830462 13.59375,9.36923077 C13.59375,7.15541538 11.7640313,5.35384615 9.515625,5.35384615 Z M9.515625,10.7076923 C8.76525,10.7076923 8.15625,10.1080615 8.15625,9.36923077 C8.15625,8.6304 8.76525,8.03076923 9.515625,8.03076923 C10.266,8.03076923 10.875,8.6304 10.875,9.36923077 C10.875,10.1080615 10.266,10.7076923 9.515625,10.7076923 Z" id="Shape" fill="#1F2833"></path>
                        <path d="M77.484375,53.5384615 C71.5262344,53.5384615 67.96875,57.5404615 67.96875,64.2461538 C67.96875,69.1850769 71.9082187,74.6339538 74.4420937,77.6307692 L8.15625,77.6307692 C5.15746875,77.6307692 2.71875,75.2295692 2.71875,72.2769231 C2.71875,69.3242769 5.15746875,66.9230769 8.15625,66.9230769 L53.015625,66.9230769 C57.5137969,66.9230769 61.171875,63.3212769 61.171875,58.8923077 C61.171875,54.4633385 57.5137969,50.8615385 53.015625,50.8615385 L25.828125,50.8615385 C22.8293437,50.8615385 20.390625,48.4603385 20.390625,45.5076923 C20.390625,42.5550462 22.8293437,40.1538462 25.828125,40.1538462 L78.84375,40.1538462 C83.3419219,40.1538462 87,36.5520462 87,32.1230769 C87,27.6941077 83.3419219,24.0923077 78.84375,24.0923077 L64.4941875,24.0923077 C64.7402344,23.6773846 64.9319062,23.2303385 65.0569687,22.7538462 L69.328125,22.7538462 C70.0798594,22.7538462 70.6875,22.1555538 70.6875,21.4153846 L70.6875,13.3846154 C70.6875,12.6444462 70.0798594,12.0461538 69.328125,12.0461538 L66.1702969,12.0461538 L63.7941094,6.19573846 C63.586125,5.68712308 63.0872344,5.35384615 62.53125,5.35384615 L57.09375,5.35384615 L57.09375,1.33846154 C57.09375,0.598292308 56.4861094,0 55.734375,0 L33.984375,0 C33.2326406,0 32.625,0.598292308 32.625,1.33846154 L32.625,9.36923077 L29.90625,9.36923077 L29.90625,12.0461538 L32.625,12.0461538 L32.625,14.7230769 L27.1875,14.7230769 L27.1875,17.4 L32.625,17.4 L32.625,21.4153846 C32.625,22.1555538 33.2326406,22.7538462 33.984375,22.7538462 L38.2555312,22.7538462 C38.3805937,23.2303385 38.5722656,23.6773846 38.8183125,24.0923077 L12.5579062,24.0923077 C15.0917812,21.0954923 19.03125,15.6466154 19.03125,10.7076923 C19.03125,4.002 15.4737656,0 9.515625,0 C3.55748437,0 0,4.002 0,10.7076923 C0,17.8309846 8.20246875,26.0290615 8.55182812,26.3743846 C8.80739062,26.6273538 9.15403125,26.7692308 9.515625,26.7692308 L78.84375,26.7692308 C81.8425312,26.7692308 84.28125,29.1704308 84.28125,32.1230769 C84.28125,35.0757231 81.8425312,37.4769231 78.84375,37.4769231 L25.828125,37.4769231 C21.3299531,37.4769231 17.671875,41.0787231 17.671875,45.5076923 C17.671875,49.9366615 21.3299531,53.5384615 25.828125,53.5384615 L53.015625,53.5384615 C56.0144062,53.5384615 58.453125,55.9396615 58.453125,58.8923077 C58.453125,61.8449538 56.0144062,64.2461538 53.015625,64.2461538 L8.15625,64.2461538 C3.65807812,64.2461538 0,67.8479538 0,72.2769231 C0,76.7058923 3.65807812,80.3076923 8.15625,80.3076923 L77.484375,80.3076923 C77.8459687,80.3076923 78.1926094,80.1658154 78.4481719,79.9128462 C78.7975312,79.5675231 87,71.3694462 87,64.2461538 C87,57.5404615 83.4425156,53.5384615 77.484375,53.5384615 Z M2.71875,10.7076923 C2.71875,5.52918462 5.13164063,2.67692308 9.515625,2.67692308 C13.8996094,2.67692308 16.3125,5.52918462 16.3125,10.7076923 C16.3125,15.4230923 11.5941094,21.1624154 9.515625,23.4618923 C7.43714063,21.1624154 2.71875,15.4230923 2.71875,10.7076923 Z M43.5,24.0923077 C42.0006094,24.0923077 40.78125,22.8917077 40.78125,21.4153846 C40.78125,19.9390615 42.0006094,18.7384615 43.5,18.7384615 C44.9993906,18.7384615 46.21875,19.9390615 46.21875,21.4153846 C46.21875,22.8917077 44.9993906,24.0923077 43.5,24.0923077 Z M47.8894219,18.2820462 C47.74125,18.0799385 47.5835625,17.8872 47.4082031,17.7078462 C47.328,17.6262 47.241,17.5552615 47.1567188,17.4789692 C47.0003906,17.3384308 46.8413438,17.2045846 46.6687031,17.0827846 C46.5681094,17.0105077 46.4647969,16.9449231 46.3587656,16.8806769 C46.1834062,16.7736 46.0026094,16.6772308 45.8136562,16.5888923 C45.7021875,16.5366923 45.5920781,16.4844923 45.4751719,16.4389846 C45.2671875,16.3586769 45.0510469,16.2971077 44.8321875,16.2422308 C44.7261562,16.2154615 44.6255625,16.182 44.5181719,16.1619231 C44.1878438,16.1003538 43.8493594,16.0615385 43.5,16.0615385 C43.1506406,16.0615385 42.8121563,16.1003538 42.4804688,16.1632615 C42.3730781,16.1833385 42.271125,16.2181385 42.1664531,16.2435692 C41.9462344,16.2984462 41.7314531,16.3600154 41.5234687,16.4403231 C41.4079219,16.4858308 41.2978125,16.5380308 41.1849844,16.5902308 C40.9973906,16.6785692 40.8152344,16.7736 40.639875,16.8820154 C40.5338438,16.9476 40.4305313,17.0118462 40.3299375,17.0841231 C40.1586562,17.2059231 39.99825,17.3397692 39.8419219,17.4803077 C39.7576406,17.5566 39.6706406,17.6275385 39.5904375,17.7091846 C39.4150781,17.8885385 39.2573906,18.0812769 39.1092188,18.2833846 C39.0670781,18.3409385 39.0167813,18.3918 38.976,18.4506923 C38.7965625,18.7157077 38.6415938,18.9967846 38.5124531,19.2912462 C38.47575,19.3742308 38.454,19.4639077 38.421375,19.5495692 C38.3547656,19.7235692 38.2813594,19.8948923 38.2337812,20.0782615 L35.34375,20.0782615 L35.34375,2.67692308 L54.375,2.67692308 L54.375,6.69230769 L54.375,20.0769231 L48.7648594,20.0769231 C48.7172813,19.8948923 48.643875,19.7235692 48.5772656,19.5482308 C48.5446406,19.4625692 48.5228906,19.3742308 48.4861875,19.2899077 C48.3556875,18.9954462 48.2020781,18.7130308 48.0226406,18.4493538 C47.9818594,18.3904615 47.9315625,18.3396 47.8894219,18.2820462 Z M48.1816875,24.0923077 C48.4277344,23.6773846 48.6194062,23.2303385 48.7444687,22.7538462 L54.5680312,22.7538462 C54.6930937,23.2303385 54.8847656,23.6773846 55.1308125,24.0923077 L48.1816875,24.0923077 Z M59.8125,24.0923077 C58.3131094,24.0923077 57.09375,22.8917077 57.09375,21.4153846 C57.09375,19.9390615 58.3131094,18.7384615 59.8125,18.7384615 C61.3118906,18.7384615 62.53125,19.9390615 62.53125,21.4153846 C62.53125,22.8917077 61.3118906,24.0923077 59.8125,24.0923077 Z M64.2019219,18.2820462 C64.05375,18.0799385 63.8960625,17.8872 63.7207031,17.7078462 C63.6405,17.6262 63.5535,17.5552615 63.4692188,17.4789692 C63.3128906,17.3384308 63.1538438,17.2045846 62.9812031,17.0827846 C62.8806094,17.0105077 62.7772969,16.9449231 62.6712656,16.8806769 C62.4959063,16.7736 62.3151094,16.6772308 62.1261563,16.5888923 C62.0146875,16.5366923 61.9045781,16.4844923 61.7876719,16.4389846 C61.5796875,16.3586769 61.3635469,16.2971077 61.1446875,16.2422308 C61.0386563,16.2154615 60.9380625,16.182 60.8306719,16.1619231 C60.5003438,16.1003538 60.1618594,16.0615385 59.8125,16.0615385 C59.4780938,16.0615385 59.1545625,16.1016923 58.8364688,16.1592462 C58.7589844,16.1726308 58.6828594,16.1886923 58.605375,16.2047538 C58.2967969,16.2743538 57.9936563,16.3600154 57.7068281,16.4804769 C57.6905156,16.4871692 57.6755625,16.4965385 57.65925,16.5045692 C57.4648594,16.5875538 57.2759063,16.6772308 57.09375,16.7816308 L57.09375,8.03076923 L61.6109531,8.03076923 L63.9871406,13.8811846 C64.195125,14.3898 64.6940156,14.7230769 65.25,14.7230769 L67.96875,14.7230769 L67.96875,20.0769231 L65.0773594,20.0769231 C65.0297813,19.8948923 64.956375,19.7235692 64.8897656,19.5482308 C64.8571406,19.4625692 64.8353906,19.3742308 64.7986875,19.2899077 C64.6681875,18.9954462 64.5145781,18.7130308 64.3351406,18.4493538 C64.2943594,18.3904615 64.2440625,18.3396 64.2019219,18.2820462 Z M77.484375,77.0003538 C75.4058906,74.6995385 70.6875,68.9615538 70.6875,64.2461538 C70.6875,59.0676462 73.1003906,56.2153846 77.484375,56.2153846 C81.8683594,56.2153846 84.28125,59.0676462 84.28125,64.2461538 C84.28125,68.9615538 79.5628594,74.7008769 77.484375,77.0003538 Z" id="Shape" fill="#1F2833"></path>
                        <path d="M77.484375,58.8923077 C75.2359687,58.8923077 73.40625,60.6938769 73.40625,62.9076923 C73.40625,65.1215077 75.2359687,66.9230769 77.484375,66.9230769 C79.7327812,66.9230769 81.5625,65.1215077 81.5625,62.9076923 C81.5625,60.6938769 79.7327812,58.8923077 77.484375,58.8923077 Z M77.484375,64.2461538 C76.734,64.2461538 76.125,63.6465231 76.125,62.9076923 C76.125,62.1688615 76.734,61.5692308 77.484375,61.5692308 C78.23475,61.5692308 78.84375,62.1688615 78.84375,62.9076923 C78.84375,63.6465231 78.23475,64.2461538 77.484375,64.2461538 Z" id="Shape" fill="#1F2833"></path>
                        <rect id="Rectangle-path" fill="#1F2833" x="84.28125" y="82.9859538" width="2.71875" height="2.67692308"></rect>
                        <rect id="Rectangle-path" fill="#1F2833" x="78.84375" y="82.9859538" width="2.71875" height="2.67692308"></rect>
                        <rect id="Rectangle-path" fill="#1F2833" x="73.40625" y="82.9859538" width="2.71875" height="2.67692308"></rect>
                    </g>
                </g>
            </g>
        </g>
    </g>
</svg>