<?xml version="1.0" encoding="UTF-8"?>
<svg width="87px" height="86px" viewBox="0 0 87 86" version="1.1" xmlns="http://www.w3.org/2000/svg" xmlns:xlink="http://www.w3.org/1999/xlink">
    <!-- Generator: Sketch 51.2 (57519) - http://www.bohemiancoding.com/sketch -->
    <title>if_searching-fashion-cloth-ecomerce-shopping_1284230</title>
    <desc>Created with Sketch.</desc>
    <defs></defs>
    <g id="about" stroke="none" stroke-width="1" fill="none" fill-rule="evenodd">
        <g id="Desktop-HD" transform="translate(-670.000000, -1196.000000)" fill-rule="nonzero">
            <g id="Group-10" transform="translate(360.000000, 987.000000)">
                <g id="Group-8" transform="translate(293.000000, 209.000000)">
                    <g id="if_searching-fashion-cloth-ecomerce-shopping_1284230" transform="translate(17.000000, 0.000000)">
                        <path d="M9.515625,72.5625 C9.515625,70.3399375 11.3453437,68.53125 13.59375,68.53125 L13.843875,68.53125 C13.691625,68.1093125 13.59375,67.6605 13.59375,67.1875 C13.59375,64.9649375 15.4234687,63.15625 17.671875,63.15625 L17.922,63.15625 C17.76975,62.7343125 17.671875,62.2855 17.671875,61.8125 C17.671875,59.5899375 19.5015937,57.78125 21.75,57.78125 L22.000125,57.78125 C21.847875,57.3593125 21.75,56.9105 21.75,56.4375 C21.75,55.9645 21.847875,55.5156875 22.000125,55.09375 L19.03125,55.09375 L19.03125,52.40625 L25.828125,52.40625 L27.1875,52.40625 C29.7159375,52.40625 31.8487969,50.691625 32.4523594,48.375 L15.5159062,48.375 L11.8360781,52.0125312 C11.581875,52.2651562 11.2365937,52.40625 10.875,52.40625 L0,52.40625 L0,73.90625 L9.76575,73.90625 C9.6135,73.4843125 9.515625,73.0355 9.515625,72.5625 Z" id="Shape" fill="#F6E0CD"></path>
                        <path d="M21.75,28.21875 L21.75,37.625 L29.90625,37.625 L29.90625,28.21875 C29.90625,27.4756562 30.5138906,26.875 31.265625,26.875 L32.625,26.875 L32.625,24.1875 L29.6737969,24.1875 C29.112375,25.751625 27.60075,26.875 25.828125,26.875 C24.0555,26.875 22.543875,25.751625 21.9824531,24.1875 L19.03125,24.1875 L19.03125,26.875 L20.390625,26.875 C21.1423594,26.875 21.75,27.4756562 21.75,28.21875 Z" id="Shape" fill="#367CCC"></path>
                        <path d="M5.4375,28.21875 L5.4375,37.625 L13.59375,37.625 L13.59375,28.21875 C13.59375,27.4756562 14.2013906,26.875 14.953125,26.875 L16.3125,26.875 L16.3125,24.1875 L13.3612969,24.1875 C12.799875,25.751625 11.28825,26.875 9.515625,26.875 C7.743,26.875 6.231375,25.751625 5.66995312,24.1875 L2.71875,24.1875 L2.71875,26.875 L4.078125,26.875 C4.82985937,26.875 5.4375,27.4756562 5.4375,28.21875 Z" id="Shape" fill="#367CCC"></path>
                        <path d="M21.75,6.71875 L21.75,16.125 L29.90625,16.125 L29.90625,6.71875 C29.90625,5.97565625 30.5138906,5.375 31.265625,5.375 L32.625,5.375 L32.625,2.6875 L29.6737969,2.6875 C29.112375,4.251625 27.60075,5.375 25.828125,5.375 C24.0555,5.375 22.543875,4.251625 21.9824531,2.6875 L19.03125,2.6875 L19.03125,5.375 L20.390625,5.375 C21.1423594,5.375 21.75,5.97565625 21.75,6.71875 Z" id="Shape" fill="#367CCC"></path>
                        <path d="M5.4375,6.71875 L5.4375,16.125 L13.59375,16.125 L13.59375,6.71875 C13.59375,5.97565625 14.2013906,5.375 14.953125,5.375 L16.3125,5.375 L16.3125,2.6875 L13.3612969,2.6875 C12.799875,4.251625 11.28825,5.375 9.515625,5.375 C7.743,5.375 6.231375,4.251625 5.66995313,2.6875 L2.71875,2.6875 L2.71875,5.375 L4.078125,5.375 C4.82985937,5.375 5.4375,5.97565625 5.4375,6.71875 Z" id="Shape" fill="#367CCC"></path>
                        <path d="M55.3360781,81.5750312 C54.9717656,81.9351562 54.4334531,82.0614687 53.9454375,81.898875 L50.6652656,80.8185 L48.1409062,83.3125 L56.5309687,83.3125 L61.171875,78.7249375 L61.171875,76.59375 L60.3752812,76.59375 L55.3360781,81.5750312 Z" id="Shape" fill="#367CCC"></path>
                        <path d="M55.734375,57.78125 C53.96175,57.78125 52.450125,56.657875 51.8887031,55.09375 L48.9375,55.09375 L48.9375,57.78125 L50.296875,57.78125 C51.0486094,57.78125 51.65625,58.3819062 51.65625,59.125 L51.65625,68.53125 L59.8125,68.53125 L59.8125,59.125 C59.8125,58.3819062 60.4201406,57.78125 61.171875,57.78125 L62.53125,57.78125 L62.53125,55.09375 L59.5800469,55.09375 C59.018625,56.657875 57.507,57.78125 55.734375,57.78125 Z" id="Shape" fill="#367CCC"></path>
                        <path d="M62.53125,45.6875 C74.5236562,45.6875 84.28125,36.0420625 84.28125,24.1875 C84.28125,12.3329375 74.5236562,2.6875 62.53125,2.6875 C50.5388437,2.6875 40.78125,12.3329375 40.78125,24.1875 C40.78125,36.0420625 50.5388437,45.6875 62.53125,45.6875 Z M62.53125,5.375 C73.025625,5.375 81.5625,13.81375 81.5625,24.1875 C81.5625,34.56125 73.025625,43 62.53125,43 C52.036875,43 43.5,34.56125 43.5,24.1875 C43.5,13.81375 52.036875,5.375 62.53125,5.375 Z" id="Shape" fill="#D8D8D8"></path>
                        <path d="M78.4454531,81.5750312 C78.0811406,81.9351562 77.5428281,82.0614687 77.0548125,81.898875 L73.7746406,80.8185 L71.2502812,83.3125 L79.6403437,83.3125 L84.28125,78.7249375 L84.28125,76.59375 L83.4846562,76.59375 L78.4454531,81.5750312 Z" id="Shape" fill="#367CCC"></path>
                        <path d="M44.2109531,40.1660313 L39.3049687,45.015625 L41.4609375,47.1468125 L46.3669219,42.2972188 C45.6043125,41.6307188 44.8852031,40.919875 44.2109531,40.1660313 Z" id="Shape" fill="#D8D8D8"></path>
                        <path d="M32.625,60.46875 L25.828125,60.46875 L21.75,60.46875 C20.999625,60.46875 20.390625,61.07075 20.390625,61.8125 C20.390625,62.55425 20.999625,63.15625 21.75,63.15625 L28.546875,63.15625 L32.625,63.15625 C33.375375,63.15625 33.984375,62.55425 33.984375,61.8125 C33.984375,61.07075 33.375375,60.46875 32.625,60.46875 Z" id="Shape" fill="#F6E0CD"></path>
                        <path d="M35.3138437,47.617125 C35.1792656,49.4513437 34.4234531,51.1149062 33.2503125,52.40625 L36.703125,52.40625 C36.9505312,52.40625 37.1911406,52.4371562 37.4263125,52.4788125 L40.2184687,49.71875 L36.703125,46.2438125 L35.3138437,47.617125 Z" id="Shape" fill="#8B572A"></path>
                        <path d="M36.703125,55.09375 L27.1875,55.09375 L25.828125,55.09375 C25.07775,55.09375 24.46875,55.69575 24.46875,56.4375 C24.46875,57.17925 25.07775,57.78125 25.828125,57.78125 L32.625,57.78125 L36.703125,57.78125 C37.4535,57.78125 38.0625,57.17925 38.0625,56.4375 C38.0625,55.69575 37.4535,55.09375 36.703125,55.09375 Z" id="Shape" fill="#F6E0CD"></path>
                        <path d="M58.453125,22.84375 L58.453125,32.25 L66.609375,32.25 L66.609375,22.84375 C66.609375,22.1006563 67.2170156,21.5 67.96875,21.5 L69.328125,21.5 L69.328125,18.8125 L66.3769219,18.8125 C65.8155,20.376625 64.303875,21.5 62.53125,21.5 C60.758625,21.5 59.247,20.376625 58.6855781,18.8125 L55.734375,18.8125 L55.734375,21.5 L57.09375,21.5 C57.8454844,21.5 58.453125,22.1006563 58.453125,22.84375 Z" id="Shape" fill="#CC5636"></path>
                        <path d="M62.53125,40.3125 C71.5262344,40.3125 78.84375,33.0790938 78.84375,24.1875 C78.84375,15.2959062 71.5262344,8.0625 62.53125,8.0625 C53.5362656,8.0625 46.21875,15.2959062 46.21875,24.1875 C46.21875,33.0790938 53.5362656,40.3125 62.53125,40.3125 Z M53.015625,17.46875 C53.015625,16.7256562 53.6232656,16.125 54.375,16.125 L59.8125,16.125 C60.5642344,16.125 61.171875,16.7256562 61.171875,17.46875 C61.171875,18.2105 61.780875,18.8125 62.53125,18.8125 C63.281625,18.8125 63.890625,18.2105 63.890625,17.46875 C63.890625,16.7256562 64.4982656,16.125 65.25,16.125 L70.6875,16.125 C71.4392344,16.125 72.046875,16.7256562 72.046875,17.46875 L72.046875,22.84375 C72.046875,23.5868437 71.4392344,24.1875 70.6875,24.1875 L69.328125,24.1875 L69.328125,33.59375 C69.328125,34.3368437 68.7204844,34.9375 67.96875,34.9375 L57.09375,34.9375 C56.3420156,34.9375 55.734375,34.3368437 55.734375,33.59375 L55.734375,24.1875 L54.375,24.1875 C53.6232656,24.1875 53.015625,23.5868437 53.015625,22.84375 L53.015625,17.46875 Z" id="Shape" fill="#F4F6FA"></path>
                        <path d="M28.546875,65.84375 L21.75,65.84375 L17.671875,65.84375 C16.9215,65.84375 16.3125,66.44575 16.3125,67.1875 C16.3125,67.92925 16.9215,68.53125 17.671875,68.53125 L24.46875,68.53125 L28.546875,68.53125 C29.29725,68.53125 29.90625,67.92925 29.90625,67.1875 C29.90625,66.44575 29.29725,65.84375 28.546875,65.84375 Z" id="Shape" fill="#F6E0CD"></path>
                        <path d="M24.46875,71.21875 L17.671875,71.21875 L13.59375,71.21875 C12.843375,71.21875 12.234375,71.82075 12.234375,72.5625 C12.234375,73.30425 12.843375,73.90625 13.59375,73.90625 L14.953125,73.90625 L24.46875,73.90625 C25.219125,73.90625 25.828125,73.30425 25.828125,72.5625 C25.828125,71.82075 25.219125,71.21875 24.46875,71.21875 Z" id="Shape" fill="#F6E0CD"></path>
                        <path d="M77.484375,57.78125 C75.71175,57.78125 74.200125,56.657875 73.6387031,55.09375 L70.6875,55.09375 L70.6875,57.78125 L72.046875,57.78125 C72.7986094,57.78125 73.40625,58.3819062 73.40625,59.125 L73.40625,68.53125 L81.5625,68.53125 L81.5625,59.125 C81.5625,58.3819062 82.1701406,57.78125 82.921875,57.78125 L84.28125,57.78125 L84.28125,55.09375 L81.3300469,55.09375 C80.768625,56.657875 79.257,57.78125 77.484375,57.78125 Z" id="Shape" fill="#367CCC"></path>
                        <path d="M48.5092969,43.9795938 C52.4854687,46.7396563 57.3153281,48.375 62.53125,48.375 C76.0230469,48.375 87,37.5242188 87,24.1875 C87,10.8507813 76.0230469,0 62.53125,0 C49.0394531,0 38.0625,10.8507813 38.0625,24.1875 C38.0625,29.3434688 39.7168594,34.1178125 42.5090156,38.0482813 L37.3257187,43.172 C36.8132344,42.9059375 36.1729687,42.96775 35.7420469,43.3937188 L33.4215937,45.6875 L14.953125,45.6875 C14.5915312,45.6875 14.24625,45.8285938 13.9920469,46.0812188 L10.3122187,49.71875 L0,49.71875 L0,51.0625 L0,52.40625 L10.875,52.40625 C11.2365937,52.40625 11.581875,52.2651563 11.8360781,52.0125313 L15.5159062,48.375 L32.4523594,48.375 C31.8487969,50.691625 29.7159375,52.40625 27.1875,52.40625 L25.828125,52.40625 L19.03125,52.40625 L19.03125,55.09375 L22.000125,55.09375 C21.847875,55.5156875 21.75,55.9645 21.75,56.4375 C21.75,56.9105 21.847875,57.3593125 22.000125,57.78125 L21.75,57.78125 C19.5015937,57.78125 17.671875,59.5899375 17.671875,61.8125 C17.671875,62.2855 17.76975,62.7343125 17.922,63.15625 L17.671875,63.15625 C15.4234687,63.15625 13.59375,64.9649375 13.59375,67.1875 C13.59375,67.6605 13.691625,68.1093125 13.843875,68.53125 L13.59375,68.53125 C11.3453437,68.53125 9.515625,70.3399375 9.515625,72.5625 C9.515625,73.0355 9.6135,73.4843125 9.76575,73.90625 L0,73.90625 L0,75.25 L0,76.59375 L13.59375,76.59375 L14.953125,76.59375 L24.46875,76.59375 C26.7171562,76.59375 28.546875,74.7850625 28.546875,72.5625 C28.546875,72.0895 28.449,71.6406875 28.29675,71.21875 L28.546875,71.21875 C30.7952812,71.21875 32.625,69.4100625 32.625,67.1875 C32.625,66.7145 32.527125,66.2656875 32.374875,65.84375 L32.625,65.84375 C34.8734062,65.84375 36.703125,64.0350625 36.703125,61.8125 C36.703125,61.3395 36.60525,60.8906875 36.453,60.46875 L36.703125,60.46875 C38.9515312,60.46875 40.78125,58.6600625 40.78125,56.4375 C40.78125,55.4673125 40.4196562,54.5898438 39.8405625,53.8924375 L43.1017031,50.6687813 C43.532625,50.2428125 43.5951562,49.6099063 43.326,49.1033125 L48.5092969,43.9795938 Z M40.78125,24.1875 C40.78125,12.3329375 50.5388437,2.6875 62.53125,2.6875 C74.5236562,2.6875 84.28125,12.3329375 84.28125,24.1875 C84.28125,36.0420625 74.5236562,45.6875 62.53125,45.6875 C50.5388437,45.6875 40.78125,36.0420625 40.78125,24.1875 Z M24.46875,73.90625 L14.953125,73.90625 L13.59375,73.90625 C12.843375,73.90625 12.234375,73.30425 12.234375,72.5625 C12.234375,71.82075 12.843375,71.21875 13.59375,71.21875 L17.671875,71.21875 L24.46875,71.21875 C25.219125,71.21875 25.828125,71.82075 25.828125,72.5625 C25.828125,73.30425 25.219125,73.90625 24.46875,73.90625 Z M28.546875,68.53125 L24.46875,68.53125 L17.671875,68.53125 C16.9215,68.53125 16.3125,67.92925 16.3125,67.1875 C16.3125,66.44575 16.9215,65.84375 17.671875,65.84375 L21.75,65.84375 L28.546875,65.84375 C29.29725,65.84375 29.90625,66.44575 29.90625,67.1875 C29.90625,67.92925 29.29725,68.53125 28.546875,68.53125 Z M32.625,63.15625 L28.546875,63.15625 L21.75,63.15625 C20.999625,63.15625 20.390625,62.55425 20.390625,61.8125 C20.390625,61.07075 20.999625,60.46875 21.75,60.46875 L25.828125,60.46875 L32.625,60.46875 C33.375375,60.46875 33.984375,61.07075 33.984375,61.8125 C33.984375,62.55425 33.375375,63.15625 32.625,63.15625 Z M36.703125,57.78125 L32.625,57.78125 L25.828125,57.78125 C25.07775,57.78125 24.46875,57.17925 24.46875,56.4375 C24.46875,55.69575 25.07775,55.09375 25.828125,55.09375 L27.1875,55.09375 L36.703125,55.09375 C37.4535,55.09375 38.0625,55.69575 38.0625,56.4375 C38.0625,57.17925 37.4535,57.78125 36.703125,57.78125 Z M37.4263125,52.4788125 C37.1911406,52.4371562 36.9505312,52.40625 36.703125,52.40625 L33.2503125,52.40625 C34.4234531,51.1149062 35.1792656,49.4526875 35.3138437,47.617125 L36.703125,46.2438125 L40.2184687,49.71875 L37.4263125,52.4788125 Z M41.4609375,47.1468125 L39.3049687,45.015625 L44.2109531,40.1660312 C44.8852031,40.919875 45.6043125,41.6307187 46.3669219,42.2972187 L41.4609375,47.1468125 Z" id="Shape" fill="#1F2833"></path>
                        <path d="M62.53125,43 C73.025625,43 81.5625,34.56125 81.5625,24.1875 C81.5625,13.81375 73.025625,5.375 62.53125,5.375 C52.036875,5.375 43.5,13.81375 43.5,24.1875 C43.5,34.56125 52.036875,43 62.53125,43 Z M62.53125,8.0625 C71.5262344,8.0625 78.84375,15.2959063 78.84375,24.1875 C78.84375,33.0790938 71.5262344,40.3125 62.53125,40.3125 C53.5362656,40.3125 46.21875,33.0790938 46.21875,24.1875 C46.21875,15.2959063 53.5362656,8.0625 62.53125,8.0625 Z" id="Shape" fill="#1F2833"></path>
                        <path d="M54.375,24.1875 L55.734375,24.1875 L55.734375,33.59375 C55.734375,34.3368438 56.3420156,34.9375 57.09375,34.9375 L67.96875,34.9375 C68.7204844,34.9375 69.328125,34.3368438 69.328125,33.59375 L69.328125,24.1875 L70.6875,24.1875 C71.4392344,24.1875 72.046875,23.5868438 72.046875,22.84375 L72.046875,17.46875 C72.046875,16.7256562 71.4392344,16.125 70.6875,16.125 L65.25,16.125 C64.4982656,16.125 63.890625,16.7256562 63.890625,17.46875 C63.890625,18.2105 63.281625,18.8125 62.53125,18.8125 C61.780875,18.8125 61.171875,18.2105 61.171875,17.46875 C61.171875,16.7256562 60.5642344,16.125 59.8125,16.125 L54.375,16.125 C53.6232656,16.125 53.015625,16.7256562 53.015625,17.46875 L53.015625,22.84375 C53.015625,23.5868438 53.6232656,24.1875 54.375,24.1875 Z M55.734375,18.8125 L58.6855781,18.8125 C59.247,20.376625 60.758625,21.5 62.53125,21.5 C64.303875,21.5 65.8155,20.376625 66.3769219,18.8125 L69.328125,18.8125 L69.328125,21.5 L67.96875,21.5 C67.2170156,21.5 66.609375,22.1006563 66.609375,22.84375 L66.609375,32.25 L58.453125,32.25 L58.453125,22.84375 C58.453125,22.1006563 57.8454844,21.5 57.09375,21.5 L55.734375,21.5 L55.734375,18.8125 Z" id="Shape" fill="#1F2833"></path>
                        <path d="M1.359375,29.5625 L2.71875,29.5625 L2.71875,38.96875 C2.71875,39.7118437 3.32639062,40.3125 4.078125,40.3125 L14.953125,40.3125 C15.7048594,40.3125 16.3125,39.7118437 16.3125,38.96875 L16.3125,29.5625 L17.671875,29.5625 L19.03125,29.5625 L19.03125,38.96875 C19.03125,39.7118437 19.6388906,40.3125 20.390625,40.3125 L31.265625,40.3125 C32.0173594,40.3125 32.625,39.7118437 32.625,38.96875 L32.625,29.5625 L33.984375,29.5625 C34.7361094,29.5625 35.34375,28.9618437 35.34375,28.21875 L35.34375,22.84375 C35.34375,22.1006562 34.7361094,21.5 33.984375,21.5 L28.546875,21.5 C27.7951406,21.5 27.1875,22.1006562 27.1875,22.84375 C27.1875,23.5855 26.5785,24.1875 25.828125,24.1875 C25.07775,24.1875 24.46875,23.5855 24.46875,22.84375 C24.46875,22.1006562 23.8611094,21.5 23.109375,21.5 L17.671875,21.5 L12.234375,21.5 C11.4826406,21.5 10.875,22.1006562 10.875,22.84375 C10.875,23.5855 10.266,24.1875 9.515625,24.1875 C8.76525,24.1875 8.15625,23.5855 8.15625,22.84375 C8.15625,22.1006562 7.54860937,21.5 6.796875,21.5 L1.359375,21.5 C0.607640625,21.5 0,22.1006562 0,22.84375 L0,28.21875 C0,28.9618437 0.607640625,29.5625 1.359375,29.5625 Z M19.03125,24.1875 L21.9824531,24.1875 C22.543875,25.751625 24.0555,26.875 25.828125,26.875 C27.60075,26.875 29.112375,25.751625 29.6737969,24.1875 L32.625,24.1875 L32.625,26.875 L31.265625,26.875 C30.5138906,26.875 29.90625,27.4756562 29.90625,28.21875 L29.90625,37.625 L21.75,37.625 L21.75,28.21875 C21.75,27.4756562 21.1423594,26.875 20.390625,26.875 L19.03125,26.875 L19.03125,24.1875 Z M2.71875,24.1875 L5.66995313,24.1875 C6.231375,25.751625 7.743,26.875 9.515625,26.875 C11.28825,26.875 12.799875,25.751625 13.3612969,24.1875 L16.3125,24.1875 L16.3125,26.875 L14.953125,26.875 C14.2013906,26.875 13.59375,27.4756562 13.59375,28.21875 L13.59375,37.625 L5.4375,37.625 L5.4375,28.21875 C5.4375,27.4756562 4.82985938,26.875 4.078125,26.875 L2.71875,26.875 L2.71875,24.1875 Z" id="Shape" fill="#1F2833"></path>
                        <path d="M1.359375,8.0625 L2.71875,8.0625 L2.71875,17.46875 C2.71875,18.2118438 3.32639062,18.8125 4.078125,18.8125 L14.953125,18.8125 C15.7048594,18.8125 16.3125,18.2118438 16.3125,17.46875 L16.3125,8.0625 L17.671875,8.0625 L19.03125,8.0625 L19.03125,17.46875 C19.03125,18.2118438 19.6388906,18.8125 20.390625,18.8125 L31.265625,18.8125 C32.0173594,18.8125 32.625,18.2118438 32.625,17.46875 L32.625,8.0625 L33.984375,8.0625 C34.7361094,8.0625 35.34375,7.46184375 35.34375,6.71875 L35.34375,1.34375 C35.34375,0.60065625 34.7361094,0 33.984375,0 L28.546875,0 C27.7951406,0 27.1875,0.60065625 27.1875,1.34375 C27.1875,2.0855 26.5785,2.6875 25.828125,2.6875 C25.07775,2.6875 24.46875,2.0855 24.46875,1.34375 C24.46875,0.60065625 23.8611094,0 23.109375,0 L17.671875,0 L12.234375,0 C11.4826406,0 10.875,0.60065625 10.875,1.34375 C10.875,2.0855 10.266,2.6875 9.515625,2.6875 C8.76525,2.6875 8.15625,2.0855 8.15625,1.34375 C8.15625,0.60065625 7.54860937,0 6.796875,0 L1.359375,0 C0.607640625,0 0,0.60065625 0,1.34375 L0,6.71875 C0,7.46184375 0.607640625,8.0625 1.359375,8.0625 Z M19.03125,2.6875 L21.9824531,2.6875 C22.543875,4.251625 24.0555,5.375 25.828125,5.375 C27.60075,5.375 29.112375,4.251625 29.6737969,2.6875 L32.625,2.6875 L32.625,5.375 L31.265625,5.375 C30.5138906,5.375 29.90625,5.97565625 29.90625,6.71875 L29.90625,16.125 L21.75,16.125 L21.75,6.71875 C21.75,5.97565625 21.1423594,5.375 20.390625,5.375 L19.03125,5.375 L19.03125,2.6875 Z M2.71875,2.6875 L5.66995313,2.6875 C6.231375,4.251625 7.743,5.375 9.515625,5.375 C11.28825,5.375 12.799875,4.251625 13.3612969,2.6875 L16.3125,2.6875 L16.3125,5.375 L14.953125,5.375 C14.2013906,5.375 13.59375,5.97565625 13.59375,6.71875 L13.59375,16.125 L5.4375,16.125 L5.4375,6.71875 C5.4375,5.97565625 4.82985938,5.375 4.078125,5.375 L2.71875,5.375 L2.71875,2.6875 Z" id="Shape" fill="#1F2833"></path>
                        <path d="M85.640625,52.40625 L80.203125,52.40625 C79.4513906,52.40625 78.84375,53.0069062 78.84375,53.75 C78.84375,54.49175 78.23475,55.09375 77.484375,55.09375 C76.734,55.09375 76.125,54.49175 76.125,53.75 C76.125,53.0069062 75.5173594,52.40625 74.765625,52.40625 L69.328125,52.40625 C68.5763906,52.40625 67.96875,53.0069062 67.96875,53.75 L67.96875,59.125 C67.96875,59.8680938 68.5763906,60.46875 69.328125,60.46875 L70.6875,60.46875 L70.6875,69.875 C70.6875,70.6180938 71.2951406,71.21875 72.046875,71.21875 L82.921875,71.21875 C83.6736094,71.21875 84.28125,70.6180938 84.28125,69.875 L84.28125,60.46875 L85.640625,60.46875 C86.3923594,60.46875 87,59.8680938 87,59.125 L87,53.75 C87,53.0069062 86.3923594,52.40625 85.640625,52.40625 Z M84.28125,57.78125 L82.921875,57.78125 C82.1701406,57.78125 81.5625,58.3819063 81.5625,59.125 L81.5625,68.53125 L73.40625,68.53125 L73.40625,59.125 C73.40625,58.3819063 72.7986094,57.78125 72.046875,57.78125 L70.6875,57.78125 L70.6875,55.09375 L73.6387031,55.09375 C74.200125,56.657875 75.71175,57.78125 77.484375,57.78125 C79.257,57.78125 80.768625,56.657875 81.3300469,55.09375 L84.28125,55.09375 L84.28125,57.78125 Z" id="Shape" fill="#1F2833"></path>
                        <path d="M63.890625,52.40625 L58.453125,52.40625 C57.7013906,52.40625 57.09375,53.0069062 57.09375,53.75 C57.09375,54.49175 56.48475,55.09375 55.734375,55.09375 C54.984,55.09375 54.375,54.49175 54.375,53.75 C54.375,53.0069062 53.7673594,52.40625 53.015625,52.40625 L47.578125,52.40625 C46.8263906,52.40625 46.21875,53.0069062 46.21875,53.75 L46.21875,59.125 C46.21875,59.8680938 46.8263906,60.46875 47.578125,60.46875 L48.9375,60.46875 L48.9375,69.875 C48.9375,70.6180938 49.5451406,71.21875 50.296875,71.21875 L61.171875,71.21875 C61.9236094,71.21875 62.53125,70.6180938 62.53125,69.875 L62.53125,60.46875 L63.890625,60.46875 C64.6423594,60.46875 65.25,59.8680938 65.25,59.125 L65.25,53.75 C65.25,53.0069062 64.6423594,52.40625 63.890625,52.40625 Z M62.53125,57.78125 L61.171875,57.78125 C60.4201406,57.78125 59.8125,58.3819063 59.8125,59.125 L59.8125,68.53125 L51.65625,68.53125 L51.65625,59.125 C51.65625,58.3819063 51.0486094,57.78125 50.296875,57.78125 L48.9375,57.78125 L48.9375,55.09375 L51.8887031,55.09375 C52.450125,56.657875 53.96175,57.78125 55.734375,57.78125 C57.507,57.78125 59.018625,56.657875 59.5800469,55.09375 L62.53125,55.09375 L62.53125,57.78125 Z" id="Shape" fill="#1F2833"></path>
                        <path d="M62.53125,73.90625 L59.8125,73.90625 C59.4509063,73.90625 59.105625,74.0473438 58.8514219,74.2999688 L54.0079687,79.0864062 L50.7277969,78.0060312 C50.2411406,77.8420937 49.7001094,77.9710937 49.3371562,78.329875 L43.8996562,83.704875 C43.510875,84.0891875 43.3939687,84.667 43.6046719,85.1695625 C43.8126562,85.6734687 44.3101875,86 44.859375,86 L57.09375,86 C57.4553437,86 57.800625,85.8589062 58.0548281,85.6062812 L61.171875,82.5250625 L61.171875,86 L63.890625,86 L63.890625,75.25 C63.890625,74.5069063 63.2829844,73.90625 62.53125,73.90625 Z M61.171875,78.7249375 L56.5309688,83.3125 L48.1409063,83.3125 L50.6639063,80.8198437 L53.9440781,81.9002187 C54.4320938,82.0628125 54.9717656,81.9351562 55.3347188,81.576375 L60.3752813,76.59375 L61.171875,76.59375 L61.171875,78.7249375 Z" id="Shape" fill="#1F2833"></path>
                        <path d="M85.640625,73.90625 L82.921875,73.90625 C82.5602812,73.90625 82.215,74.0473438 81.9607969,74.2999688 L77.1173437,79.0864062 L73.8371719,78.0060312 C73.3505156,77.8420937 72.8094844,77.9710937 72.4465312,78.329875 L67.0090312,83.704875 C66.62025,84.0891875 66.5033437,84.667 66.7140469,85.1695625 C66.9220312,85.6734687 67.4195625,86 67.96875,86 L80.203125,86 C80.5647187,86 80.91,85.8589062 81.1642031,85.6062812 L84.28125,82.5250625 L84.28125,86 L87,86 L87,75.25 C87,74.5069063 86.3923594,73.90625 85.640625,73.90625 Z M84.28125,78.7249375 L79.6403437,83.3125 L71.2502812,83.3125 L73.7732812,80.8198437 L77.0534531,81.9002187 C77.5414687,82.0628125 78.0811406,81.9351562 78.4440937,81.576375 L83.4846562,76.59375 L84.28125,76.59375 L84.28125,78.7249375 Z" id="Shape" fill="#1F2833"></path>
                        <rect id="Rectangle-path" fill="#1F2833" x="38.0625" y="80.625" width="2.71875" height="2.6875"></rect>
                        <rect id="Rectangle-path" fill="#1F2833" x="32.625" y="80.625" width="2.71875" height="2.6875"></rect>
                        <rect id="Rectangle-path" fill="#1F2833" x="27.1875" y="80.625" width="2.71875" height="2.6875"></rect>
                        <rect id="Rectangle-path" fill="#1F2833" x="43.5" y="75.25" width="2.71875" height="2.6875"></rect>
                        <rect id="Rectangle-path" fill="#1F2833" x="38.0625" y="75.25" width="2.71875" height="2.6875"></rect>
                        <rect id="Rectangle-path" fill="#1F2833" x="38.0625" y="69.875" width="2.71875" height="2.6875"></rect>
                        <rect id="Rectangle-path" fill="#1F2833" x="32.625" y="75.25" width="2.71875" height="2.6875"></rect>
                        <rect id="Rectangle-path" fill="#1F2833" x="21.75" y="80.625" width="2.71875" height="2.6875"></rect>
                        <rect id="Rectangle-path" fill="#1F2833" x="16.3125" y="80.625" width="2.71875" height="2.6875"></rect>
                        <rect id="Rectangle-path" fill="#1F2833" x="10.875" y="80.625" width="2.71875" height="2.6875"></rect>
                        <rect id="Rectangle-path" fill="#1F2833" x="5.4375" y="80.625" width="2.71875" height="2.6875"></rect>
                        <rect id="Rectangle-path" fill="#1F2833" x="0" y="80.625" width="2.71875" height="2.6875"></rect>
                    </g>
                </g>
            </g>
        </g>
    </g>
</svg>