<?xml version="1.0" encoding="UTF-8"?>
<svg width="30px" height="31px" viewBox="0 0 30 31" version="1.1" xmlns="http://www.w3.org/2000/svg" xmlns:xlink="http://www.w3.org/1999/xlink">
    <!-- Generator: Sketch 51.2 (57519) - http://www.bohemiancoding.com/sketch -->
    <title>Group 15</title>
    <desc>Created with Sketch.</desc>
    <defs>
        <polygon id="path-1" points="0 0.114199393 29.9669032 0.114199393 29.9669032 26.8807876 0 26.8807876"></polygon>
        <polygon id="path-3" points="0.113838254 0.0682 29.7162012 0.0682 29.7162012 30.8 0.113838254 30.8"></polygon>
    </defs>
    <g id="home" stroke="none" stroke-width="1" fill="none" fill-rule="evenodd">
        <g id="Desktop-HD" transform="translate(-220.000000, -577.000000)">
            <g id="Group-16" transform="translate(119.000000, 86.000000)">
                <g id="Group-8" transform="translate(101.000000, 490.000000)">
                    <g id="Group-15" transform="translate(0.000000, 1.000000)">
                        <g id="Group-3" transform="translate(0.000000, 0.531800)">
                            <mask id="mask-2" fill="white">
                                <use xlink:href="#path-1"></use>
                            </mask>
                            <g id="Clip-2"></g>
                            <path d="M24.2124,1.41868 C19.4493677,-0.46032 8.72756129,-0.53672 4.25620645,2.70208 C-1.20495484,6.65808 -0.140825806,14.17308 0.636851613,20.11928 C1.91717419,29.90728 23.1174968,27.39808 28.7588516,23.00348 C30.3924,21.73128 29.8934323,16.31448 29.9013677,13.52768 C29.9180129,7.49728 28.8269806,3.23868 24.2124,1.41868" id="Fill-1" fill="#0D71BA" mask="url(#mask-2)"></path>
                        </g>
                        <path d="M28.7744129,22.4165 C28.7744129,22.4165 23.3031871,22.3985 21.494671,22.1813 C19.0567355,21.8885 12.2465419,21.8477 10.2346065,21.7089 C7.99602581,21.5541 1.12254194,21.9517 1.12254194,21.9517 C1.12254194,21.9517 1.27583226,23.5267 1.17344516,24.7667 C0.622993548,31.4321 17.5133806,29.4773 21.7729935,29.5699 C23.6755742,29.6113 29.7123484,27.9549 28.7744129,22.4165" id="Fill-4" fill="#56A1D3"></path>
                        <path d="M24.9728129,5.43104 C24.9919742,4.31084 23.3127484,3.94144 22.3237161,4.10404 C21.8652,4.17944 21.3362323,4.06224 20.8711355,4.06424 C20.2351355,4.06724 19.6117161,4.24764 19.0461677,4.53784 C18.0275226,5.06064 17.2064903,5.88264 16.6523613,6.90744 C15.8756516,8.34344 15.4316516,10.14424 15.5036516,11.90044 C11.5217806,11.93624 12.8584258,15.55064 13.2637161,15.60304 C13.7561032,15.66644 14.9634581,15.66344 15.4562323,15.68964 C15.4537161,18.04484 14.8959097,20.25484 14.8121032,22.60304 C14.7486194,24.39224 14.4699097,26.60104 14.9104258,30.44124 C14.9104258,30.44124 18.8115871,31.07264 19.0368774,28.63124 C19.1994581,26.86944 19.3597161,25.32484 19.4437161,23.54684 C19.5581032,21.12244 19.5656516,18.69384 19.683329,16.26944 C19.6908774,16.11144 19.6930065,15.95364 19.6968774,15.79564 C20.3382968,15.76844 20.9797161,15.70204 21.6234581,15.56824 C23.9473935,15.08484 24.5543613,12.13604 21.4202323,12.10404 C21.0797806,12.10044 19.9748129,12.01644 19.6349419,12.04264 C19.6171355,11.24304 19.6155871,10.44344 19.6707484,9.64364 C19.7144903,9.01184 19.8981677,8.46344 20.4197806,8.08924 C20.7865548,7.82644 21.0778452,7.85724 21.5218452,7.87764 C22.1334581,7.90564 22.6943613,7.86784 23.3007484,7.76804 C24.2922968,7.60524 24.9416516,7.26964 24.9728129,5.43104" id="Fill-6" fill="#FFFFFF"></path>
                        <path d="M19.3252581,12.1496 L19.3252581,12.1486 C19.3227581,12.1316 19.3207581,12.1176 19.3182581,12.1071 C19.3207581,12.1171 19.3227581,12.1291 19.3252581,12.1496" id="Fill-8" fill="#000000"></path>
                        <path d="M19.3206585,12.1187143 C19.3161585,12.0917143 19.3166585,12.0942143 19.3206585,12.1187143" id="Fill-10" fill="#000000"></path>
                        <g id="Group-14" transform="translate(0.000000, 0.131800)">
                            <mask id="mask-4" fill="white">
                                <use xlink:href="#path-3"></use>
                            </mask>
                            <g id="Clip-13"></g>
                            <path d="M28.8500129,15.2259 C28.8353032,15.7957 28.8008516,16.3659 28.7722065,16.9369 L28.7346581,17.7943 L28.6913032,18.6531 C28.6789161,18.9397 28.6647871,19.2263 28.6601419,19.5131 C28.6578194,19.6611 28.6531742,19.7927 28.6446581,19.9295 L28.6189161,20.3473 C28.5407226,21.4709 28.5734323,22.6049 28.5546581,23.7323 L28.5211742,25.4103 C28.510529,25.8965 28.4133677,26.3779 28.2318194,26.8343 C27.8708516,27.7457 27.1872387,28.5555 26.3267226,29.0761 C25.8958839,29.3335 25.4245935,29.5209 24.9387871,29.6121 C24.8141419,29.6355 24.7030452,29.6503 24.5656258,29.6629 L24.160529,29.6997 C23.8895613,29.7237 23.6174323,29.7411 23.3449161,29.7549 C22.3291742,29.8097 21.3082065,29.8405 20.2870452,29.8431 L20.1370452,24.2241 C20.0973677,23.2255 20.0226581,22.2271 20.0441419,21.2283 C20.046271,20.7289 20.0994968,20.2297 20.1190452,19.7309 L20.2042065,18.2529 L20.2042065,18.2553 C20.2042065,17.7203 20.1995613,17.2251 20.2045935,16.7197 C20.2078839,16.4979 20.1968516,16.2677 20.2134968,16.0661 C20.3040774,16.0547 20.3931097,16.0455 20.4896903,16.0383 C20.6075613,16.0293 20.7238839,16.0231 20.8423355,16.0225 C20.9613677,16.0201 21.0699484,16.0231 21.198271,16.0263 C21.4471742,16.0347 21.688529,16.0313 21.9384,16.0443 C22.4346581,16.0571 22.942529,16.1547 23.4552387,16.1261 C23.6627226,16.1145 23.844271,15.9581 23.8843355,15.7375 L23.8926581,15.6917 C23.9034968,15.6307 23.9100774,15.5605 23.9187871,15.4917 L23.9338839,15.3849 L23.9437548,15.3115 L23.9474323,15.2603 L23.9480129,15.2471 L23.9489806,15.2207 L23.9627226,14.7989 C23.9671742,14.5179 23.976271,14.2367 23.9724,13.9551 C23.9658194,13.6735 23.9656258,13.3917 23.9520774,13.1095 C23.9375613,12.8273 23.9323355,12.5451 23.9075613,12.2625 L23.9007871,12.1861 C23.8833677,11.9925 23.7190452,11.8481 23.5307226,11.8623 L22.8229161,11.9161 C22.5867871,11.9283 22.3506581,11.9319 22.1147226,11.9303 C21.6432387,11.9301 21.1711742,11.9269 20.7029806,11.9101 C20.4703355,11.9007 20.2334323,11.8903 20.0147226,11.8627 C19.9903355,11.8595 19.9649806,11.8555 19.9415613,11.8513 L19.9254968,11.5115 C19.9074968,11.0279 19.9061419,10.5433 19.9344,10.0625 C19.9593677,9.5833 20.0263355,9.1003 20.1774968,8.6653 C20.2506581,8.4517 20.3604,8.2419 20.5059484,8.1355 L20.5285935,8.1193 L20.566529,8.0959 L20.6319484,8.0625 C20.6797548,8.0385 20.7304645,8.0181 20.7807871,7.9981 C20.8825935,7.9597 20.9888516,7.9285 21.0970452,7.9031 C21.9790452,7.7151 22.9220129,7.8417 23.8640129,7.9239 C24.0403355,7.9389 24.1990452,7.8075 24.220529,7.6243 L24.2255613,7.5805 C24.2855613,7.0735 24.3380129,6.5615 24.3676258,6.0435 C24.3865935,5.5257 24.388529,5.0045 24.3633677,4.4909 C24.3517548,4.2473 24.1686581,4.0429 23.9267226,4.0187 L23.8824,4.0143 L22.876529,3.9137 C22.5308516,3.8773 22.1828516,3.8487 21.8331097,3.8197 C21.4825935,3.7919 21.1334323,3.7657 20.7678194,3.7543 C20.3931097,3.7449 20.0439484,3.7599 19.6779484,3.7893 C19.3154323,3.8167 18.9517548,3.8729 18.5894323,3.9553 C18.2300129,4.0421 17.8582065,4.1323 17.5274323,4.3397 C17.1939484,4.5403 16.8985935,4.7947 16.6014968,5.0353 C16.3030452,5.2779 16.0409806,5.5737 15.8216903,5.9025 C15.6082065,6.2351 15.4434968,6.6029 15.3403355,6.9833 C15.3153677,7.0791 15.2946581,7.1729 15.2743355,7.2747 L15.2615613,7.3417 L15.2555613,7.3749 L15.2480129,7.4313 L15.2304,7.5679 C15.2048516,7.7469 15.1930452,7.9261 15.1750452,8.1051 C15.1092387,8.8245 15.0391742,9.5279 15.0010452,10.2673 L14.9888516,10.3449 L14.9789806,10.4251 L14.9789806,10.5591 L14.9873032,10.8245 L14.9824645,11.3457 C14.9795613,11.4237 14.9789806,11.4965 14.9751097,11.5697 C14.9511097,11.5739 14.9284645,11.5781 14.9036903,11.5819 C14.5895613,11.6279 14.2464,11.6535 13.9061419,11.6771 C13.5598839,11.7019 13.2533032,11.7129 12.8784,11.7435 C12.6366581,11.7641 12.4630452,11.9709 12.4630452,12.2269 L12.4630452,12.2393 L12.406529,13.8549 C12.3939484,14.3975 12.3821419,14.9451 12.4034323,15.4961 L12.3980129,15.5133 C12.4078839,15.7695 12.6103355,15.9727 12.8602065,15.9699 C13.5469161,15.9621 14.2465935,15.9573 14.9158839,15.9903 C14.9596258,15.9927 14.9993032,15.9967 15.0414968,15.9999 L15.0469161,16.1967 L15.0707226,17.2735 L15.1104,19.4311 C15.1061419,19.7907 15.1067226,20.1505 15.0949161,20.5103 L15.0502065,21.5897 C15.0310452,21.9495 15.0293032,22.3095 15.0194323,22.6693 C15.0147871,23.0291 15.0217548,23.3887 15.022529,23.7487 C15.0248516,24.4683 15.0329806,25.1885 15.0478839,25.9097 C15.0742065,27.1807 15.0658839,28.4515 15.0976258,29.7297 L13.4756903,29.6655 C12.3792387,29.6149 11.2690452,29.5763 10.1741419,29.5623 C9.62485161,29.5587 9.07575484,29.5657 8.52704516,29.5563 C7.97833548,29.5497 7.43020645,29.5077 6.88285161,29.4811 C6.33762581,29.4523 5.7867871,29.4135 5.25685161,29.3587 C5.00252903,29.3347 4.78710968,29.2933 4.5687871,29.2245 C4.35046452,29.1577 4.13620645,29.0667 3.93007742,28.9559 C3.72298065,28.8459 3.52594839,28.7129 3.33588387,28.5703 C3.14446452,28.4297 2.96252903,28.2727 2.79298065,28.1025 C2.45427097,27.7615 2.16898065,27.3681 1.93072258,26.9575 C1.81381935,26.7503 1.71685161,26.5337 1.63556129,26.3143 C1.54885161,26.0965 1.48265806,25.8721 1.43949677,25.6455 C1.41704516,25.5285 1.40427097,25.4259 1.39052903,25.2953 L1.34891613,24.8717 L1.2687871,24.0259 C1.17104516,22.8985 1.08917419,21.7721 1.03769032,20.6447 C0.980012903,19.5175 0.962980645,18.3879 1.0044,17.2611 C1.04349677,16.1231 1.19581935,14.9883 1.22910968,13.8495 C1.23510968,13.5649 1.24362581,13.2801 1.24343226,12.9953 C1.24614194,12.7107 1.24033548,12.4259 1.2627871,12.1417 L1.3404,11.2889 L1.42517419,10.4361 C1.54536774,9.2989 1.50510968,8.1597 1.51246452,7.0251 L1.51885161,5.3427 C1.52194839,4.8395 1.60304516,4.3589 1.7660129,3.9003 C2.08769032,2.9855 2.75117419,2.2213 3.62562581,1.8025 C4.06188387,1.5933 4.54169032,1.4639 5.03775484,1.4027 C5.1620129,1.3879 5.28685161,1.3761 5.41285161,1.3693 L5.82414194,1.3471 C6.09956129,1.3305 6.37420645,1.3183 6.64904516,1.3079 C7.74743226,1.2541 8.8467871,1.2423 9.9447871,1.2181 C11.0427871,1.1979 12.1405935,1.1781 13.2335613,1.1721 C13.7780129,1.1653 14.3278839,1.1555 14.854529,1.1669 L15.6713032,1.1947 L16.5000774,1.1973 C17.6046581,1.1825 18.7063355,1.1297 19.8066581,1.1293 L23.1022065,1.1231 L23.9216903,1.1273 C24.1874323,1.1315 24.486271,1.1293 24.6941419,1.1537 C25.1677548,1.2025 25.6324645,1.3451 26.0636903,1.5673 C26.9255613,2.0119 27.6548516,2.7713 28.0889806,3.6665 C28.3055613,4.1131 28.4484,4.5937 28.4900129,5.0711 L28.5800129,6.7417 L28.7497548,10.1267 L28.8221419,11.8257 L28.8560129,12.6769 C28.8656903,12.9581 28.8666581,13.2351 28.8685935,13.5199 C28.8620129,14.0863 28.8682065,14.6563 28.8500129,15.2259 M19.8724645,15.4243 C19.8581419,15.4285 19.8453677,15.4319 19.8233032,15.4403 C19.8064645,15.4467 19.7774323,15.4575 19.7352387,15.4853 C19.702529,15.5091 19.6762065,15.5309 19.6481419,15.5683 L19.6444645,15.5729 C19.6367226,15.5835 19.6280129,15.5969 19.6204645,15.6095 C19.6138839,15.6209 19.6044,15.6393 19.6016903,15.6457 L19.5941419,15.6633 L19.5819484,15.6945 C19.5691742,15.7321 19.5637548,15.7561 19.5579484,15.7807 C19.5476903,15.8275 19.5420774,15.8657 19.5370452,15.9033 C19.5006581,16.1903 19.4940774,16.4395 19.4826581,16.6995 C19.4605935,17.2091 19.4300129,17.7301 19.4300129,18.2093 L19.4300129,18.2119 C19.4300129,18.4877 19.414529,18.7249 19.4100774,18.9797 L19.4000129,19.7303 L19.3866581,21.2301 L19.3696258,22.7291 C19.3657548,23.2287 19.3673032,23.7283 19.3702065,24.2279 L19.4753032,27.2245 C19.4857548,27.7239 19.5084,28.2233 19.4751097,28.7231 L19.428271,29.4727 L19.4081419,29.7301 C19.1940774,29.7243 18.9774968,29.7241 18.7634323,29.7225 L17.7080129,29.7117 C17.1591097,29.6999 16.6076903,29.7119 16.0599484,29.7159 C15.9939484,28.4505 15.8613677,27.1761 15.844529,25.9021 C15.8214968,25.1837 15.8069806,24.4647 15.8038839,23.7451 C15.7938194,23.0255 15.7940129,22.3059 15.7969161,21.5863 L15.8004,19.4273 L15.8365935,17.2671 L15.8973677,16.1851 L15.9463355,15.9127 L15.9463355,15.7745 C15.9463355,15.7239 15.8996903,15.6893 15.8948516,15.6137 L15.8687226,15.5873 C15.8170452,15.3857 15.8414323,15.5291 15.8298194,15.4831 L15.8184,15.4699 C15.792271,15.4087 15.7446581,15.3477 15.6941419,15.3055 C15.6664645,15.2829 15.658529,15.2797 15.6395613,15.2671 C15.5797548,15.2311 15.5544,15.2245 15.5274968,15.2141 C15.4800774,15.1977 15.4460129,15.1897 15.4165935,15.1829 C15.3562065,15.1695 15.3066581,15.1615 15.2573032,15.1539 C15.1599484,15.1395 15.0684,15.1293 14.9774323,15.1201 C14.4184645,15.0689 13.8759484,15.0431 13.330529,15.0235 C13.338271,14.6431 13.3506581,14.2617 13.3690452,13.8773 L13.4069806,13.0677 C13.4104645,12.9545 13.4104645,12.8403 13.4122065,12.7267 C13.4236258,12.7255 13.4348516,12.7241 13.4464645,12.7229 C13.618529,12.6979 13.7944645,12.7069 13.9651742,12.6195 C14.1360774,12.5347 14.3029161,12.4067 14.4755613,12.3627 C14.6489806,12.3243 14.8233677,12.2957 15.000271,12.2633 C15.0896903,12.2507 15.1791097,12.2363 15.2733677,12.2139 C15.3211742,12.2021 15.3685935,12.1899 15.4251097,12.1667 C15.4535613,12.1547 15.4837548,12.1437 15.5261419,12.1123 C15.5487871,12.0931 15.5741419,12.0747 15.6022065,12.0225 C15.6142065,12.0023 15.6258194,11.9597 15.6279484,11.9335 L15.6298839,11.9169 C15.6540774,11.7423 15.6724645,11.5515 15.6831097,11.3709 C15.7084645,11.0111 15.7014968,10.6317 15.7119484,10.2969 C15.7587871,9.5925 15.8249806,8.8725 15.8871097,8.1605 L15.9366581,7.6259 L15.9502065,7.4941 L15.9685935,7.3781 C15.9829161,7.2999 15.9991742,7.2167 16.018529,7.1365 C16.0947871,6.8139 16.2145935,6.5113 16.3717548,6.2385 C16.5308516,5.9663 16.7375613,5.7295 16.9824,5.5355 C17.2218194,5.3359 17.4896903,5.1565 17.7844645,5.0141 C18.3755613,4.7235 19.0510452,4.5989 19.7255613,4.5123 C20.4054968,4.4259 21.090271,4.4245 21.7814323,4.5007 L22.2985935,4.5531 C22.4714323,4.5683 22.6434968,4.5915 22.8145935,4.6275 C22.9853032,4.6677 23.1552387,4.7181 23.3251742,4.7811 C23.3605935,4.7933 23.3946581,4.8055 23.4291097,4.8177 C23.4153677,4.9813 23.4091742,5.1437 23.4204,5.3047 C23.4476903,5.5505 23.5047871,5.7961 23.5218194,6.0439 C23.5396258,6.2915 23.5473677,6.5403 23.5547226,6.7903 C23.5589806,6.9319 23.5593677,7.0739 23.5576258,7.2159 C23.4287226,7.2107 23.2998194,7.2037 23.1707226,7.1923 C22.9344,7.1793 22.6911097,7.1535 22.4464645,7.1353 C21.9577548,7.0991 21.450271,7.0851 20.9211097,7.2193 C20.7893032,7.2537 20.6557548,7.2965 20.5216258,7.3515 C20.4540774,7.3801 20.3869161,7.4099 20.3197548,7.4459 L20.2690452,7.4731 L20.2438839,7.4873 L20.2316903,7.4945 L20.2030452,7.5119 L20.1656903,7.5361 L20.0904,7.5919 C19.7667871,7.8665 19.656271,8.1663 19.5598839,8.4377 C19.3843355,8.9853 19.332271,9.4993 19.3013032,10.0113 C19.2732387,10.5217 19.2761419,11.0249 19.2968516,11.5259 L19.3158194,11.9005 L19.3210452,11.9883 L19.3214323,11.9927 C19.3276258,12.0375 19.3398194,12.1251 19.3378839,12.1103 L19.3388516,12.1131 L19.3405935,12.1185 L19.3543355,12.1585 C19.3616903,12.1773 19.3704,12.1963 19.3804645,12.2145 C19.4005935,12.2513 19.4257548,12.2857 19.4532387,12.3149 C19.4894323,12.3517 19.4929161,12.3515 19.5014323,12.3589 L19.5289161,12.3789 C19.6030452,12.4275 19.6313032,12.4333 19.6638194,12.4467 C19.7784,12.4847 19.8385935,12.4909 19.9105935,12.5037 C20.1780774,12.5423 20.4140129,12.5543 20.6576903,12.5683 C21.4860774,12.6143 22.3026581,12.6013 23.1209806,12.6443 C23.1202065,12.7941 23.1207871,12.9443 23.1174968,13.0943 C23.1151742,13.3745 23.1056903,13.6549 23.0993032,13.9355 C23.0931097,14.2161 23.0640774,14.4963 23.0350452,14.7765 L22.9936258,15.1877 C22.6469806,15.2515 22.2953032,15.3213 21.9372387,15.3317 C21.6956903,15.3425 21.4465935,15.3377 21.2040774,15.3387 C21.0869806,15.3383 20.9509161,15.3377 20.824529,15.3429 L20.4447871,15.3591 C20.3170452,15.3663 20.1914323,15.3741 20.0538194,15.3917 C20.0189806,15.3959 19.9829806,15.4015 19.942529,15.4093 C19.9216258,15.4119 19.9001419,15.4165 19.8724645,15.4243 M29.7134323,10.1171 C29.7219484,8.9771 29.7107226,7.8335 29.6811097,6.6931 L29.656529,5.8383 L29.6420129,5.4113 C29.6350452,5.2679 29.6319484,5.1337 29.6184,4.9637 C29.5663355,4.3169 29.3731742,3.7011 29.0938839,3.1435 C28.8186581,2.5821 28.4429806,2.0833 28.0084645,1.6541 C27.5735613,1.2253 27.0745935,0.8651 26.5287871,0.6039 C25.9806581,0.3479 25.3884,0.1909 24.7913032,0.1535 C24.4746581,0.1331 24.2151097,0.1517 23.9344645,0.1555 L23.1072387,0.1817 C22.0063355,0.2299 20.9077548,0.2435 19.8085935,0.2689 C18.7098194,0.3075 17.6120129,0.1917 16.5163355,0.1179 C16.242271,0.0995 15.9684,0.0899 15.6947226,0.0795 L14.8669161,0.0685 C14.3054323,0.0637 13.7567226,0.1139 13.2054968,0.1479 C12.6554323,0.1863 12.1061419,0.2297 11.556271,0.2475 C11.0069806,0.2763 10.4571097,0.2907 9.90665806,0.2853 C9.35620645,0.2819 8.80536774,0.2615 8.25433548,0.2519 L7.42827097,0.2347 C7.15343226,0.2367 6.87820645,0.2317 6.60394839,0.2411 C6.32930323,0.2463 6.05485161,0.2539 5.78098065,0.2667 L5.36872258,0.2829 C5.22104516,0.2887 5.07336774,0.3003 4.92588387,0.3157 C4.33517419,0.3795 3.74214194,0.5263 3.18452903,0.7829 C2.62807742,1.0409 2.11536774,1.4155 1.69362581,1.8785 C1.27130323,2.3411 0.944012903,2.8907 0.726464516,3.4771 C0.507948387,4.0623 0.397819355,4.6909 0.386980645,5.3025 C0.37556129,5.8873 0.382141935,6.4503 0.383496774,7.0205 L0.392012903,8.7237 C0.386593548,9.2909 0.370916129,9.8579 0.358335484,10.4247 L0.297174194,12.1241 C0.287690323,12.6905 0.343625806,13.2583 0.335496774,13.8249 C0.323109677,14.9585 0.192851613,16.0855 0.145819355,17.2159 C0.110980645,18.3613 0.0995612903,19.5059 0.137303226,20.6481 L0.200980645,22.3593 L0.234077419,24.0685 L0.256529032,24.9219 L0.268916129,25.3481 C0.272593548,25.4963 0.285754839,25.6599 0.306077419,25.8131 C0.388916129,26.4351 0.596012903,27.0285 0.8844,27.5661 C1.17046452,28.1071 1.55349677,28.5841 1.99110968,28.9939 C2.42872258,29.4035 2.92594839,29.7469 3.47098065,29.9957 C3.74330323,30.1197 4.02781935,30.2195 4.32162581,30.2883 C4.61465806,30.3587 4.9220129,30.3883 5.20749677,30.3937 C5.76685161,30.4095 6.31594839,30.4091 6.86736774,30.4091 C7.96885161,30.4111 9.06859355,30.3847 10.1683355,30.4127 C11.2702065,30.4423 12.3610452,30.4953 13.4600129,30.5647 L15.3838839,30.6721 C15.4456258,30.7029 15.514529,30.7217 15.5878839,30.7219 L16.3227871,30.7249 L16.7580774,30.7493 C17.8584,30.8027 18.9600774,30.8163 20.0627226,30.7787 C21.1651742,30.7411 22.2672387,30.6339 23.3716258,30.5709 L24.2007871,30.5117 L24.616529,30.4789 C24.7531742,30.4681 24.9111097,30.4507 25.0553032,30.4255 C25.6427226,30.3247 26.2011097,30.1107 26.7109161,29.8169 C27.7314968,29.2301 28.5581419,28.3079 29.0346581,27.2101 C29.2734968,26.6623 29.4140129,26.0667 29.4453677,25.4673 C29.4749806,24.8929 29.4873677,24.3245 29.4984,23.7547 L29.5175613,22.0477 L29.5568516,20.3393 C29.5674968,20.0575 29.5777548,19.7595 29.5752387,19.4779 L29.5843355,18.6293 L29.6214968,16.9339 C29.6375613,16.3689 29.6592387,15.8045 29.6602065,15.2391 C29.6578839,14.6733 29.6530452,14.1073 29.6660129,13.5379 C29.6967871,12.3841 29.7025935,11.2613 29.7134323,10.1171" id="Fill-12" fill="#000000" mask="url(#mask-4)"></path>
                        </g>
                    </g>
                </g>
            </g>
        </g>
    </g>
</svg>