<?xml version="1.0" encoding="UTF-8"?>
<svg width="30px" height="31px" viewBox="0 0 30 31" version="1.1" xmlns="http://www.w3.org/2000/svg" xmlns:xlink="http://www.w3.org/1999/xlink">
    <!-- Generator: Sketch 51.2 (57519) - http://www.bohemiancoding.com/sketch -->
    <title>Group 6</title>
    <desc>Created with Sketch.</desc>
    <defs>
        <polygon id="path-1" points="5.33315462e-06 0.015 29.8971772 0.015 29.8971772 30.7999313 5.33315462e-06 30.7999313"></polygon>
    </defs>
    <g id="home" stroke="none" stroke-width="1" fill="none" fill-rule="evenodd">
        <g id="Desktop-HD" transform="translate(-497.000000, -576.000000)">
            <g id="Group-16" transform="translate(119.000000, 86.000000)">
                <g id="Group-8" transform="translate(101.000000, 490.000000)">
                    <g id="Group-6" transform="translate(277.000000, 0.000000)">
                        <path d="M27.831871,7.65554 C26.9107742,5.18414 24.8831613,3.66594 22.4247097,3.08574 C20.6539355,2.66794 17.0990323,2.50254 13.188,2.41274 C9.94412903,2.33814 6.65032258,2.03994 4.07380645,4.20554 C1.69529032,6.20454 1.22458065,9.81114 1.03141935,12.78454 C0.863612903,15.36434 1.32774194,23.09194 2.41877419,25.51594 C3.98670968,28.99854 6.74322581,30.25534 10.4355484,30.48234 C10.4314839,29.65134 10.4221935,28.10654 10.4171613,27.10574 C6.22316129,28.04814 5.33806452,25.66774 5.33806452,25.66774 C4.65232258,23.86714 4.37109677,23.87414 3.85780645,23.58854 C3.02419355,23.12414 3.39948387,21.96514 3.76741935,22.04134 C5.45187097,22.39074 6.0783871,23.64714 6.0783871,23.64714 C7.42296774,26.02834 9.60522581,25.33994 10.4655484,24.94174 C10.6008387,23.93494 10.9914194,23.24754 11.4226452,22.85854 C8.07406452,22.46474 4.55380645,21.12874 4.55380645,15.15974 C4.55380645,13.45894 5.14277419,12.06934 6.10722581,10.97834 C5.95064516,10.58574 5.92354839,8.69074 6.834,6.85554 C6.834,6.85554 7.51935484,6.43714 10.4003226,8.45254 C11.6028387,8.10734 12.8924516,7.93414 14.1735484,7.92814 C15.4550323,7.93414 16.7456129,8.10734 17.9502581,8.45254 C20.8277419,6.43694 22.092,6.85554 22.092,6.85554 C22.9124516,9.00154 22.3962581,10.58574 22.239871,10.97834 C23.2068387,12.06934 23.7913548,13.45914 23.7913548,15.15974 C23.7913548,20.26974 20.4851613,21.69614 18.7863871,22.26474 C18.0030968,22.52694 17.684129,22.73674 17.6818065,23.24654 C17.6775484,24.11714 18.3170323,24.47774 18.3170323,25.93114 C18.3170323,27.38594 18.3087097,29.12894 18.3036774,30.22394 C25.4043871,29.42454 26.3698065,27.02514 27.4691613,23.10554 C28.1734839,20.59514 28.2946452,17.49654 28.4891613,14.89014 C28.6649032,12.53354 28.6637419,9.88834 27.831871,7.65554" id="Fill-1" fill="#9A9A9A"></path>
                        <g id="Group-5" transform="translate(0.000000, 0.185000)">
                            <mask id="mask-2" fill="white">
                                <use xlink:href="#path-1"></use>
                            </mask>
                            <g id="Clip-4"></g>
                            <path d="M28.8618,24.9847 C28.7603806,26.6627 28.0605097,28.0123 26.6358,28.8945 C25.2695419,29.7403 23.6503161,29.5529 22.1207032,29.6033 C21.1607032,29.6349 20.2034129,29.6473 19.2465097,29.6531 C19.265671,29.1641 19.2859935,28.6751 19.2966387,28.1863 C19.3330258,26.5159 19.5821226,24.5465 18.6393484,23.1239 C21.1475419,22.5479 23.9193484,21.5955 24.7972839,18.8419 C25.2474774,17.4303 25.3190903,15.9533 25.247671,14.4753 C25.1768323,13.0077 24.6120581,11.7119 23.729671,10.5843 C23.9607677,9.8165 24.0310258,9.0333 23.9563161,8.2263 C23.9110258,7.7369 23.7693484,6.1881 23.1885097,6.0771 C22.3554774,5.8013 21.131671,6.2967 20.417671,6.6493 C19.8693484,6.9203 19.3622516,7.2317 18.8563161,7.5721 C17.3946387,7.2653 15.963929,6.9705 14.4608323,7.1057 C13.3713484,7.2037 12.3281226,7.4805 11.2612839,7.7021 C10.0941871,6.8319 8.3058,5.6253 6.80347742,6.0355 C6.27334839,6.3049 6.16205806,7.6791 6.11734839,8.2211 C6.05057419,9.0305 6.12721935,9.8151 6.36412258,10.5823 C5.46199355,11.7615 4.80121935,13.0293 4.72960645,14.5621 C4.70328387,15.1261 4.74663871,15.6879 4.87283226,16.2397 C5.08147742,17.1531 5.23186452,18.1307 5.58915484,18.9973 C5.99831613,19.9895 6.5654129,20.8759 7.40463871,21.5397 C8.67528387,22.5447 10.1098645,22.8963 11.6358,23.1201 C11.3048323,23.6199 11.1147677,24.1757 10.9990258,24.7999 C9.84934839,25.2885 8.29767097,25.3487 7.48109032,24.2011 C7.10173548,23.7531 6.87509032,23.1981 6.48296129,22.7567 C6.00838065,22.2223 5.35960645,21.7755 4.65373548,21.6655 C4.34309032,21.6171 4.05857419,21.6115 3.74909032,21.7227 C2.80960645,22.0889 3.52728387,23.0415 4.10967097,23.3293 C4.88289677,23.8753 5.22102581,24.6833 5.55973548,25.5457 C5.50109032,25.3903 5.75831613,25.9709 5.78289677,26.0151 C5.95438065,26.2953 6.15296129,26.5603 6.38715484,26.7883 C6.97902581,27.3129 7.61754194,27.6205 8.37857419,27.7879 C9.18721935,27.9655 10.0247032,27.8635 10.8343161,27.7117 C10.8527032,28.3395 10.8712839,28.9675 10.889671,29.5955 C9.66005806,29.5831 8.43083226,29.5595 7.20160645,29.5015 C6.1521871,29.4521 4.99109032,29.5181 3.98328387,29.1543 C2.87057419,28.7525 2.22683226,27.8375 1.86257419,26.6841 C1.45012258,25.3785 1.56586452,23.8569 1.5078,22.4981 C1.44431613,21.0141 1.38121935,19.5303 1.33147742,18.0457 C1.24844516,15.5579 0.937412903,12.0719 0.947477419,9.5827 C0.954445161,7.8735 1.2254129,7.1323 1.33960645,5.4267 C1.44315484,3.8791 2.42638065,2.4971 3.72838065,1.7681 C5.08283226,1.0099 6.80986452,1.1765 8.29457419,1.2541 C9.99238065,1.3431 11.6985097,1.1259 13.3982516,1.1145 C15.9366387,1.0979 18.2824452,1.2099 20.8206387,1.2271 C21.7001226,1.2331 22.5805742,1.2431 23.4590903,1.2875 C24.1831548,1.3241 24.9407032,1.3173 25.6351548,1.5563 C26.9168323,1.9977 27.9548323,3.1027 28.4050258,4.4113 C28.6841226,5.2225 28.673671,6.0597 28.7404452,6.9077 C28.8089613,7.7763 28.8281226,8.6397 28.8391548,9.5109 C28.8612194,11.2633 28.9605097,12.8127 28.9790903,14.5647 C29.015671,18.0491 29.0723806,21.5041 28.8618,24.9847 M14.5008968,29.6211 C13.5205742,29.6115 12.5404452,29.6085 11.5603161,29.6013 C11.5699935,29.3065 11.5788968,29.0119 11.5829613,28.7167 C11.5893484,28.2537 11.5957355,27.7903 11.6021226,27.3271 C11.6110258,26.6889 11.0232194,26.8485 10.6140581,26.9123 C10.0341871,27.0023 9.43999355,27.0229 8.85547742,26.9833 C7.74799355,26.9083 6.83250968,26.1721 6.40186452,25.1465 C5.98960645,24.1643 5.42773548,23.0651 4.45844516,22.5699 C4.51670323,22.6027 4.48534839,22.5717 4.42244516,22.5173 C6.20250968,22.7347 6.59715484,24.9541 8.21231613,25.5537 C8.94934839,25.8271 9.68599355,25.7981 10.4419935,25.6267 C10.7147032,25.5437 11.4790258,25.4217 11.5405742,25.0705 C11.6081226,24.9159 11.6193484,24.6665 11.6565097,24.5015 C11.7592839,23.9923 12.1078645,23.5765 12.4845097,23.2569 C13.3121226,22.5551 11.8663161,22.3439 11.5038,22.2871 C9.53696129,21.9783 7.68276774,21.3527 6.57083226,19.5373 C5.80109032,18.2805 5.65244516,16.7405 5.64044516,15.2853 C5.63560645,14.6909 5.67954194,14.1067 5.82044516,13.5293 C5.95805806,12.9657 6.17715484,12.4337 6.47347742,11.9389 C6.74831613,11.4799 7.35838065,11.0347 7.24883226,10.4551 C6.85612258,9.2663 6.96199355,8.1265 7.28792903,6.9621 C7.52812258,6.9847 7.89354194,6.9865 7.99438065,7.0147 C8.42696129,7.1365 8.85431613,7.2893 9.25476774,7.4995 C9.81721935,7.7949 10.3413484,8.2125 10.9094129,8.4825 C11.3965742,8.7141 12.1804452,8.3305 12.7041871,8.2363 C13.8078,8.0381 14.9712194,7.9271 16.089929,8.0435 C16.6972839,8.1067 17.3015419,8.1705 17.9007677,8.2955 C18.2056065,8.3593 18.5073484,8.4447 18.8098645,8.5193 C19.1270903,8.5973 19.4327032,8.3119 19.6835419,8.1503 C20.5860581,7.5685 21.7512194,6.8415 22.8674129,6.8711 C23.2698,8.0021 23.4923806,9.2377 23.0750903,10.4077 C22.9322516,10.8081 23.1910258,10.9889 23.4130258,11.2799 C23.8374774,11.8465 24.1283806,12.4611 24.311671,13.1503 C24.4595419,13.7061 24.471929,14.4461 24.4618645,14.9359 C24.3714774,16.3269 24.4547032,17.6679 23.7898645,18.9341 C23.2409613,19.9799 22.3368968,20.9823 21.3029613,21.5323 C20.8219935,21.7883 20.3388968,21.9917 19.8252194,22.1629 C19.5041226,22.2697 19.1654129,22.3519 18.8305742,22.3959 C18.5017355,22.4573 18.0428323,22.4133 17.7407032,22.5555 C17.2115419,22.8045 18.0772839,23.6157 18.2125742,23.9001 C18.4674774,24.4365 18.5598,25.0213 18.5901871,25.6123 C18.6590903,26.9539 18.599671,28.3129 18.5938645,29.6563 C17.231671,29.6581 15.8688968,29.6423 14.5008968,29.6211 M29.637929,4.0313 C29.1494129,2.6207 28.1189613,1.3719 26.8140581,0.7055 C25.9672839,0.2729 25.0837355,0.1665 24.1583806,0.1403 C22.6941871,0.0989 21.2454774,0.0911 19.7828323,0.1403 C18.5532194,0.1815 17.3228323,0.0125 16.0928323,0.0149 C14.3791548,0.0185 12.6633484,0.1243 10.9500581,0.1697 C9.23444516,0.2151 7.52463871,0.0109 5.81405806,0.0889 C4.4714129,0.1499 3.2834129,0.4287 2.19296129,1.3085 C1.05663871,2.2253 0.282832258,3.5267 0.0625741935,5.0025 C-0.0342,5.6517 0.0105096774,6.3327 0.00915483871,6.9873 C0.00760645161,7.8389 0.00141290323,8.6905 0.00586451613,9.5423 C0.0153483871,11.3315 0.0600580645,13.1205 0.0896709677,14.9097 C0.145993548,18.3183 0.106122581,21.7299 0.227477419,25.1371 C0.285735484,26.7723 0.781219355,28.4291 2.0834129,29.4595 C3.42354194,30.5203 4.95663871,30.4155 6.54528387,30.5509 C9.30721935,30.7935 12.0830903,30.8157 14.8527677,30.7931 C14.9747032,30.7903 15.0966387,30.7875 15.2187677,30.7845 C18.1293484,30.7155 21.0397355,30.6727 23.9508968,30.6315 C25.6109613,30.6079 27.1055419,30.2049 28.3101871,28.9505 C29.5020581,27.7095 29.7888968,26.2893 29.8386387,24.6043 C29.9414129,21.1193 29.8417355,17.6409 29.8516065,14.1559 C29.8566387,12.3813 29.9081226,10.8099 29.8893484,9.0353 C29.8792839,8.0841 29.8765742,7.1345 29.8941871,6.1831 C29.9077355,5.4385 29.883929,4.7423 29.637929,4.0313" id="Fill-3" fill="#000000" mask="url(#mask-2)"></path>
                        </g>
                    </g>
                </g>
            </g>
        </g>
    </g>
</svg>