<?xml version="1.0" encoding="UTF-8"?>
<svg width="87px" height="83px" viewBox="0 0 87 83" version="1.1" xmlns="http://www.w3.org/2000/svg" xmlns:xlink="http://www.w3.org/1999/xlink">
    <!-- Generator: Sketch 51.2 (57519) - http://www.bohemiancoding.com/sketch -->
    <title>if_shop-factory-home-online-manufacture_1284169</title>
    <desc>Created with Sketch.</desc>
    <defs></defs>
    <g id="about" stroke="none" stroke-width="1" fill="none" fill-rule="evenodd">
        <g id="Desktop-HD" transform="translate(-963.000000, -1196.000000)" fill-rule="nonzero">
            <g id="Group-10" transform="translate(360.000000, 987.000000)">
                <g id="Group-9" transform="translate(567.000000, 209.000000)">
                    <g id="if_shop-factory-home-online-manufacture_1284169" transform="translate(36.000000, 0.000000)">
                        <polygon id="Shape" fill="#CC5636" points="37.7647969 13.3870968 35.7257344 21.4193548 51.2742656 21.4193548 49.2352031 13.3870968"></polygon>
                        <path d="M43.5,8.03225806 C42.0006094,8.03225806 40.78125,9.23308065 40.78125,10.7096774 L46.21875,10.7096774 C46.21875,9.23308065 44.9993906,8.03225806 43.5,8.03225806 Z" id="Shape" fill="#F4F6FA"></path>
                        <polygon id="Shape" fill="#367CCC" points="37.6234219 37.483871 35.9921719 41.5 51.0078281 41.5 49.3765781 37.483871"></polygon>
                        <path d="M80.203125,66.5713548 L80.203125,56.2258065 L77.484375,56.2258065 L77.484375,60.7292258 C77.484375,61.2821129 77.1404531,61.7774355 76.6170937,61.9769032 C76.0991719,62.176371 75.5037656,62.0425 75.1217812,61.6341935 L70.6875,56.8683871 L58.8242344,69.6129032 L59.8125,69.6129032 C60.5642344,69.6129032 61.171875,70.2126452 61.171875,70.9516129 L61.171875,80.3225806 L65.25,80.3225806 L65.25,70.9516129 C65.25,70.2126452 65.8576406,69.6129032 66.609375,69.6129032 L74.765625,69.6129032 C75.5173594,69.6129032 76.125,70.2126452 76.125,70.9516129 L76.125,80.3225806 L80.203125,80.3225806 L80.203125,70.9516129 C80.203125,70.2126452 80.8107656,69.6129032 81.5625,69.6129032 L82.5507656,69.6129032 L80.5606406,67.4749839 C80.3309062,67.2286613 80.203125,66.9060323 80.203125,66.5713548 Z" id="Shape" fill="#F4F6FA"></path>
                        <rect id="Rectangle-path" fill="#367CCC" x="67.96875" y="72.2903226" width="5.4375" height="8.03225806"></rect>
                        <path d="M16.3125,57.5645161 L16.3125,48.9097581 L10.875,45.3394194 L10.875,48.1935484 C10.875,48.6875323 10.5990469,49.1413548 10.15725,49.3742903 C9.7168125,49.6072258 9.17714062,49.5817903 8.76253125,49.3073548 L2.71875,45.3407581 L2.71875,80.3225806 L10.875,80.3225806 L10.875,76.3064516 L8.15625,76.3064516 L8.15625,73.6290323 L12.234375,73.6290323 L20.390625,73.6290323 L24.46875,73.6290323 L24.46875,76.3064516 L21.75,76.3064516 L21.75,80.3225806 L38.0625,80.3225806 L38.0625,58.9032258 L17.671875,58.9032258 C16.9201406,58.9032258 16.3125,58.3034839 16.3125,57.5645161 Z M8.15625,69.6129032 L5.4375,69.6129032 L5.4375,66.9354839 L8.15625,66.9354839 L8.15625,69.6129032 Z M8.15625,64.2580645 L5.4375,64.2580645 L5.4375,61.5806452 L8.15625,61.5806452 L8.15625,64.2580645 Z M8.15625,58.9032258 L5.4375,58.9032258 L5.4375,56.2258065 L8.15625,56.2258065 L8.15625,58.9032258 Z M8.15625,53.5483871 L5.4375,53.5483871 L5.4375,50.8709677 L8.15625,50.8709677 L8.15625,53.5483871 Z M32.625,61.5806452 L35.34375,61.5806452 L35.34375,64.2580645 L32.625,64.2580645 L32.625,61.5806452 Z M32.625,66.9354839 L35.34375,66.9354839 L35.34375,69.6129032 L32.625,69.6129032 L32.625,66.9354839 Z M27.1875,61.5806452 L29.90625,61.5806452 L29.90625,64.2580645 L27.1875,64.2580645 L27.1875,61.5806452 Z M27.1875,66.9354839 L29.90625,66.9354839 L29.90625,69.6129032 L27.1875,69.6129032 L27.1875,66.9354839 Z M21.75,61.5806452 L24.46875,61.5806452 L24.46875,64.2580645 L21.75,64.2580645 L21.75,61.5806452 Z M21.75,66.9354839 L24.46875,66.9354839 L24.46875,69.6129032 L21.75,69.6129032 L21.75,66.9354839 Z M13.59375,69.6129032 L10.875,69.6129032 L10.875,66.9354839 L13.59375,66.9354839 L13.59375,69.6129032 Z M13.59375,64.2580645 L10.875,64.2580645 L10.875,61.5806452 L13.59375,61.5806452 L13.59375,64.2580645 Z M13.59375,58.9032258 L10.875,58.9032258 L10.875,56.2258065 L13.59375,56.2258065 L13.59375,58.9032258 Z M13.59375,53.5483871 L10.875,53.5483871 L10.875,50.8709677 L13.59375,50.8709677 L13.59375,53.5483871 Z M19.03125,69.6129032 L16.3125,69.6129032 L16.3125,66.9354839 L19.03125,66.9354839 L19.03125,69.6129032 Z M19.03125,64.2580645 L16.3125,64.2580645 L16.3125,61.5806452 L19.03125,61.5806452 L19.03125,64.2580645 Z" id="Shape" fill="#E6DFC1"></path>
                        <rect id="Rectangle-path" fill="#367CCC" x="13.59375" y="76.3064516" width="5.4375" height="4.01612903"></rect>
                        <path d="M50.296875,34.8064516 L59.8125,34.8064516 C62.0609062,34.8064516 63.890625,33.0045484 63.890625,30.7903226 L63.890625,29.4516129 L23.109375,29.4516129 L23.109375,30.7903226 C23.109375,33.0045484 24.9390937,34.8064516 27.1875,34.8064516 L36.703125,34.8064516 L50.296875,34.8064516 Z" id="Shape" fill="#367CCC"></path>
                        <path d="M63.890625,6.69354839 C63.890625,4.47932258 62.0609062,2.67741935 59.8125,2.67741935 L27.1875,2.67741935 C24.9390937,2.67741935 23.109375,4.47932258 23.109375,6.69354839 L23.109375,26.7741935 L63.890625,26.7741935 L63.890625,6.69354839 Z M54.0868125,23.581371 C53.8298906,23.9066774 53.4343125,24.0967742 53.015625,24.0967742 L33.984375,24.0967742 C33.5656875,24.0967742 33.1701094,23.9066774 32.9131875,23.581371 C32.6562656,23.2560645 32.5638281,22.8330323 32.6657812,22.4327581 L35.3845312,11.7230806 C35.5367812,11.1273548 36.0791719,10.7096774 36.703125,10.7096774 L38.0625,10.7096774 C38.0625,7.75648387 40.5012187,5.35483871 43.5,5.35483871 C46.4987813,5.35483871 48.9375,7.75648387 48.9375,10.7096774 L50.296875,10.7096774 C50.9208281,10.7096774 51.4632188,11.1273548 51.6154688,11.7230806 L54.3342188,22.4327581 C54.4361719,22.8330323 54.3450938,23.2574032 54.0868125,23.581371 Z" id="Shape" fill="#F4F6FA"></path>
                        <path d="M86.6424844,70.0466452 L82.921875,66.0492581 L82.921875,54.8870968 C82.921875,54.148129 82.3142344,53.5483871 81.5625,53.5483871 L76.125,53.5483871 C75.3732656,53.5483871 74.765625,54.148129 74.765625,54.8870968 L74.765625,57.2874032 L71.6893594,53.982129 C71.1741562,53.4292419 70.1994844,53.4292419 69.6842812,53.982129 L54.7311563,70.0466452 C54.3668438,70.4375484 54.2716875,71.0038226 54.4891875,71.4911129 C54.7066875,71.9770645 55.1960625,72.2903226 55.734375,72.2903226 L58.453125,72.2903226 L58.453125,81.6612903 C58.453125,82.4002581 59.0607656,83 59.8125,83 L66.609375,83 L74.765625,83 L81.5625,83 C82.3142344,83 82.921875,82.4002581 82.921875,81.6612903 L82.921875,72.2903226 L85.640625,72.2903226 C86.1789375,72.2903226 86.6683125,71.9770645 86.8844531,71.4911129 C87.1019531,71.0051613 87.0067969,70.4388871 86.6424844,70.0466452 Z M73.40625,80.3225806 L67.96875,80.3225806 L67.96875,72.2903226 L73.40625,72.2903226 L73.40625,80.3225806 Z M81.5625,69.6129032 C80.8107656,69.6129032 80.203125,70.2126452 80.203125,70.9516129 L80.203125,80.3225806 L76.125,80.3225806 L76.125,70.9516129 C76.125,70.2126452 75.5173594,69.6129032 74.765625,69.6129032 L66.609375,69.6129032 C65.8576406,69.6129032 65.25,70.2126452 65.25,70.9516129 L65.25,80.3225806 L61.171875,80.3225806 L61.171875,70.9516129 C61.171875,70.2126452 60.5642344,69.6129032 59.8125,69.6129032 L58.8242344,69.6129032 L70.6875,56.8683871 L75.1231406,61.6341935 C75.5037656,62.0425 76.1005312,62.176371 76.6184531,61.9769032 C77.1404531,61.7760968 77.484375,61.2807742 77.484375,60.7292258 L77.484375,56.2258065 L80.203125,56.2258065 L80.203125,66.5713548 C80.203125,66.9060323 80.3309062,67.2286613 80.5606406,67.4763226 L82.5507656,69.6129032 L81.5625,69.6129032 Z" id="Shape" fill="#1F2833"></path>
                        <path d="M39.421875,56.2258065 L19.03125,56.2258065 L19.03125,48.1935484 C19.03125,47.7464194 18.8042344,47.3287419 18.4263281,47.0797419 L10.2700781,41.7249032 C9.85275,41.4504677 9.31579687,41.4250323 8.87535937,41.6579677 C8.43220312,41.8909032 8.15625,42.3447258 8.15625,42.8387097 L8.15625,45.6915 L2.11382812,41.7249032 C1.6965,41.4504677 1.15954687,41.4250323 0.719109375,41.6579677 C0.275953125,41.8909032 0,42.3447258 0,42.8387097 L0,81.6612903 C0,82.4002581 0.607640625,83 1.359375,83 L12.234375,83 L20.390625,83 L39.421875,83 C40.1736094,83 40.78125,82.4002581 40.78125,81.6612903 L40.78125,57.5645161 C40.78125,56.8255484 40.1736094,56.2258065 39.421875,56.2258065 Z M19.03125,80.3225806 L13.59375,80.3225806 L13.59375,76.3064516 L19.03125,76.3064516 L19.03125,80.3225806 Z M38.0625,80.3225806 L21.75,80.3225806 L21.75,76.3064516 L24.46875,76.3064516 L24.46875,73.6290323 L20.390625,73.6290323 L12.234375,73.6290323 L8.15625,73.6290323 L8.15625,76.3064516 L10.875,76.3064516 L10.875,80.3225806 L2.71875,80.3225806 L2.71875,45.3407581 L8.76117187,49.3073548 C9.17714062,49.5817903 9.71545312,49.6072258 10.1558906,49.3742903 C10.5990469,49.1413548 10.875,48.6875323 10.875,48.1935484 L10.875,45.3407581 L16.3125,48.9110968 L16.3125,57.5645161 C16.3125,58.3034839 16.9201406,58.9032258 17.671875,58.9032258 L38.0625,58.9032258 L38.0625,80.3225806 Z" id="Shape" fill="#1F2833"></path>
                        <rect id="Rectangle-path" fill="#1F2833" x="5.4375" y="50.8709677" width="2.71875" height="2.67741935"></rect>
                        <rect id="Rectangle-path" fill="#1F2833" x="10.875" y="50.8709677" width="2.71875" height="2.67741935"></rect>
                        <rect id="Rectangle-path" fill="#1F2833" x="5.4375" y="56.2258065" width="2.71875" height="2.67741935"></rect>
                        <rect id="Rectangle-path" fill="#1F2833" x="10.875" y="56.2258065" width="2.71875" height="2.67741935"></rect>
                        <rect id="Rectangle-path" fill="#1F2833" x="5.4375" y="61.5806452" width="2.71875" height="2.67741935"></rect>
                        <rect id="Rectangle-path" fill="#1F2833" x="10.875" y="61.5806452" width="2.71875" height="2.67741935"></rect>
                        <rect id="Rectangle-path" fill="#1F2833" x="4.078125" y="21.4193548" width="2.71875" height="2.67741935"></rect>
                        <rect id="Rectangle-path" fill="#1F2833" x="4.078125" y="16.0645161" width="2.71875" height="2.67741935"></rect>
                        <rect id="Rectangle-path" fill="#1F2833" x="4.078125" y="10.7096774" width="2.71875" height="2.67741935"></rect>
                        <rect id="Rectangle-path" fill="#1F2833" x="9.515625" y="10.7096774" width="2.71875" height="2.67741935"></rect>
                        <rect id="Rectangle-path" fill="#1F2833" x="69.328125" y="16.0645161" width="2.71875" height="2.67741935"></rect>
                        <rect id="Rectangle-path" fill="#1F2833" x="74.765625" y="16.0645161" width="2.71875" height="2.67741935"></rect>
                        <rect id="Rectangle-path" fill="#1F2833" x="74.765625" y="21.4193548" width="2.71875" height="2.67741935"></rect>
                        <rect id="Rectangle-path" fill="#1F2833" x="74.765625" y="26.7741935" width="2.71875" height="2.67741935"></rect>
                        <rect id="Rectangle-path" fill="#1F2833" x="74.765625" y="32.1290323" width="2.71875" height="2.67741935"></rect>
                        <rect id="Rectangle-path" fill="#1F2833" x="74.765625" y="37.483871" width="2.71875" height="2.67741935"></rect>
                        <rect id="Rectangle-path" fill="#1F2833" x="74.765625" y="42.8387097" width="2.71875" height="2.67741935"></rect>
                        <rect id="Rectangle-path" fill="#1F2833" x="74.765625" y="48.1935484" width="2.71875" height="2.67741935"></rect>
                        <rect id="Rectangle-path" fill="#1F2833" x="14.953125" y="10.7096774" width="2.71875" height="2.67741935"></rect>
                        <rect id="Rectangle-path" fill="#1F2833" x="4.078125" y="26.7741935" width="2.71875" height="2.67741935"></rect>
                        <rect id="Rectangle-path" fill="#1F2833" x="4.078125" y="32.1290323" width="2.71875" height="2.67741935"></rect>
                        <rect id="Rectangle-path" fill="#1F2833" x="4.078125" y="37.483871" width="2.71875" height="2.67741935"></rect>
                        <rect id="Rectangle-path" fill="#1F2833" x="16.3125" y="61.5806452" width="2.71875" height="2.67741935"></rect>
                        <rect id="Rectangle-path" fill="#1F2833" x="21.75" y="61.5806452" width="2.71875" height="2.67741935"></rect>
                        <rect id="Rectangle-path" fill="#1F2833" x="27.1875" y="61.5806452" width="2.71875" height="2.67741935"></rect>
                        <rect id="Rectangle-path" fill="#1F2833" x="32.625" y="61.5806452" width="2.71875" height="2.67741935"></rect>
                        <rect id="Rectangle-path" fill="#1F2833" x="5.4375" y="66.9354839" width="2.71875" height="2.67741935"></rect>
                        <rect id="Rectangle-path" fill="#1F2833" x="10.875" y="66.9354839" width="2.71875" height="2.67741935"></rect>
                        <rect id="Rectangle-path" fill="#1F2833" x="16.3125" y="66.9354839" width="2.71875" height="2.67741935"></rect>
                        <rect id="Rectangle-path" fill="#1F2833" x="21.75" y="66.9354839" width="2.71875" height="2.67741935"></rect>
                        <rect id="Rectangle-path" fill="#1F2833" x="27.1875" y="66.9354839" width="2.71875" height="2.67741935"></rect>
                        <rect id="Rectangle-path" fill="#1F2833" x="32.625" y="66.9354839" width="2.71875" height="2.67741935"></rect>
                        <path d="M57.09375,41.5 L53.9359219,41.5 L52.3046719,37.483871 L59.8125,37.483871 C63.5602969,37.483871 66.609375,34.4811452 66.609375,30.7903226 L66.609375,6.69354839 C66.609375,3.00272581 63.5602969,0 59.8125,0 L27.1875,0 C23.4397031,0 20.390625,3.00272581 20.390625,6.69354839 L20.390625,30.7903226 C20.390625,34.4811452 23.4397031,37.483871 27.1875,37.483871 L34.6953281,37.483871 L33.0640781,41.5 L29.90625,41.5 L29.90625,44.1774194 L33.984375,44.1774194 L53.015625,44.1774194 L57.09375,44.1774194 L57.09375,41.5 Z M23.109375,6.69354839 C23.109375,4.47932258 24.9390937,2.67741935 27.1875,2.67741935 L59.8125,2.67741935 C62.0609062,2.67741935 63.890625,4.47932258 63.890625,6.69354839 L63.890625,26.7741935 L23.109375,26.7741935 L23.109375,6.69354839 Z M27.1875,34.8064516 C24.9390937,34.8064516 23.109375,33.0045484 23.109375,30.7903226 L23.109375,29.4516129 L63.890625,29.4516129 L63.890625,30.7903226 C63.890625,33.0045484 62.0609062,34.8064516 59.8125,34.8064516 L50.296875,34.8064516 L36.703125,34.8064516 L27.1875,34.8064516 Z M35.9921719,41.5 L37.6234219,37.483871 L49.3765781,37.483871 L51.0078281,41.5 L35.9921719,41.5 Z" id="Shape" fill="#1F2833"></path>
                        <path d="M51.6154688,11.7230806 C51.4632188,11.1273548 50.9208281,10.7096774 50.296875,10.7096774 L48.9375,10.7096774 C48.9375,7.75648387 46.4987813,5.35483871 43.5,5.35483871 C40.5012188,5.35483871 38.0625,7.75648387 38.0625,10.7096774 L36.703125,10.7096774 C36.0791719,10.7096774 35.5367813,11.1273548 35.3845313,11.7230806 L32.6657812,22.4327581 C32.5638281,22.8330323 32.6549062,23.2560645 32.9131875,23.581371 C33.1714688,23.9066774 33.5656875,24.0967742 33.984375,24.0967742 L53.015625,24.0967742 C53.4343125,24.0967742 53.8298906,23.9066774 54.0868125,23.581371 C54.3437344,23.2560645 54.4361719,22.8330323 54.3342188,22.4327581 L51.6154688,11.7230806 Z M43.5,8.03225806 C44.9993906,8.03225806 46.21875,9.23308065 46.21875,10.7096774 L40.78125,10.7096774 C40.78125,9.23308065 42.0006094,8.03225806 43.5,8.03225806 Z M35.7257344,21.4193548 L37.7647969,13.3870968 L49.2352031,13.3870968 L51.2742656,21.4193548 L35.7257344,21.4193548 Z" id="Shape" fill="#1F2833"></path>
                    </g>
                </g>
            </g>
        </g>
    </g>
</svg>