<?xml version="1.0" encoding="UTF-8"?>
<svg width="30px" height="31px" viewBox="0 0 30 31" version="1.1" xmlns="http://www.w3.org/2000/svg" xmlns:xlink="http://www.w3.org/1999/xlink">
    <!-- Generator: Sketch 51.2 (57519) - http://www.bohemiancoding.com/sketch -->
    <title>Group 19</title>
    <desc>Created with Sketch.</desc>
    <defs>
        <polygon id="path-1" points="0 0.113935065 28.0317497 0.113935065 28.0317497 29.7303688 0 29.7303688"></polygon>
    </defs>
    <g id="home" stroke="none" stroke-width="1" fill="none" fill-rule="evenodd">
        <g id="Desktop-HD" transform="translate(-359.000000, -576.000000)">
            <g id="Group-16" transform="translate(119.000000, 86.000000)">
                <g id="Group-8" transform="translate(101.000000, 490.000000)">
                    <g id="Group-19" transform="translate(139.000000, 0.000000)">
                        <g id="Group-3" transform="translate(0.000000, 0.087364)">
                            <mask id="mask-2" fill="white">
                                <use xlink:href="#path-1"></use>
                            </mask>
                            <g id="Clip-2"></g>
                            <path d="M23.8218077,0.93157013 C25.9323846,1.35610909 27.5735385,2.61201169 27.6883462,5.68302468 C27.7775769,8.06982338 28.0708462,13.280239 28.0273846,14.9105571 C27.9371923,18.3032455 27.9937308,22.3342519 27.9506538,24.2785961 C27.8910385,26.9482195 26.5812308,29.4368753 24.4406538,29.555239 C21.4441154,29.7219143 19.9556538,29.7303688 17.1477692,29.7303688 C16.0016154,29.7303688 12.5552692,29.7303688 9.49796154,29.3263623 C5.87430769,28.847674 1.06180769,29.9246221 0.425461538,24.9495247 C0.0175769231,21.7601481 -0.0360769231,15.2422974 0.017,12.1117 C0.0345,11.0788364 0.234884615,5.19487532 0.320461538,3.87234286 C0.4645,1.65906364 2.74353846,0.25581039 4.97873077,0.148518182 C7.15546154,0.0444467532 19.8854615,0.139661039 23.8218077,0.93157013" id="Fill-1" fill="#56A1D3" mask="url(#mask-2)"></path>
                        </g>
                        <path d="M8.98971154,7.16838766 C7.80894231,7.16838766 7.03663462,8.37336169 7.03663462,9.43138766 C7.03663462,10.4694851 7.78701923,11.2893747 8.94432692,11.2893747 L8.96721154,11.2893747 C10.1700962,11.2893747 11.4960577,10.2659721 11.4960577,9.22787468 C11.4731731,8.1698487 10.1700962,7.16838766 8.98971154,7.16838766" id="Fill-4" fill="#FFFFFF"></path>
                        <path d="M10.6483654,23.4056442 L7.44875,23.4056442 C7.44875,23.4056442 6.32586538,14.2240078 7.06413462,13.0902935 C7.97471154,11.6920727 10.6485577,12.6876961 10.6485577,12.6876961 L10.6485577,23.4056442 L10.6483654,23.4056442 Z" id="Fill-6" fill="#FFFFFF"></path>
                        <path d="M23.8321346,23.4056442 C23.1544423,24.0359104 19.8211731,23.4056442 19.8211731,23.4056442 L19.8211731,17.8598649 C19.8211731,16.4076961 19.2530962,15.4179104 18.0052115,15.4179104 C17.0507885,15.4179104 16.7134808,16.0860208 16.4648269,16.7315857 C16.3725192,16.9616701 16.1946346,17.2841506 16.1946346,17.605826 C16.1946346,17.605826 17.4179038,22.6938519 16.3869423,23.8084429 C15.7288654,24.5198325 12.6021346,23.8084429 12.6021346,23.8084429 C12.6021346,23.8084429 12.6473269,13.5810597 12.6021346,12.6878974 L16.1946346,12.6878974 L16.1946346,14.3703519 C16.4080962,13.6344039 17.7477115,11.9815403 19.5809808,11.9815403 C21.8523269,11.9815403 24.37675,14.1322156 24.21675,17.4463974 C24.1444423,18.9416442 24.9015577,22.4110273 23.8321346,23.4056442" id="Fill-8" fill="#FFFFFF"></path>
                        <path d="M8.98971154,7.17162857 C8.98971154,7.17162857 9.04240385,7.17545325 9.14125,7.1827 C9.23932692,7.18873896 9.38567308,7.20725844 9.56836538,7.25355714 C9.75105769,7.29542727 9.97240385,7.37916753 10.2016346,7.5237 C10.4302885,7.66762857 10.6645192,7.88301818 10.8452885,8.17007013 C10.9335577,8.3144013 11.0110577,8.47362857 11.0645192,8.64614156 C11.1264423,8.81644026 11.15875,8.9955961 11.1824038,9.19850519 C11.2089423,9.55721948 11.1814423,9.98276494 11.0041346,10.364226 C10.9214423,10.5570701 10.8052885,10.7398494 10.66125,10.8980701 C10.5191346,11.0577 10.3535577,11.2000182 10.1683654,11.3065052 C9.98548077,11.4176221 9.78625,11.4991481 9.58240385,11.5502779 C9.48278846,11.5792649 9.37432692,11.5973818 9.26413462,11.6122779 C9.14586538,11.6293883 9.08855769,11.6279792 8.96432692,11.6370377 C8.55528846,11.6448883 8.11355769,11.5687974 7.73163462,11.3471675 C7.34509615,11.137213 7.02875,10.782726 6.85048077,10.3813364 C6.76009615,10.1764143 6.69875,9.98195974 6.66875,9.75167403 C6.64836538,9.62626494 6.64990385,9.55721948 6.64298077,9.46844675 L6.64201923,9.45254416 L6.64182692,9.41389481 L6.64278846,9.37564805 L6.64644231,9.29955714 C6.64971154,9.24903117 6.64971154,9.19890779 6.65855769,9.14898571 C6.70663462,8.75001169 6.84951923,8.37700519 7.05951923,8.09377792 C7.26605769,7.80712857 7.51971154,7.60502468 7.75875,7.47317403 C7.99913462,7.34232987 8.22336538,7.26704416 8.40836538,7.23201818 C8.58817308,7.19236234 8.77105769,7.17746623 8.84182692,7.17686234 C8.92817308,7.17364156 8.97413462,7.17182987 8.97413462,7.17182987 L8.98971154,7.17162857 Z M9.00548077,7.96997922 C9.00548077,7.96997922 8.95951923,7.9725961 8.87317308,7.97762857 C8.82855769,7.97964156 8.77471154,7.98286234 8.73259615,7.99232338 C8.68509615,8.00077792 8.63259615,8.00500519 8.56625,8.02432987 C8.30682692,8.08029091 7.95182692,8.24213506 7.69471154,8.58917403 C7.56509615,8.76128442 7.47855769,8.98875195 7.44548077,9.24621299 C7.43875,9.27781688 7.43990385,9.31143377 7.43778846,9.34464805 L7.43509615,9.39477143 L7.43259615,9.41993377 L7.43201923,9.42617403 L7.43163462,9.42939481 C7.43201923,9.44811558 7.43086538,9.40745325 7.43105769,9.41308961 L7.43125,9.42899221 C7.43278846,9.51011558 7.43028846,9.61378442 7.43932692,9.66068701 C7.44278846,9.71725195 7.45067308,9.7871026 7.46182692,9.85775844 C7.47721154,9.9255961 7.48913462,9.99725844 7.51471154,10.0638883 C7.59875,10.3402714 7.80144231,10.583239 8.06548077,10.7285766 C8.32451923,10.8874013 8.63990385,10.9473883 8.96432692,10.9461805 C9.02413462,10.9391351 9.15163462,10.9421545 9.21586538,10.9328948 C9.28836538,10.9254468 9.36221154,10.9184013 9.44067308,10.8992779 C9.59528846,10.8690831 9.74259615,10.8165442 9.87625,10.743674 C10.0124038,10.674226 10.13375,10.5816286 10.2360577,10.472726 C10.3408654,10.3660377 10.42625,10.2414338 10.4885577,10.1067649 C10.5549038,9.97390779 10.5983654,9.83058312 10.6208654,9.68484286 C10.6352885,9.61257662 10.6399038,9.5391026 10.6435577,9.46603117 L10.6443269,9.43885584 L10.6445192,9.43201169 C10.6447115,9.43945974 10.6441346,9.41067403 10.6450962,9.44771299 L10.6447115,9.44368701 L10.6433654,9.42798571 L10.6381731,9.36497922 C10.6343269,9.32431688 10.6322115,9.27862208 10.6268269,9.24319351 C10.60375,9.11919351 10.5779808,8.97868701 10.5254808,8.86012208 C10.4770192,8.73934286 10.4124038,8.63406364 10.34375,8.54066104 C10.2027885,8.35586883 10.0335577,8.22945325 9.87028846,8.14712208 C9.70567308,8.0668039 9.55067308,8.01869351 9.41682692,7.99876494 C9.28451923,7.97561558 9.17663462,7.96897273 9.10259615,7.97058312 C9.02875,7.97038182 8.98951923,7.97018052 8.98951923,7.97018052 L9.00548077,7.96997922 Z" id="Fill-10" fill="#000000"></path>
                        <path d="M10.4920192,18.7166123 C10.4889423,18.9396513 10.4902885,19.1632942 10.4800962,19.3863331 L10.4339423,20.725976 C10.4204808,21.1726578 10.3879808,21.6193396 10.3660577,22.0660214 C10.3485577,22.3738071 10.3225962,22.6811903 10.2977885,22.9891773 L9.84855769,22.9670344 L9.04855769,22.9450929 C8.78201923,22.9396578 8.51528846,22.9396578 8.24855769,22.9370409 C8.12913462,22.936437 8.00990385,22.9350279 7.89048077,22.9338201 C7.88490385,22.6447552 7.87759615,22.3550864 7.86778846,22.0660214 L7.83028846,20.7261773 C7.81605769,20.2796968 7.82278846,19.8332162 7.81798077,19.3863331 L7.81182692,18.0468916 L7.80567308,16.7072487 L7.78009615,15.3674045 L7.75451923,14.0277617 C7.74913462,13.675489 7.73721154,13.3232162 7.72644231,12.9709435 C7.90048077,12.9717487 8.07451923,12.973963 8.24836538,12.9727552 C8.51490385,12.9711448 8.78163462,12.97195 9.04836538,12.9647032 C9.50798077,12.9540344 9.96759615,12.9465864 10.4270192,12.9320929 C10.4368269,13.2972487 10.4422115,13.6626058 10.4479808,14.0277617 C10.4583654,14.4744435 10.45625,14.920924 10.4524038,15.3674045 C10.4522115,15.5906448 10.4464423,15.8140864 10.4508654,16.0371253 L10.4650962,16.7072487 L10.4914423,18.0468916 C10.4979808,18.2699305 10.4941346,18.4933721 10.4920192,18.7166123 Z M11.0245192,20.725976 L11.0135577,19.3863331 C11.0095192,18.9396513 10.9916346,18.4933721 10.9814423,18.0466903 C10.9574038,17.1533266 10.9210577,16.2603656 10.8872115,15.3670019 L10.8697115,14.6972812 C10.8649038,14.4740409 10.8708654,14.2505994 10.8708654,14.0273591 L10.8772115,13.3572357 C10.87625,13.1343981 10.8949038,12.9111578 10.8949038,12.6877162 L10.8949038,12.6776513 C10.8949038,12.5405669 10.7810577,12.4018721 10.6502885,12.4018721 L10.6483654,12.4018721 L9.04855769,12.4451513 C8.51528846,12.4546123 7.98259615,12.4578331 7.44932692,12.4606513 C7.33605769,12.4618591 7.24105769,12.5647227 7.24105769,12.6840929 L7.24105769,12.6877162 L7.18355769,15.3670019 L7.15490385,16.7070474 L7.14028846,18.0466903 L7.12548077,19.3861318 C7.11855769,19.8330149 7.11971154,20.2794955 7.10625,20.725976 C7.08009615,21.6193396 7.05817308,22.5123006 7.04086538,23.4056643 C7.03644231,23.6341383 7.20855769,23.8245669 7.42721154,23.8318136 L7.44875,23.8328201 C7.71548077,23.8418786 7.98201923,23.8380539 8.24875,23.8392617 L9.04875,23.8388591 L9.84875,23.8283916 L10.64875,23.8050409 L10.6589423,23.8048396 C10.8645192,23.7985994 11.0297115,23.6228656 11.0302885,23.4060669 C11.0316346,22.9591838 11.0404808,22.5127032 11.0358654,22.0662227 L11.0245192,20.725976 Z" id="Fill-12" fill="#000000"></path>
                        <path d="M23.1385962,18.0079403 C23.12725,18.1881026 23.1020577,18.3678623 23.0885962,18.5478234 C23.0730192,18.7277844 23.0657115,18.9077455 23.0545577,19.0875052 C23.0330192,19.4474273 23.01225,19.8071481 23.0012885,20.1672714 C22.9928269,20.5269922 22.9937885,20.886713 22.9985962,21.2466351 C22.9999423,21.6065571 23.0041731,21.9662779 23.0174423,22.3262 C23.0216731,22.5591026 23.0364808,22.7920052 23.0487885,23.0249078 L22.9941731,23.027726 L22.5409038,23.0325571 L21.6343654,23.0418169 C21.33225,23.0329597 21.0299423,23.0321545 20.7278269,23.0154468 L20.2343654,22.994713 C20.2364808,22.754161 20.2366731,22.5134078 20.2274423,22.2728558 C20.2170577,21.8952195 20.1887885,21.5175831 20.1685962,21.1397455 C20.1318654,20.3844727 20.1437885,19.6294013 20.1332115,18.8741286 C20.1289808,18.4926675 20.1305192,18.1273104 20.1214808,17.7327649 L20.1168654,17.5912519 L20.1043654,17.4358494 C20.0976346,17.3307714 20.0832115,17.2295182 20.0674423,17.1288688 C20.0374423,16.9267649 19.9878269,16.7242584 19.9218654,16.5247714 C19.7851346,16.1296221 19.5489808,15.734674 19.1878269,15.4764078 C19.0103269,15.3493883 18.8116731,15.2509532 18.6076346,15.1998234 C18.5060962,15.1668104 18.4037885,15.1553364 18.3014808,15.1390312 C18.2501346,15.1289662 18.1999423,15.1311805 18.1491731,15.1273558 L18.0732115,15.1239338 L18.0351346,15.1223234 L18.0160962,15.1215182 L18.0066731,15.1211156 L17.9735962,15.1229273 L17.7041731,15.1484922 C17.6810962,15.1511091 17.6605192,15.1515117 17.6355192,15.1561416 L17.5541731,15.1770766 L17.3916731,15.2217649 C17.2789808,15.2471286 17.1870577,15.2982584 17.0920577,15.3463688 C17.0457115,15.3723364 16.99725,15.3950831 16.9532115,15.4242714 L16.8270577,15.5223039 C16.4924423,15.7866091 16.2562885,16.1475377 16.1070577,16.527187 L16.0785962,16.5982455 L16.0643654,16.6338753 L16.0626346,16.6383039 L16.0537885,16.6642714 L16.0518654,16.6729273 L16.0478269,16.690239 L16.0130192,16.8271221 C15.9941731,16.9259597 15.9799423,17.0658623 15.9770577,17.1644987 L15.9685962,17.7412195 L15.9095577,18.8741286 L15.8660962,20.0070377 C15.8491731,20.384674 15.8401346,20.7623104 15.8334038,21.1401481 C15.8320577,21.5177844 15.7968654,21.8954208 15.7862885,22.2728558 C15.7853269,22.461674 15.7945577,22.6504922 15.7884038,22.8393104 C15.7887885,22.8660831 15.7853269,22.8932584 15.7834038,22.9198299 L15.2968654,22.9276805 C14.9974423,22.9298948 14.6980192,22.9439857 14.3987885,22.9546545 C14.0993654,22.9667325 13.7999423,22.9743818 13.5007115,22.9927 L12.9368654,23.0230961 C12.9257115,22.7044403 12.9174423,22.3859857 12.9130192,22.0675312 C12.9051346,21.8440896 12.91475,21.6208494 12.91725,21.3976091 L12.9289808,20.727687 L12.9528269,19.3878429 L12.96475,18.7179208 C12.9662885,18.4948818 12.95725,18.2710377 12.95225,18.0467909 L12.9153269,16.7031221 C12.8985962,16.2552325 12.89475,15.8075442 12.8932115,15.3596545 L12.8853269,14.016187 L12.8924423,12.9980182 L13.0514808,12.9998299 C13.2010962,13.0028494 13.3509038,13.0088883 13.5005192,13.0280117 L13.7251346,13.0523688 C13.7999423,13.0628364 13.87475,13.0608234 13.94975,13.0652519 C14.0993654,13.0710896 14.2491731,13.0588104 14.3987885,13.0563948 L14.8478269,13.0225766 C14.9974423,13.0088883 15.14725,13.0024468 15.2968654,13.0008364 C15.4464808,12.9941935 15.5962885,13.0008364 15.7459038,13.0030506 L15.87975,13.0056675 L15.8551346,14.3704727 C15.8526346,14.5190312 15.9401346,14.6595377 16.0812885,14.7114727 C16.2576346,14.7764922 16.4510962,14.6794662 16.5132115,14.4948753 L16.5203269,14.473739 C16.5993654,14.2388234 16.7991731,13.9880052 17.0274423,13.7901286 C17.2576346,13.5876221 17.5305192,13.4285961 17.8160962,13.3066091 C18.1026346,13.1844208 18.4066731,13.1022909 18.71725,13.0610247 C18.7939808,13.045726 18.8730192,13.0435117 18.9509038,13.0358623 C19.0289808,13.0290182 19.1068654,13.0199597 19.1859038,13.0189532 L19.3039808,13.0139208 L19.3630192,13.0113039 L19.3778269,13.008687 L19.3851346,13.0062714 L19.3857115,13.0062714 L19.4080192,13.0090896 L19.6657115,13.0195571 L19.7941731,13.0249922 L19.9055192,13.0404922 L20.1285962,13.0690766 C20.2785962,13.1039013 20.4351346,13.1294662 20.5820577,13.1779792 L20.8039808,13.2486351 C20.8782115,13.272187 20.9462885,13.3096286 21.0180192,13.3390182 C21.1639808,13.3939727 21.2928269,13.4813364 21.4285962,13.5570247 C21.6845577,13.7315506 21.9318654,13.9280182 22.1307115,14.177226 C22.3434038,14.4133494 22.5032115,14.6987909 22.6532115,14.9890636 C22.71475,15.1422519 22.7832115,15.2928234 22.8374423,15.4504403 C22.8828269,15.6120831 22.9407115,15.7692974 22.9730192,15.9359727 C23.0478269,16.2663039 23.0932115,16.6058948 23.1205192,16.9493104 L23.1430192,17.4682584 C23.1455192,17.6480182 23.1476346,17.8279792 23.1385962,18.0079403 M23.7699423,21.2464338 C23.7480192,20.5267909 23.7559038,19.8071481 23.7578269,19.0873039 C23.76225,18.7273818 23.7555192,18.367661 23.7512885,18.007739 L23.74475,17.4680571 L23.7199423,16.9092519 C23.6903269,16.5362455 23.6403269,16.1638429 23.5566731,15.7960701 C23.5207115,15.6114792 23.4545577,15.4325247 23.4064808,15.2501481 C23.3478269,15.0705896 23.2728269,14.8954597 23.2037885,14.7193234 C23.0368654,14.3791286 22.8530192,14.0423558 22.60475,13.7540961 C22.3691731,13.4559727 22.0803269,13.2075701 21.7793654,12.9827195 C21.6207115,12.8832779 21.4660962,12.7733688 21.2951346,12.698687 C21.2107115,12.6594338 21.1287885,12.6121286 21.0418654,12.5799208 L20.7803269,12.4841026 C20.6057115,12.4198883 20.4251346,12.3850636 20.2449423,12.3395701 L19.9645577,12.2964922 L19.8239808,12.2757584 L19.6949423,12.2671026 L19.4376346,12.2503948 C19.3239808,12.2453623 19.2484038,12.2512 19.1516731,12.2512 C19.0599423,12.2503948 18.9682115,12.2566351 18.8766731,12.2693169 C18.7853269,12.2807909 18.6934038,12.2870312 18.6028269,12.3069597 C18.2384038,12.3665442 17.8787885,12.474239 17.53725,12.6312519 C17.1962885,12.7888688 16.8701346,12.9907714 16.5837885,13.2558818 C16.55475,13.2834597 16.5149423,13.3116416 16.4864808,13.340226 L16.4718654,12.6876156 L16.4718654,12.6825831 L16.4718654,12.6813753 C16.4718654,12.5098688 16.34725,12.3721805 16.1834038,12.3737909 C15.8839808,12.3770117 15.5903269,12.3747974 15.2909038,12.3822455 L14.3955192,12.4068039 C14.2459038,12.4106286 14.0974423,12.4178753 13.9478269,12.4186805 L13.4993654,12.4212974 C13.34975,12.4208948 13.2003269,12.4233104 13.0507115,12.4180766 L12.6020577,12.4019727 L12.6018654,12.4019727 C12.4587885,12.4019727 12.33975,12.518726 12.3359038,12.6684922 L12.3351346,12.7011026 C12.3118654,13.5932584 12.29225,14.485213 12.2803269,15.3757584 L12.2693654,16.0440701 C12.26725,16.2667065 12.2745577,16.4891416 12.2764808,16.7119792 C12.2887885,17.1566481 12.3135962,17.6017195 12.3270577,18.0469922 C12.3301346,18.2694273 12.3366731,18.4924662 12.3334038,18.7161091 L12.3174423,19.3856286 L12.2820577,20.7250701 C12.26975,21.1715506 12.2507115,21.6182325 12.2437885,22.0645117 C12.2353269,22.5109922 12.23225,22.9574727 12.2395577,23.4039532 L12.2410962,23.4200571 L12.2410962,23.4216675 C12.2410962,23.6273948 12.4066731,23.7910506 12.6034038,23.7868234 C12.7530192,23.7836026 12.9020577,23.7866221 13.0518654,23.7759532 C13.2014808,23.7703169 13.3509038,23.7491805 13.5005192,23.7360961 C13.7999423,23.709726 14.0991731,23.7093234 14.3985962,23.7008688 C14.9974423,23.6869792 15.5959038,23.6751026 16.19475,23.6751026 L16.2051346,23.6751026 L16.2080192,23.6751026 C16.3528269,23.6751026 16.4670577,23.5513039 16.4635962,23.3999273 C16.4591731,23.2111091 16.4545577,23.0253104 16.4682115,22.8364922 C16.4834038,22.647674 16.5007115,22.4602649 16.51975,22.2714468 C16.5412885,21.8938104 16.5680192,21.5169792 16.5712885,21.1393429 L16.5834038,20.5732909 L16.5776346,20.0070377 L16.5660962,18.8743299 L16.59225,17.7416221 C16.5978269,17.5546156 16.5962885,17.3563364 16.6120577,17.1950961 C16.6232115,17.1097455 16.6230192,17.1004857 16.6376346,17.0213753 L16.6768654,16.8987844 L16.6784038,16.8961675 L16.6918654,16.8699987 L16.7184038,16.8182649 C16.8559038,16.538661 17.04975,16.3146156 17.2605192,16.1608234 L17.3401346,16.1028494 C17.3680192,16.0863429 17.3989808,16.0762779 17.4276346,16.0619857 C17.4849423,16.0332 17.5435962,15.9973688 17.5924423,15.9911286 C17.6178269,15.9838818 17.6428269,15.9754273 17.6678269,15.9657649 L17.7055192,15.9504662 C17.7224423,15.9464403 17.7489808,15.9458364 17.7701346,15.9432195 L18.0191731,15.9196675 L18.0264808,15.9200701 L18.0532115,15.9214792 L18.1064808,15.9238948 C18.1414808,15.926713 18.1789808,15.9236935 18.2116731,15.9315442 C18.2785962,15.9430182 18.3484038,15.9486545 18.4091731,15.9701935 C18.5382115,16.0005896 18.6484038,16.0591675 18.7501346,16.1296221 C18.9518654,16.2715377 19.10225,16.5058494 19.2035962,16.7922974 C19.2512885,16.9372325 19.28975,17.0908234 19.3157115,17.2530701 C19.3291731,17.3345961 19.3418654,17.4159208 19.34725,17.4934208 L19.3591731,17.6127909 L19.36475,17.7543039 L19.3695577,17.8831351 L19.3716731,18.0246481 L19.3759038,18.3078753 L19.3841731,18.8743299 L19.4007115,20.007239 C19.4032115,20.3850766 19.4168654,20.762713 19.4310962,21.1403494 C19.4420577,21.5179857 19.4635962,21.8954208 19.4703269,22.2730571 C19.4807115,22.6506935 19.4726346,23.0283299 19.4670577,23.4059662 C19.4643654,23.603239 19.6126346,23.7683039 19.8020577,23.7759532 L19.8212885,23.7767584 L20.7278269,23.8135961 C21.0299423,23.8292974 21.33225,23.8303039 21.6343654,23.8389597 L22.5409038,23.8305052 L22.9941731,23.8258753 L23.4474423,23.8417779 L23.4812885,23.8766026 L23.4824423,23.8766026 C23.6830192,23.8766026 23.8382115,23.6523558 23.8289808,23.4424013 C23.79725,22.7223558 23.7876346,21.9662779 23.7699423,21.2464338" id="Fill-14" fill="#000000"></path>
                        <g id="Group-18" transform="translate(0.192308, 0.288662)" fill="#000000">
                            <path d="M13.5960769,0.420271429 C13.5958846,0.420271429 13.4939615,0.424901299 13.2960769,0.433758442 C13.098,0.440602597 12.8039615,0.455096104 12.4210769,0.490122078 C12.038,0.522531169 11.5662692,0.581109091 11.0124231,0.664044156 C10.4585769,0.751609091 9.82261538,0.848836364 9.10973077,0.941232468 C8.93126923,0.965187013 8.74838462,0.997193506 8.56030769,1.01651818 C8.37223077,1.03886234 8.17915385,1.0449013 7.98165385,1.06523247 C7.58665385,1.10045974 7.17357692,1.1374987 6.74261538,1.17594675 C6.31396154,1.21419351 5.86780769,1.25425195 5.40492308,1.29551818 C5.02742308,1.33295974 4.64569231,1.45857013 4.263,1.62987532 C3.50742308,1.98838831 2.7455,2.59731688 2.20569231,3.43290779 C1.92934615,3.84194675 1.71203846,4.31258312 1.60088462,4.80395325 C1.54473077,5.01410909 1.52453846,5.34705714 1.4955,5.64316753 C1.46742308,5.94833636 1.44896154,6.2675961 1.43011538,6.58464156 C1.39992308,7.22376494 1.35261538,7.87778442 1.34203846,8.54589481 C1.33165385,9.2136026 1.338,9.8945961 1.33434615,10.5876675 C1.31473077,11.2823494 1.29492308,11.9887065 1.27473077,12.7061351 C1.24684615,13.4209468 1.21838462,14.1470312 1.18953846,14.8831805 C1.07011538,17.8215377 0.988769231,20.9408623 1.16030769,24.1229922 C1.18819231,24.5213623 1.21607692,24.9215442 1.24434615,25.3231351 C1.27992308,25.6840636 1.36184615,26.0437844 1.48703846,26.3896156 C1.73742308,27.0810766 2.14761538,27.7189922 2.66703846,28.2268688 C3.18723077,28.7333364 3.81588462,29.1135896 4.49069231,29.2903299 C4.65646154,29.3346156 4.8355,29.3702455 4.99626923,29.3877584 L5.11646154,29.4016481 L5.26665385,29.4111091 L5.34165385,29.415739 C5.32242308,29.413726 5.35761538,29.4155377 5.36280769,29.4153364 L5.39992308,29.415739 L5.54819231,29.4173494 C5.94376923,29.4215766 6.34011538,29.4260052 6.73723077,29.4302325 C7.138,29.4268104 7.53973077,29.4235896 7.94203846,29.4199662 C8.14338462,29.4187584 8.34453846,29.4167455 8.54357692,29.4113104 C8.64338462,29.4058753 8.74319231,29.4092974 8.84319231,29.419161 L9.14319231,29.4409013 C9.54242308,29.4710961 9.94511538,29.498674 10.3545385,29.5163883 C10.5539615,29.5256481 10.7718462,29.539739 10.9564615,29.5449727 L11.5733846,29.5612779 C12.3955,29.553226 13.2193462,29.6101935 14.0408846,29.6651481 C14.8645385,29.6941351 15.6816538,29.7031935 16.5001154,29.7207065 C16.7047308,29.7239273 16.9093462,29.7225182 17.1141538,29.7188948 L17.4212692,29.7150701 C17.4703077,29.7140636 17.5283846,29.7146675 17.5701154,29.7122519 L17.7233846,29.7050052 L18.9493462,29.6476351 C19.7662692,29.605161 20.5793462,29.5751675 21.3891538,29.5262519 C21.7931923,29.4976675 22.1964615,29.4733104 22.5997308,29.4612325 C23.0028077,29.4453299 23.4110769,29.4165442 23.8158846,29.3950052 L24.4231923,29.3599792 L24.7266538,29.345687 L24.8024231,29.3422649 L24.8631923,29.3372325 L24.9908846,29.326161 C25.3318462,29.2867065 25.6726154,29.190687 25.9995385,29.0505831 C27.3110769,28.4835247 28.3620385,27.2177584 28.6418462,25.8094727 C28.6808846,25.6323299 28.6997308,25.4553883 28.7156923,25.2935442 L28.7231923,25.1391481 L28.7268462,25.0622519 L28.7274231,25.0018623 L28.7295385,24.6954857 C28.7320385,24.2872519 28.7343462,23.8804273 28.7368462,23.4750117 C28.7360769,22.6597519 28.7349231,21.8501286 28.7337692,21.0473494 C28.7358846,20.243161 28.7328077,19.4413883 28.7108846,18.6488753 C28.6841538,17.8541481 28.6685769,17.0745182 28.6743462,16.3003234 C28.6697308,15.9130247 28.6889615,15.5301545 28.6937692,15.1454727 C28.6960769,14.9612844 28.6985769,14.7774987 28.7008846,14.5945182 C28.6995385,14.4069078 28.6981923,14.2199013 28.6968462,14.0334987 C28.6895385,13.2814468 28.6822308,12.5386545 28.6749231,11.8059273 C28.6543462,10.3358429 28.6106923,8.9038039 28.5774231,7.51766104 C28.5603077,6.82338182 28.5395385,6.14138182 28.5320385,5.47266753 C28.5297308,5.29995325 28.5258846,5.15079091 28.5183846,4.99840779 C28.5099231,4.84642727 28.4945385,4.69645974 28.4764615,4.5474987 C28.4364615,4.25098571 28.3737692,3.96272597 28.2874231,3.68714805 C28.1151154,3.13619351 27.8455,2.63636883 27.4916538,2.22732987 C27.1387692,1.81768701 26.7091538,1.49581039 26.2453077,1.26995325 C25.7781923,1.0440961 25.2887692,0.916674026 24.7835769,0.873998701 C24.2568462,0.826894805 23.7449231,0.780998701 23.2491538,0.736511688 C22.2556923,0.653174026 21.3249231,0.591777922 20.4635769,0.541855844 C19.6022308,0.493946753 18.8106923,0.44644026 18.0951154,0.435771429 C16.6641538,0.40758961 15.5408846,0.401349351 14.7722308,0.411414286 C14.0053077,0.417251948 13.5966538,0.420271429 13.5960769,0.420271429 M13.5912692,0.127583117 C13.5912692,0.127583117 14.0006923,0.115505195 14.7681923,0.0929597403 C15.5343462,0.066187013 16.6641538,0.0476675325 18.1003077,0.0444467532 C19.5360769,0.0345831169 21.2806923,0.0369987013 23.2814615,0.0941675325 C23.7822308,0.109868831 24.2991538,0.125972727 24.8312692,0.142680519 C25.3874231,0.157979221 25.9870385,0.272920779 26.5528077,0.510251948 C27.1220385,0.744563636 27.6672308,1.11173247 28.1197308,1.6027 C28.5756923,2.08964156 28.9326154,2.69635584 29.1662692,3.35661558 C29.2835769,3.68674545 29.3712692,4.02995974 29.4318462,4.37961558 C29.4601154,4.55454416 29.4845385,4.73088182 29.5010769,4.90822597 C29.5168462,5.08536883 29.5276154,5.26774545 29.5355,5.42958961 C29.573,6.0977 29.5981923,6.77788831 29.5943462,7.47095974 C29.5808846,8.16523896 29.5660769,8.8717974 29.5445385,9.58962857 C29.5314615,10.3068558 29.5376154,11.0343494 29.5770385,11.7707 C29.5953077,12.5084597 29.6687692,13.252661 29.7045385,14.0125636 C29.7149231,14.2025896 29.7255,14.3934208 29.7360769,14.5846545 C29.7381923,14.7783039 29.7405,14.9727584 29.7426154,15.1676156 C29.7441538,15.5490766 29.7455,15.9345636 29.7285769,16.3208558 C29.7049231,17.0940442 29.6164615,17.8752844 29.5818462,18.6623623 C29.533,19.4500442 29.553,20.2455766 29.5683846,21.0489597 C29.5843462,21.8531481 29.5964615,22.6625701 29.6274231,23.4806481 C29.6387692,23.8904922 29.6501154,24.3017455 29.6614615,24.7144078 L29.6701154,25.0244078 C29.6737692,25.1486091 29.6695385,25.2363753 29.6695385,25.3442714 C29.6578077,25.5777779 29.6391538,25.8034338 29.5997308,26.0236545 C29.5274231,26.4685247 29.3939615,26.9037325 29.2122308,27.3169987 C29.0287692,27.7298623 28.788,28.1133364 28.5149231,28.4694338 C27.9628077,29.1763948 27.2531923,29.762174 26.4264615,30.126726 C26.2199231,30.2171091 26.0074231,30.2968234 25.7883846,30.3590247 C25.5681923,30.4167974 25.3437692,30.4622909 25.1151154,30.4880571 C25.0581923,30.4949013 25.0001154,30.4979208 24.9428077,30.5027519 L24.8537692,30.5091935 L24.7778077,30.512213 L24.4741538,30.5244922 L23.8660769,30.5436156 C23.4595385,30.554687 23.0556923,30.5728039 22.6455,30.578239 C22.2355,30.5840766 21.8251154,30.5899143 21.4141538,30.5957519 C19.7708846,30.6034013 18.1376154,30.583674 16.4908846,30.5438169 C15.6731923,30.5387844 14.8555,30.5333494 14.0385769,30.5281156 C13.2245385,30.4914792 12.4112692,30.4683299 11.5993462,30.4808104 L10.9903077,30.4755766 C10.7751154,30.4749727 10.5795385,30.4659143 10.3733846,30.4614857 C9.96703846,30.4534338 9.558,30.4353169 9.14934615,30.4147844 C8.74146154,30.3857974 8.33319231,30.397674 7.92819231,30.3910312 C7.52261538,30.3868039 7.11780769,30.3827779 6.71396154,30.3785506 C6.30838462,30.3664727 5.90376923,30.3543948 5.49992308,30.3421156 L5.34838462,30.3374857 L5.2655,30.3342649 L5.1905,30.328226 L5.04069231,30.3159468 L4.87838462,30.2944078 C4.66203846,30.2646156 4.45742308,30.2185182 4.25165385,30.1589338 C3.43107692,29.9209987 2.68819231,29.4477455 2.08473077,28.8418364 C1.48242308,28.2323039 1.01665385,27.4832714 0.733,26.6609662 C0.591461538,26.2495117 0.499346154,25.8183299 0.463576923,25.3784922 C0.436076923,24.9620052 0.420692308,24.567661 0.385307692,24.164661 C0.299538462,22.5448104 0.147615385,20.958174 0.152230769,19.4079727 C0.143961538,17.8563623 0.240692308,16.3413883 0.314153846,14.8682844 C0.353961538,14.1319338 0.393,13.4056481 0.431653846,12.6902325 C0.461269231,11.9760247 0.4905,11.272687 0.519153846,10.5808234 C0.552230769,9.19427792 0.5255,7.85423247 0.529923077,6.56451169 C0.532807692,6.24082338 0.535692308,5.92055714 0.538576923,5.60371299 C0.549923077,5.27982338 0.541461538,4.97847922 0.596461538,4.62379091 C0.697423077,3.95306364 0.944923077,3.34393377 1.25857692,2.80626494 C1.89223077,1.73354416 2.80126923,0.925732468 3.80896154,0.495758442 C4.31107692,0.278557143 4.83684615,0.155161039 5.35280769,0.130401299 C5.82030769,0.119933766 6.27107692,0.109667532 6.70396154,0.100005195 C7.13588462,0.0905441558 7.55011538,0.0812844156 7.94588462,0.0726285714 C8.14376923,0.0663883117 8.33703846,0.0601480519 8.5255,0.0541090909 C8.71415385,0.0498818182 8.89838462,0.0575311688 9.07780769,0.0585376623 C9.79588462,0.0706155844 10.4376154,0.0957779221 10.9955,0.116712987 C11.5531923,0.129596104 12.0276154,0.1457 12.4118462,0.143687013 C13.1801154,0.133219481 13.5897308,0.127784416 13.5897308,0.127784416 C13.5901154,0.127583117 13.5908846,0.127583117 13.5912692,0.127583117" id="Fill-16"></path>
                        </g>
                    </g>
                </g>
            </g>
        </g>
    </g>
</svg>