<svg id="Layer_1" data-name="Layer 1" xmlns="http://www.w3.org/2000/svg" xmlns:xlink="http://www.w3.org/1999/xlink" viewBox="0 0 73 78.28"><defs><clipPath id="clip-path"><path d="M70.24,34.33a34.6,34.6,0,1,1-67.39,0,34.6,34.6,0,1,1,67.39,0Z" style="fill:none"/></clipPath></defs><title>mike-animation</title><circle cx="36.54" cy="41.44" r="35.08" style="fill:#0071bc;stroke:#000;stroke-linejoin:round;stroke-width:1.7884147528882548px"/><g style="clip-path:url(#clip-path)"><path d="M40.65,50l12.43,3.27a8.82,8.82,0,0,1,6.57,8.52V77h-46V61.74a8.84,8.84,0,0,1,6.57-8.52L32.65,50h0a5.14,5.14,0,0,0,7.22.79A5.29,5.29,0,0,0,40.65,50Z" style="fill:#333;stroke:#000;stroke-linejoin:round;stroke-width:2px"/><path d="M40.65,44.29v3.4a8.13,8.13,0,0,1-2.53,6.06h0a2.14,2.14,0,0,1-2.94,0h0a8.2,8.2,0,0,1-2.53-6.06v-3.4" style="fill:#8c6239;stroke:#000;stroke-linejoin:round;stroke-width:2.1892006397247314px"/><polygon points="37.84 76.95 47.66 51.95 40.66 49.95 32.66 49.95 25.66 51.95 35.48 76.95 37.84 76.95" style="fill:#e6e6e6;stroke:#000;stroke-linejoin:round;stroke-width:2px"/><polygon points="37.66 76.95 42.66 47.95 49.66 49.95 39.66 76.95 37.66 76.95" style="fill:#1c1c1c;stroke:#000;stroke-linejoin:round;stroke-width:2px"/><polygon points="35.66 76.95 30.66 47.95 23.66 49.95 33.66 76.95 35.66 76.95" style="fill:#1c1c1c;stroke:#000;stroke-linejoin:round;stroke-width:2px"/><polygon points="36.66 52.01 29.66 55.81 29.66 45.81 36.66 49.61 36.66 52.01" style="fill:#c1272d;stroke:#000;stroke-linejoin:round;stroke-width:2px"/><polygon points="36.66 52.01 43.66 55.81 43.66 45.81 36.66 49.61 36.66 52.01" style="fill:#c1272d;stroke:#000;stroke-linejoin:round;stroke-width:2px"/><path d="M60.06,24.66a4.17,4.17,0,0,1-3,3.39v.89c.66,13.19-14.56,15.45-20.45,15.83-5.89-.38-21.11-2.64-20.45-15.83v-.89a4.18,4.18,0,0,1-3-3.39c-.51-2.23.4-4.33,2-4.7a2.24,2.24,0,0,1,.93,0V12.32a7.87,7.87,0,0,1,4-6.92c3-1.65,8.07-3.27,16.43-3.33S50.07,3.75,53.07,5.4a7.87,7.87,0,0,1,4,6.92V20A2.13,2.13,0,0,1,58,20C59.66,20.33,60.57,22.43,60.06,24.66Z" style="fill:#c69c6d;stroke:#000;stroke-miterlimit:10;stroke-width:1.7879999876022339px"/><path d="M36.64,2.07S16.19,1.26,16.19,12.32a258.55,258.55,0,0,0,40.9,0S58.89,2.06,36.64,2.07Z" style="opacity:0.3"/><g id="_3-brows" data-name="3-brows"><path d="M25.31,20.55h0a.2.2,0,0,1-.1-.2,2.86,2.86,0,0,1,1.71-1.8,4.73,4.73,0,0,1,3.45.29c.1.05.1.1.1.2h0a.21.21,0,0,1-.2.09A4.63,4.63,0,0,0,27,18.84,2.66,2.66,0,0,0,25.5,20.4C25.46,20.45,25.41,20.55,25.31,20.55Z" style="fill:#1a1a1a;stroke:#1a1a1a;stroke-miterlimit:10;stroke-width:0.25px"/><path d="M47.88,20.55c-.05,0-.15-.05-.15-.1a2.64,2.64,0,0,0-1.51-1.56,4.61,4.61,0,0,0-3.21.29.18.18,0,0,1-.24-.09.18.18,0,0,1,.1-.25,4.75,4.75,0,0,1,3.45-.29A3,3,0,0,1,48,20.3c0,.1,0,.15-.09.2h0Z" style="fill:#1a1a1a;stroke:#1a1a1a;stroke-miterlimit:10;stroke-width:0.25px"/></g><g id="_3-eyes" data-name="3-eyes"><ellipse cx="45.64" cy="24.19" rx="1.65" ry="2.29" style="fill:#1a1a1a"/><ellipse cx="27.55" cy="24.19" rx="1.65" ry="2.29" style="fill:#1a1a1a"/></g><path d="M16.64,29.14c-.06.36-1.47,14.16,20,15.15,0,0,20.68-.41,20-15.15,0,0-14.1,4.71-14.1,4.6v-.15a.41.41,0,0,0-.41-.41H31.2a.41.41,0,0,0-.41.41v.15Z" style="fill:#1a1a1a"/><ellipse cx="36.62" cy="28.33" rx="2.79" ry="1.16" style="fill:#a67c52"/><polyline points="32.39 36.02 32.81 36.02 40.52 36.02" style="fill:none;stroke:#333;stroke-linecap:round;stroke-linejoin:round;stroke-width:0.25px"/><path d="M36.46,41.56s-4.74.71-5.56-3.82a9.22,9.22,0,0,1,0-2.66H42.09S43,41.82,36.46,41.56Z" style="fill:#c69c6d"/><path d="M36.45,39.11s-3.33.34-3.9-1.82a2.93,2.93,0,0,1,0-1.27H40.4S41,39.23,36.45,39.11Z" style="fill:#fff;stroke:#333;stroke-linecap:round;stroke-linejoin:round;stroke-width:0.5px"/><line x1="35.8" y1="37.46" x2="32.7" y2="37.46" style="fill:none;stroke:#333;stroke-linecap:round;stroke-linejoin:round;stroke-width:0.5px"/><polygon points="35.35 41.73 36.44 40.41 37.42 41.73 35.35 41.73" style="fill:#1a1a1a"/><path d="M36.43,40.63l.72,1H35.64l.79-1m0-.45-1.38,1.69h2.63l-1.25-1.69Z" style="fill:#1a1a1a"/></g></svg>