<?xml version="1.0" encoding="UTF-8"?>
<svg width="56px" height="43px" viewBox="0 0 56 43" version="1.1" xmlns="http://www.w3.org/2000/svg" xmlns:xlink="http://www.w3.org/1999/xlink">
    <!-- Generator: Sketch 51.2 (57519) - http://www.bohemiancoding.com/sketch -->
    <title>Group 7</title>
    <desc>Created with Sketch.</desc>
    <defs>
        <polygon id="path-1" points="0 0 35 0 35 42 0 42"></polygon>
        <polygon id="path-3" points="0 0 30 0 30 43 0 43"></polygon>
    </defs>
    <g id="home" stroke="none" stroke-width="1" fill="none" fill-rule="evenodd">
        <g id="Desktop-HD" transform="translate(-220.000000, -122.000000)">
            <g id="Group-16" transform="translate(119.000000, 86.000000)">
                <g id="Group-12" transform="translate(101.000000, 36.000000)">
                    <g id="Group-7">
                        <g id="Group-3">
                            <mask id="mask-2" fill="white">
                                <use xlink:href="#path-1"></use>
                            </mask>
                            <g id="Clip-2"></g>
                            <path d="M0,4.48153215 C0,2.9493844 0.434602649,1.81942544 1.30380795,1.09165527 C2.17301325,0.363885089 3.24503311,0 4.51986755,0 C6.25827815,0 7.58140177,0.258549932 8.48923841,0.775649795 C9.39707506,1.29274966 10.4111479,2.52804378 11.531457,4.48153215 L17.5,14.8235294 L23.468543,4.48153215 C24.5888521,2.52804378 25.6029249,1.29274966 26.5107616,0.775649795 C27.4185982,0.258549932 28.7417219,0 30.4801325,0 C31.7549669,0 32.8269868,0.363885089 33.6961921,1.09165527 C34.5653974,1.81942544 35,2.9493844 35,4.48153215 L35,39.2421341 C35,40.123119 34.5557395,40.8030096 33.6672185,41.2818057 C32.7786976,41.7606019 31.7163355,42 30.4801325,42 C29.2439294,42 28.1815673,41.7606019 27.2930464,41.2818057 C26.4045254,40.8030096 25.9602649,40.123119 25.9602649,39.2421341 L25.9602649,17.6963064 L20.397351,27.119015 C19.7406181,28.2298222 18.7362031,28.7852257 17.384106,28.7852257 C16.0706402,28.7852257 15.1241722,28.2298222 14.544702,27.119015 L9.0397351,17.121751 L9.0397351,39.2421341 C9.0397351,40.123119 8.59547461,40.8030096 7.70695364,41.2818057 C6.81843267,41.7606019 5.75607064,42 4.51986755,42 C3.28366446,42 2.22130243,41.7606019 1.33278146,41.2818057 C0.444260486,40.8030096 0,40.123119 0,39.2421341 L0,4.48153215 Z" id="Fill-1" fill="#0074C2" mask="url(#mask-2)"></path>
                        </g>
                        <g id="Group-6" transform="translate(26.000000, 0.000000)">
                            <mask id="mask-4" fill="white">
                                <use xlink:href="#path-3"></use>
                            </mask>
                            <g id="Clip-5"></g>
                            <path d="M9.34131737,20.4117647 L15.2694611,20.4117647 C18.8622754,20.4117647 20.6586826,18.4509804 20.6586826,14.5294118 L20.6586826,13.8823529 C20.6586826,9.96078431 18.8622754,8 15.2694611,8 L9.34131737,8 L9.34131737,20.4117647 Z M0,40.1764706 L0,2.76470588 C0,2.01960784 0.319361277,1.37254902 0.958083832,0.823529412 C1.59680639,0.274509804 2.43512974,0 3.47305389,0 L15.8682635,0 C20.1397206,0 23.5628743,1.08823529 26.1377246,3.26470588 C28.7125749,5.44117647 30,8.8627451 30,13.5294118 L30,13.8235294 C30,18.4901961 28.6526946,21.9313725 25.9580838,24.1470588 C23.2634731,26.3627451 19.7005988,27.4705882 15.2694611,27.4705882 L9.34131737,27.4705882 L9.34131737,40.1764706 C9.34131737,41.0784314 8.88223553,41.7745098 7.96407186,42.2647059 C7.04590818,42.754902 5.94810379,43 4.67065868,43 C3.39321357,43 2.29540918,42.754902 1.37724551,42.2647059 C0.459081836,41.7745098 0,41.0784314 0,40.1764706 Z" id="Fill-4" fill="#FDB515" mask="url(#mask-4)"></path>
                        </g>
                    </g>
                </g>
            </g>
        </g>
    </g>
</svg>