<?xml version="1.0" encoding="UTF-8"?>
<svg width="87px" height="86px" viewBox="0 0 87 86" version="1.1" xmlns="http://www.w3.org/2000/svg" xmlns:xlink="http://www.w3.org/1999/xlink">
    <!-- Generator: Sketch 51.2 (57519) - http://www.bohemiancoding.com/sketch -->
    <title>if_gift-online-order-deliver-computer_1284184</title>
    <desc>Created with Sketch.</desc>
    <defs></defs>
    <g id="about" stroke="none" stroke-width="1" fill="none" fill-rule="evenodd">
        <g id="Desktop-HD" transform="translate(-377.000000, -987.000000)" fill-rule="nonzero">
            <g id="Group-10" transform="translate(360.000000, 987.000000)">
                <g id="Group">
                    <g id="if_gift-online-order-deliver-computer_1284184" transform="translate(17.000000, 0.000000)">
                        <path d="M10.875,32.25 C8.62659375,32.25 6.796875,34.0586875 6.796875,36.28125 L6.796875,76.59375 L80.203125,76.59375 L80.203125,36.28125 C80.203125,34.0586875 78.3734062,32.25 76.125,32.25 L73.40625,32.25 L73.40625,30.90625 L70.6875,30.90625 L70.6875,36.28125 L73.40625,36.28125 L73.40625,34.9375 L76.125,34.9375 C76.8767344,34.9375 77.484375,35.5395 77.484375,36.28125 L77.484375,72.5625 C77.484375,73.30425 76.8767344,73.90625 76.125,73.90625 L10.875,73.90625 C10.1232656,73.90625 9.515625,73.30425 9.515625,72.5625 L9.515625,36.28125 C9.515625,35.5395 10.1232656,34.9375 10.875,34.9375 L21.75,34.9375 L21.75,36.28125 L24.46875,36.28125 L24.46875,30.90625 L21.75,30.90625 L21.75,32.25 L10.875,32.25 Z" id="Shape" fill="#F4F6FA"></path>
                        <path d="M72.046875,41.65625 C72.046875,43.8788125 70.2171563,45.6875 67.96875,45.6875 L52.2190313,45.6875 L48.5392031,49.3250313 C48.285,49.5776563 47.9397188,49.71875 47.578125,49.71875 L40.78125,49.71875 L40.78125,52.40625 C41.5329844,52.40625 42.140625,53.00825 42.140625,53.75 L42.140625,59.125 L42.140625,65.84375 L44.859375,65.84375 L44.859375,68.53125 L42.140625,68.53125 L42.140625,65.84375 L40.78125,65.84375 L39.421875,65.84375 L39.421875,68.53125 L36.703125,68.53125 L36.703125,65.84375 L33.984375,65.84375 L33.984375,68.53125 L31.265625,68.53125 L31.265625,65.84375 L28.546875,65.84375 L28.546875,68.53125 L25.828125,68.53125 L25.828125,65.84375 L24.46875,65.84375 L23.109375,65.84375 L23.109375,68.53125 L20.390625,68.53125 L20.390625,65.84375 L23.109375,65.84375 L23.109375,59.125 L23.109375,53.75 C23.109375,53.00825 23.7170156,52.40625 24.46875,52.40625 L24.46875,42.328125 C24.46875,41.9908438 24.5978906,41.6643125 24.8303438,41.4170625 L26.42625,39.7078125 C25.2571875,38.9983125 24.46875,37.7338438 24.46875,36.28125 L21.75,36.28125 L21.75,37.625 L12.234375,37.625 L12.234375,71.21875 L74.765625,71.21875 L74.765625,37.625 L73.40625,37.625 L73.40625,36.28125 L70.6875,36.28125 C70.6875,37.0028438 70.4795156,37.6706875 70.1423906,38.2579063 C71.2829063,38.9727813 72.046875,40.2251563 72.046875,41.65625 Z M17.671875,68.53125 L14.953125,68.53125 L14.953125,65.84375 L17.671875,65.84375 L17.671875,68.53125 Z M50.296875,68.53125 L47.578125,68.53125 L47.578125,65.84375 L50.296875,65.84375 L50.296875,68.53125 Z" id="Shape" fill="#367CCC"></path>
                        <path d="M16.3125,6.76040625 C16.7094375,6.2323125 17.1797812,5.767375 17.7140156,5.375 C17.1797812,4.982625 16.7094375,4.5176875 16.3125,3.98959375 C15.9155625,4.5176875 15.4452187,4.982625 14.9109844,5.375 C15.4452187,5.767375 15.9155625,6.2323125 16.3125,6.76040625 Z" id="Shape" fill="#CC5636"></path>
                        <path d="M81.5625,9.36459375 C81.1655625,9.8926875 80.6952187,10.357625 80.1609844,10.75 C80.6952187,11.142375 81.1655625,11.6073125 81.5625,12.1354063 C81.9594375,11.6073125 82.4297813,11.142375 82.9640156,10.75 C82.4297813,10.357625 81.9594375,9.8926875 81.5625,9.36459375 Z" id="Shape" fill="#CC5636"></path>
                        <path d="M8.15625,20.1979063 C8.5531875,19.6698125 9.02353125,19.204875 9.55776562,18.8125 C9.02353125,18.420125 8.5531875,17.9551875 8.15625,17.4270937 C7.7593125,17.9551875 7.28896875,18.420125 6.75473438,18.8125 C7.28896875,19.204875 7.7593125,19.6698125 8.15625,20.1979063 Z" id="Shape" fill="#CC5636"></path>
                        <path d="M43.5,32.25 C45.7484062,32.25 47.578125,34.0586875 47.578125,36.28125 C47.578125,36.75425 47.48025,37.2030625 47.328,37.625 L51.65625,37.625 L51.65625,10.75 L47.578125,10.75 L43.5,10.75 L43.5,32.25 Z" id="Shape" fill="#CC5636"></path>
                        <path d="M5.4375,79.28125 L2.89139062,79.28125 C3.49495312,81.5965312 5.6278125,83.3125 8.15625,83.3125 L78.84375,83.3125 C81.3721875,83.3125 83.5050469,81.5965312 84.1086094,79.28125 L81.5625,79.28125 L5.4375,79.28125 Z" id="Shape" fill="#F4F6FA"></path>
                        <path d="M54.375,17.46875 L54.375,37.625 L66.609375,37.625 C67.35975,37.625 67.96875,37.0216562 67.96875,36.28125 L67.96875,17.46875 L54.375,17.46875 Z" id="Shape" fill="#CC5636"></path>
                        <polygon id="Shape" fill="#CC5636" points="54.375 10.75 54.375 14.78125 67.96875 14.78125 67.96875 10.75 58.453125 10.75"></polygon>
                        <polygon id="Shape" fill="#CC5636" points="40.78125 10.75 36.703125 10.75 27.1875 10.75 27.1875 14.78125 40.78125 14.78125"></polygon>
                        <rect id="Rectangle-path" fill="#FFFFFF" x="25.828125" y="55.09375" width="13.59375" height="2.6875"></rect>
                        <path d="M67.96875,40.3125 L66.609375,40.3125 L44.859375,40.3125 L43.5,40.3125 L36.703125,40.3125 L36.703125,37.625 L43.5,37.625 C44.250375,37.625 44.859375,37.0216562 44.859375,36.28125 C44.859375,35.5408438 44.250375,34.9375 43.5,34.9375 L34.5797812,34.9375 L27.1875,42.8535312 L27.1875,52.40625 C32.7262056,53.0406091 36.3512056,53.0406091 38.0625,52.40625 C39.7737944,51.7718909 39.7737944,50.4281409 38.0625,48.375 C38.0625,47.63325 38.6701406,47.03125 39.421875,47.03125 L47.0153437,47.03125 L50.6951719,43.3937187 C50.949375,43.1410937 51.2946562,43 51.65625,43 L67.96875,43 C68.719125,43 69.328125,42.3966562 69.328125,41.65625 C69.328125,40.9158437 68.719125,40.3125 67.96875,40.3125 Z" id="Shape" fill="#F6E0CD"></path>
                        <path d="M28.3987031,37.5954375 L32.9865937,32.6826875 C33.2421562,32.4072187 33.6051094,32.25 33.984375,32.25 L40.78125,32.25 L40.78125,17.46875 L27.1875,17.46875 L27.1875,36.28125 C27.1875,36.9705937 27.7217344,37.5188437 28.3987031,37.5954375 Z" id="Shape" fill="#CC5636"></path>
                        <polygon id="Shape" fill="#CC5636" points="31.265625 65.84375 33.984375 65.84375 36.703125 65.84375 39.421875 65.84375 39.421875 60.46875 25.828125 60.46875 25.828125 65.84375 28.546875 65.84375"></polygon>
                        <path d="M85.640625,76.59375 L82.921875,76.59375 L82.921875,36.28125 C82.921875,32.5765313 79.8727969,29.5625 76.125,29.5625 L73.40625,29.5625 L73.40625,30.90625 L73.40625,32.25 L76.125,32.25 C78.3734062,32.25 80.203125,34.0586875 80.203125,36.28125 L80.203125,76.59375 L6.796875,76.59375 L6.796875,36.28125 C6.796875,34.0586875 8.62659375,32.25 10.875,32.25 L21.75,32.25 L21.75,30.90625 L21.75,29.5625 L10.875,29.5625 C7.12720312,29.5625 4.078125,32.5765313 4.078125,36.28125 L4.078125,76.59375 L1.359375,76.59375 C0.607640625,76.59375 0,77.19575 0,77.9375 C0,82.3839688 3.65807812,86 8.15625,86 L78.84375,86 C83.3419219,86 87,82.3839688 87,77.9375 C87,77.19575 86.3923594,76.59375 85.640625,76.59375 Z M78.84375,83.3125 L8.15625,83.3125 C5.6278125,83.3125 3.49495312,81.5965313 2.89139062,79.28125 L5.4375,79.28125 L81.5625,79.28125 L84.1086094,79.28125 C83.5050469,81.5965313 81.3721875,83.3125 78.84375,83.3125 Z" id="Shape" fill="#1F2833"></path>
                        <path d="M74.765625,37.625 L74.765625,71.21875 L12.234375,71.21875 L12.234375,37.625 L21.75,37.625 L21.75,36.28125 L21.75,34.9375 L10.875,34.9375 C10.1232656,34.9375 9.515625,35.5395 9.515625,36.28125 L9.515625,72.5625 C9.515625,73.30425 10.1232656,73.90625 10.875,73.90625 L76.125,73.90625 C76.8767344,73.90625 77.484375,73.30425 77.484375,72.5625 L77.484375,36.28125 C77.484375,35.5395 76.8767344,34.9375 76.125,34.9375 L73.40625,34.9375 L73.40625,36.28125 L73.40625,37.625 L74.765625,37.625 Z" id="Shape" fill="#1F2833"></path>
                        <path d="M26.42625,39.7078125 L24.8303438,41.4170625 C24.5978906,41.6643125 24.46875,41.9908437 24.46875,42.328125 L24.46875,52.40625 C23.7170156,52.40625 23.109375,53.00825 23.109375,53.75 L23.109375,59.125 L23.109375,65.84375 L24.46875,65.84375 L25.828125,65.84375 L25.828125,60.46875 L39.421875,60.46875 L39.421875,65.84375 L40.78125,65.84375 L42.140625,65.84375 L42.140625,59.125 L42.140625,53.75 C42.140625,53.00825 41.5329844,52.40625 40.78125,52.40625 L40.78125,49.71875 L47.578125,49.71875 C47.9397188,49.71875 48.285,49.5776562 48.5392031,49.3250312 L52.2190313,45.6875 L67.96875,45.6875 C70.2171563,45.6875 72.046875,43.8788125 72.046875,41.65625 C72.046875,40.2251562 71.2829063,38.9727812 70.1423906,38.2579062 C70.4795156,37.6706875 70.6875,37.0028437 70.6875,36.28125 L70.6875,30.90625 L70.6875,16.125 L70.6875,9.40625 C70.6875,8.6645 70.0798594,8.0625 69.328125,8.0625 L63.1348125,8.0625 C63.6024375,7.26834375 63.890625,6.358625 63.890625,5.375 C63.890625,2.4106875 61.4519063,0 58.453125,0 L55.734375,0 C52.2706875,0 49.2433594,1.84496875 47.578125,4.58621875 C45.9128906,1.84496875 42.8855625,0 39.421875,0 L36.703125,0 C33.7043438,0 31.265625,2.4106875 31.265625,5.375 C31.265625,6.358625 31.5538125,7.26834375 32.0214375,8.0625 L25.828125,8.0625 C25.0763906,8.0625 24.46875,8.6645 24.46875,9.40625 L24.46875,16.125 L24.46875,30.90625 L24.46875,36.28125 C24.46875,37.7338437 25.2571875,38.9983125 26.42625,39.7078125 Z M25.828125,55.09375 L39.421875,55.09375 L39.421875,57.78125 L25.828125,57.78125 L25.828125,55.09375 Z M67.96875,43 L51.65625,43 C51.2946563,43 50.949375,43.1410938 50.6951719,43.3937188 L47.0153438,47.03125 L39.421875,47.03125 C38.6701406,47.03125 38.0625,47.63325 38.0625,48.375 L38.0625,52.40625 L27.1875,52.40625 L27.1875,42.8535313 L34.5797813,34.9375 L43.5,34.9375 C44.250375,34.9375 44.859375,35.5408438 44.859375,36.28125 C44.859375,37.0216563 44.250375,37.625 43.5,37.625 L36.703125,37.625 L36.703125,40.3125 L43.5,40.3125 L44.859375,40.3125 L66.609375,40.3125 L67.96875,40.3125 C68.719125,40.3125 69.328125,40.9158438 69.328125,41.65625 C69.328125,42.3966563 68.719125,43 67.96875,43 Z M67.96875,36.28125 C67.96875,37.0216562 67.35975,37.625 66.609375,37.625 L54.375,37.625 L54.375,17.46875 L67.96875,17.46875 L67.96875,36.28125 Z M67.96875,10.75 L67.96875,14.78125 L54.375,14.78125 L54.375,10.75 L58.453125,10.75 L67.96875,10.75 Z M55.734375,2.6875 L58.453125,2.6875 C59.9525156,2.6875 61.171875,3.89284375 61.171875,5.375 C61.171875,6.85715625 59.9525156,8.0625 58.453125,8.0625 L49.0747969,8.0625 C49.7055469,5.00009375 52.4514844,2.6875 55.734375,2.6875 Z M47.578125,10.75 L51.65625,10.75 L51.65625,37.625 L47.328,37.625 C47.48025,37.2030625 47.578125,36.75425 47.578125,36.28125 C47.578125,34.0586875 45.7484063,32.25 43.5,32.25 L43.5,10.75 L47.578125,10.75 Z M36.703125,2.6875 L39.421875,2.6875 C42.7047656,2.6875 45.4507031,5.00009375 46.0814531,8.0625 L36.703125,8.0625 C35.2037344,8.0625 33.984375,6.85715625 33.984375,5.375 C33.984375,3.89284375 35.2037344,2.6875 36.703125,2.6875 Z M27.1875,10.75 L36.703125,10.75 L40.78125,10.75 L40.78125,14.78125 L27.1875,14.78125 L27.1875,10.75 Z M27.1875,17.46875 L40.78125,17.46875 L40.78125,32.25 L33.984375,32.25 C33.6051094,32.25 33.2421563,32.4072188 32.9865938,32.6826875 L28.3987031,37.5954375 C27.7217344,37.5188438 27.1875,36.9705938 27.1875,36.28125 L27.1875,17.46875 Z" id="Shape" fill="#1F2833"></path>
                        <rect id="Rectangle-path" fill="#1F2833" x="14.953125" y="65.84375" width="2.71875" height="2.6875"></rect>
                        <rect id="Rectangle-path" fill="#1F2833" x="20.390625" y="65.84375" width="2.71875" height="2.6875"></rect>
                        <rect id="Rectangle-path" fill="#1F2833" x="25.828125" y="65.84375" width="2.71875" height="2.6875"></rect>
                        <rect id="Rectangle-path" fill="#1F2833" x="31.265625" y="65.84375" width="2.71875" height="2.6875"></rect>
                        <rect id="Rectangle-path" fill="#1F2833" x="36.703125" y="65.84375" width="2.71875" height="2.6875"></rect>
                        <rect id="Rectangle-path" fill="#1F2833" x="42.140625" y="65.84375" width="2.71875" height="2.6875"></rect>
                        <rect id="Rectangle-path" fill="#1F2833" x="47.578125" y="65.84375" width="2.71875" height="2.6875"></rect>
                        <path d="M14.953125,10.75 L17.671875,10.75 C17.671875,8.5274375 19.5015937,6.71875 21.75,6.71875 L21.75,4.03125 C19.5015937,4.03125 17.671875,2.2225625 17.671875,0 L14.953125,0 C14.953125,2.2225625 13.1234062,4.03125 10.875,4.03125 L10.875,6.71875 C13.1234062,6.71875 14.953125,8.5274375 14.953125,10.75 Z M16.3125,3.98959375 C16.7094375,4.5176875 17.1797812,4.982625 17.7140156,5.375 C17.1797812,5.767375 16.7094375,6.2323125 16.3125,6.76040625 C15.9155625,6.2323125 15.4452187,5.767375 14.9109844,5.375 C15.4452187,4.982625 15.9155625,4.5176875 16.3125,3.98959375 Z" id="Shape" fill="#1F2833"></path>
                        <path d="M6.796875,24.1875 L9.515625,24.1875 C9.515625,21.9649375 11.3453438,20.15625 13.59375,20.15625 L13.59375,17.46875 C11.3453438,17.46875 9.515625,15.6600625 9.515625,13.4375 L6.796875,13.4375 C6.796875,15.6600625 4.96715625,17.46875 2.71875,17.46875 L2.71875,20.15625 C4.96715625,20.15625 6.796875,21.9649375 6.796875,24.1875 Z M8.15625,17.4270937 C8.5531875,17.9551875 9.02353125,18.420125 9.55776563,18.8125 C9.02353125,19.204875 8.5531875,19.6698125 8.15625,20.1979063 C7.7593125,19.6698125 7.28896875,19.204875 6.75473438,18.8125 C7.28896875,18.420125 7.7593125,17.9551875 8.15625,17.4270937 Z" id="Shape" fill="#1F2833"></path>
                        <path d="M82.921875,5.375 L80.203125,5.375 C80.203125,7.5975625 78.3734062,9.40625 76.125,9.40625 L76.125,12.09375 C78.3734062,12.09375 80.203125,13.9024375 80.203125,16.125 L82.921875,16.125 C82.921875,13.9024375 84.7515937,12.09375 87,12.09375 L87,9.40625 C84.7515937,9.40625 82.921875,7.5975625 82.921875,5.375 Z M81.5625,12.1354063 C81.1655625,11.6073125 80.6952187,11.142375 80.1609844,10.75 C80.6952187,10.357625 81.1655625,9.8926875 81.5625,9.36459375 C81.9594375,9.8926875 82.4297812,10.357625 82.9640156,10.75 C82.4297812,11.142375 81.9594375,11.6073125 81.5625,12.1354063 Z" id="Shape" fill="#1F2833"></path>
                    </g>
                </g>
            </g>
        </g>
    </g>
</svg>