<?xml version="1.0" encoding="UTF-8"?>
<svg width="83px" height="83px" viewBox="0 0 83 83" version="1.1" xmlns="http://www.w3.org/2000/svg" xmlns:xlink="http://www.w3.org/1999/xlink">
    <!-- Generator: Sketch 51.2 (57519) - http://www.bohemiancoding.com/sketch -->
    <title>if_website-analysis-web-rate-chart_1284167</title>
    <desc>Created with Sketch.</desc>
    <defs></defs>
    <g id="about" stroke="none" stroke-width="1" fill="none" fill-rule="evenodd">
        <g id="Desktop-HD" transform="translate(-965.000000, -987.000000)" fill-rule="nonzero">
            <g id="Group-10" transform="translate(360.000000, 987.000000)">
                <g id="Group-4" transform="translate(586.000000, 0.000000)">
                    <g id="if_website-analysis-web-rate-chart_1284167" transform="translate(19.000000, 0.000000)">
                        <path d="M81,61.8571429 L81,13 L3,13 L3,61.8571429 C3,63.9837143 4.7498,65.7142857 6.9,65.7142857 L13.4,65.7142857 L13.4,67 L16,67 L16,61.8571429 C16,61.1474286 16.5824,60.5714286 17.3,60.5714286 L23.8,60.5714286 C24.5176,60.5714286 25.1,61.1474286 25.1,61.8571429 L25.1,65.7142857 L30.3,65.7142857 C31.0176,65.7142857 31.6,66.2902857 31.6,67 L34.2,67 L34.2,65.7142857 L38.1,65.7142857 L38.1,67 L40.7,67 L40.7,58 C40.7,54.4552857 43.6159,51.5714286 47.2,51.5714286 L57.6,51.5714286 L57.6,47.7142857 L40.8378,47.7142857 C37.6853,53.0847143 31.8197,56.7142857 25.1,56.7142857 C15.064,56.7142857 6.9,48.64 6.9,38.7142857 C6.9,28.7885714 15.064,20.7142857 25.1,20.7142857 C25.8176,20.7142857 26.4,21.2902857 26.4,22 L26.4,37.4285714 L42,37.4285714 C42.7176,37.4285714 43.3,38.0045714 43.3,38.7142857 C43.3,40.981 42.8567,43.1435714 42.0793,45.1428571 L58.9,45.1428571 C59.6176,45.1428571 60.2,45.7188571 60.2,46.4285714 L60.2,51.5714286 L68,51.5714286 C71.5841,51.5714286 74.5,54.4552857 74.5,58 L74.5,67 L77.1,67 L77.1,65.7142857 C79.2502,65.7142857 81,63.9837143 81,61.8571429 Z M57.6,15.5714286 L78.4,15.5714286 L78.4,18.1428571 L57.6,18.1428571 L57.6,15.5714286 Z M57.6,20.7142857 L78.4,20.7142857 L78.4,23.2857143 L57.6,23.2857143 L57.6,20.7142857 Z M55,18.1428571 L49.0382,18.1428571 L44.626,22.5065714 C47.044,25.5627143 48.5,29.3992857 48.5,33.5714286 C48.5,34.2811429 47.9176,34.8571429 47.2,34.8571429 L30.3,34.8571429 C29.5824,34.8571429 29,34.2811429 29,33.5714286 L29,16.8571429 C29,16.1474286 29.5824,15.5714286 30.3,15.5714286 C35.1815,15.5714286 39.6093,17.4922857 42.8814,20.596 L47.5809,15.9481429 C47.824,15.7064286 48.1555,15.5714286 48.5,15.5714286 L55,15.5714286 L55,18.1428571 Z M57.6,28.4285714 L57.6,25.8571429 L78.4,25.8571429 L78.4,28.4285714 L57.6,28.4285714 Z M64.1,46.4285714 C63.3824,46.4285714 62.8,45.8525714 62.8,45.1428571 L62.8,34.8571429 C62.8,34.1474286 63.3824,33.5714286 64.1,33.5714286 L77.1,33.5714286 C77.8176,33.5714286 78.4,34.1474286 78.4,34.8571429 L78.4,45.1428571 C78.4,45.8525714 77.8176,46.4285714 77.1,46.4285714 L64.1,46.4285714 Z" id="Shape" fill="#F4F6FA"></path>
                        <path d="M39.5688994,26.51524 L37.7623654,24.708706 L40.2818032,22.1892681 C37.81858,19.842307 34.5862384,18.2964045 31,18 L31,32 L45,32 C44.7559774,29.0512867 43.6623471,26.3440409 41.9810184,24.103121 L39.5688994,26.51524 Z" id="Shape" fill="#FDB515"></path>
                        <polygon id="Shape" fill="#367CCC" points="75 43 75 38 72 40.5"></polygon>
                        <polygon id="Shape" fill="#367CCC" points="67 44 73 44 70 42"></polygon>
                        <polygon id="Shape" fill="#367CCC" points="73 36 67 36 70 38"></polygon>
                        <polygon id="Shape" fill="#367CCC" points="65 38 65 43 68 40.5"></polygon>
                        <path d="M23,23 C15.1727273,23.6530838 9,30.2852845 9,38.3429785 C9,44.279754 12.3549091,49.4325723 17.2498182,52 L23,38.086364 L23,23 Z" id="Shape" fill="#367CCC"></path>
                        <circle id="Oval" fill="#CC5636" cx="30.5" cy="46.5" r="1.5"></circle>
                        <path d="M20,53.2605455 C21.4827608,53.7365455 23.0614725,54 24.7015928,54 C29.8240901,54 34.3606473,51.4838182 37.1508987,47.6363636 L33.4203288,47.6363636 C32.89068,49.114 31.4834005,50.1818182 29.8176933,50.1818182 C27.7016568,50.1818182 25.9796584,48.4687273 25.9796584,46.3636364 C25.9796584,44.2585455 27.7016568,42.5454545 29.8176933,42.5454545 C31.4834005,42.5454545 32.89068,43.6132727 33.4203288,45.0909091 L38.6400563,45.0909091 C39.3692829,43.5165455 39.8490373,41.806 40,40 L25.5549159,40 L20,53.2605455 Z" id="Shape" fill="#CC5636"></path>
                        <path d="M72,57.9375 C72,55.766625 70.2257273,54 68.0454545,54 L46.9545455,54 C44.7742727,54 43,55.766625 43,57.9375 L43,71.0625 C43,73.233375 44.7742727,75 46.9545455,75 L68.0454545,75 C70.2257273,75 72,73.233375 72,71.0625 L72,57.9375 Z M64.2345909,72.367125 C64.1871364,72.372375 64.1383636,72.375 64.0909091,72.375 C63.6308636,72.375 63.2011364,72.136125 62.9612273,71.7384375 L56.3782273,60.8145 L53.4386818,67.6434375 C53.2673182,68.04375 52.9061364,68.3325 52.4764091,68.4151875 C52.0466818,68.497875 51.6050909,68.3626875 51.2953182,68.05425 L48.7538636,65.52375 L46.8596364,70.23825 L44.4117727,69.2630625 L47.0481364,62.7005625 C47.2129091,62.2910625 47.5727727,61.9905 48.0077727,61.9025625 C48.4440909,61.81725 48.8922727,61.9485 49.2046818,62.2595625 L51.7830455,64.8268125 L54.9704091,57.420375 C55.1655,56.9675625 55.5991818,56.66175 56.0921818,56.627625 C56.5996818,56.601375 57.0570909,56.84025 57.3115,57.2615625 L63.7455455,67.9400625 L66.7931818,58.8339375 L69.2937727,59.66475 L65.3392273,71.47725 C65.1784091,71.9641875 64.7460455,72.312 64.2345909,72.367125 Z" id="Shape" fill="#CC5636"></path>
                        <path d="M81,7 C81,4.79466667 79.2502,3 77.1,3 L6.9,3 C4.7498,3 3,4.79466667 3,7 L3,11 L81,11 L81,7 Z M6.9,8.33333333 C6.1824,8.33333333 5.6,7.736 5.6,7 C5.6,6.264 6.1824,5.66666667 6.9,5.66666667 C7.6176,5.66666667 8.2,6.264 8.2,7 C8.2,7.736 7.6176,8.33333333 6.9,8.33333333 Z M12.1,8.33333333 C11.3824,8.33333333 10.8,7.736 10.8,7 C10.8,6.264 11.3824,5.66666667 12.1,5.66666667 C12.8176,5.66666667 13.4,6.264 13.4,7 C13.4,7.736 12.8176,8.33333333 12.1,8.33333333 Z M17.3,8.33333333 C16.5824,8.33333333 16,7.736 16,7 C16,6.264 16.5824,5.66666667 17.3,5.66666667 C18.0176,5.66666667 18.6,6.264 18.6,7 C18.6,7.736 18.0176,8.33333333 17.3,8.33333333 Z" id="Shape" fill="#367CCC"></path>
                        <rect id="Rectangle-path" fill="#367CCC" x="12" y="75" width="4" height="5"></rect>
                        <rect id="Rectangle-path" fill="#367CCC" x="25" y="69" width="4" height="12"></rect>
                        <polygon id="Shape" fill="#367CCC" points="18 64 18 74.4615385 18 81 22 81 22 67.9230769 22 64"></polygon>
                        <polygon id="Shape" fill="#1F2833" points="34 66 34 67.5 34 69 38 69 38 67.5 38 66"></polygon>
                        <path d="M76.515625,0 L6.484375,0 C2.90889062,0 0,2.92013208 0,6.50943396 L0,62.490566 C0,66.0798679 2.90889062,69 6.484375,69 L12.96875,69 L12.96875,67.6981132 L12.96875,66.3962264 L6.484375,66.3962264 C4.33934375,66.3962264 2.59375,64.6438868 2.59375,62.490566 L2.59375,13.0188679 L80.40625,13.0188679 L80.40625,62.490566 C80.40625,64.6438868 78.6606562,66.3962264 76.515625,66.3962264 L76.515625,67.6981132 L76.515625,69 C80.0911094,69 83,66.0798679 83,62.490566 L83,6.50943396 C83,2.92013208 80.0911094,0 76.515625,0 Z M2.59375,10.4150943 L2.59375,6.50943396 C2.59375,4.35611321 4.33934375,2.60377358 6.484375,2.60377358 L76.515625,2.60377358 C78.6606563,2.60377358 80.40625,4.35611321 80.40625,6.50943396 L80.40625,10.4150943 L2.59375,10.4150943 Z" id="Shape" fill="#1F2833"></path>
                        <circle id="Oval" fill="#1F2833" cx="6.5" cy="6.5" r="1.5"></circle>
                        <circle id="Oval" fill="#1F2833" cx="11.5" cy="6.5" r="1.5"></circle>
                        <circle id="Oval" fill="#1F2833" cx="17.5" cy="6.5" r="1.5"></circle>
                        <path d="M47.5809,16.3711333 L42.8814,20.9501333 C39.6093,17.8924 35.1815,16 30.3,16 C29.5824,16 29,16.5674667 29,17.2666667 L29,33.7333333 C29,34.4325333 29.5824,35 30.3,35 L47.2,35 C47.9176,35 48.5,34.4325333 48.5,33.7333333 C48.5,29.623 47.044,25.8432667 44.626,22.8324 L49.0382,18.5333333 L55,18.5333333 L55,16 L48.5,16 C48.1555,16 47.824,16.133 47.5809,16.3711333 Z M45.8454,32.4666667 L31.6,32.4666667 L31.6,18.5865333 C35.2491,18.8816667 38.5381,20.4143333 41.0445,22.7399333 L38.4809,25.2378 L40.3191,27.0288667 L42.7735,24.6374 C44.4856,26.8591333 45.5971,29.5432 45.8454,32.4666667 Z" id="Shape" fill="#1F2833"></path>
                        <rect id="Rectangle-path" fill="#1F2833" x="57" y="16" width="21" height="3"></rect>
                        <rect id="Rectangle-path" fill="#1F2833" x="57" y="21" width="21" height="3"></rect>
                        <rect id="Rectangle-path" fill="#1F2833" x="57" y="26" width="21" height="3"></rect>
                        <path d="M66.5576923,52.0909091 L58.8269231,52.0909091 L58.8269231,46.9090909 C58.8269231,46.194 58.2496923,45.6136364 57.5384615,45.6136364 L40.8670577,45.6136364 C41.6375577,43.5992045 42.0769231,41.42025 42.0769231,39.1363636 C42.0769231,38.4212727 41.4996923,37.8409091 40.7884615,37.8409091 L25.3269231,37.8409091 L25.3269231,22.2954545 C25.3269231,21.5803636 24.7496923,21 24.0384615,21 C14.0915385,21 6,29.1354545 6,39.1363636 C6,49.1372727 14.0915385,57.2727273 24.0384615,57.2727273 C30.6972308,57.2727273 36.5120577,53.6156591 39.6365769,48.2045455 L56.25,48.2045455 L56.25,52.0909091 L45.9423077,52.0909091 C42.3900192,52.0909091 39.5,54.9966136 39.5,58.5681818 L39.5,67.6363636 L39.5,71.5227273 C39.5,75.0942955 42.3900192,78 45.9423077,78 L66.5576923,78 C70.1099808,78 73,75.0942955 73,71.5227273 L73,67.6363636 L73,58.5681818 C73,54.9966136 70.1099808,52.0909091 66.5576923,52.0909091 Z M8.57692308,39.1363636 C8.57692308,31.0009091 14.8259615,24.3047045 22.75,23.6453182 L22.75,38.8772727 L16.9287308,52.9251818 C11.9733077,50.3329773 8.57692308,45.1304318 8.57692308,39.1363636 Z M38.0775385,45.6136364 L32.8206154,45.6136364 C32.2871923,44.1096136 30.8698846,43.0227273 29.1923077,43.0227273 C27.0611923,43.0227273 25.3269231,44.7664091 25.3269231,46.9090909 C25.3269231,49.0517727 27.0611923,50.7954545 29.1923077,50.7954545 C30.8698846,50.7954545 32.2871923,49.7085682 32.8206154,48.2045455 L36.5777692,48.2045455 C33.7676346,52.1207045 29.19875,54.6818182 24.03975,54.6818182 C22.3879423,54.6818182 20.7979808,54.4136591 19.3046538,53.9291591 L24.8978654,40.4318182 L39.4471731,40.4318182 C39.2951346,42.2700682 38.8119615,44.0111591 38.0775385,45.6136364 Z M30.4807692,46.9090909 C30.4807692,47.6228864 29.90225,48.2045455 29.1923077,48.2045455 C28.4823654,48.2045455 27.9038462,47.6228864 27.9038462,46.9090909 C27.9038462,46.1952955 28.4823654,45.6136364 29.1923077,45.6136364 C29.90225,45.6136364 30.4807692,46.1952955 30.4807692,46.9090909 Z M66.5576923,75.4090909 L45.9423077,75.4090909 C43.8111923,75.4090909 42.0769231,73.6654091 42.0769231,71.5227273 L42.0769231,58.5681818 C42.0769231,56.4255 43.8111923,54.6818182 45.9423077,54.6818182 L66.5576923,54.6818182 C68.6888077,54.6818182 70.4230769,56.4255 70.4230769,58.5681818 L70.4230769,71.5227273 C70.4230769,73.6654091 68.6888077,75.4090909 66.5576923,75.4090909 Z" id="Shape" fill="#1F2833"></path>
                        <path d="M30.4615385,66.1764706 L25.2307692,66.1764706 L25.2307692,62.2941176 C25.2307692,61.5797647 24.6449231,61 23.9230769,61 L17.3846154,61 C16.6627692,61 16.0769231,61.5797647 16.0769231,62.2941176 L16.0769231,67.4705882 L16.0769231,72.6470588 L10.8461538,72.6470588 C10.1243077,72.6470588 9.53846154,73.2268235 9.53846154,73.9411765 L9.53846154,80.4117647 L3,80.4117647 L3,83 L10.8461538,83 L17.3846154,83 L23.9230769,83 L30.4615385,83 L37,83 L37,80.4117647 L31.7692308,80.4117647 L31.7692308,67.4705882 C31.7692308,66.7562353 31.1833846,66.1764706 30.4615385,66.1764706 Z M16.0769231,80.4117647 L12.1538462,80.4117647 L12.1538462,75.2352941 L16.0769231,75.2352941 L16.0769231,80.4117647 Z M29.1538462,80.4117647 L25.2307692,80.4117647 L25.2307692,68.7647059 L29.1538462,68.7647059 L29.1538462,80.4117647 Z M22.6153846,80.4117647 L18.6923077,80.4117647 L18.6923077,73.9411765 L18.6923077,63.5882353 L22.6153846,63.5882353 L22.6153846,67.4705882 L22.6153846,80.4117647 Z" id="Shape" fill="#1F2833"></path>
                        <path d="M68,60.0874543 L65.5880483,59.2434186 L62.6484425,68.4944763 L56.4424666,57.6460178 C56.1970757,57.2179997 55.7558805,56.9753228 55.26637,57.0019906 C54.7895741,57.0353253 54.3725366,57.3460051 54.1843611,57.807358 L51.1099809,65.3316759 L48.6230134,62.7235657 C48.3216783,62.4075524 47.8893833,62.2742134 47.4685315,62.3608837 C47.0502225,62.4502208 46.7018436,62.7555671 46.5429116,63.1715847 L44,69.8385331 L46.3610935,70.8292416 L48.1881755,66.0397059 L50.6395423,68.6104812 C50.9383344,68.9238277 51.3642721,69.0611669 51.7787667,68.9771633 C52.1932613,68.8944932 52.5416402,68.599814 52.7069294,68.1931302 L55.5422759,61.2555037 L61.8919263,72.353306 C62.1207883,72.7573231 62.5352829,73 62.979021,73 C63.0247934,73 63.0718373,72.9973332 63.1176097,72.9919997 C63.6109345,72.9359973 64.027972,72.5813156 64.1856325,72.0879615 L68,60.0874543 Z" id="Shape" fill="#1F2833"></path>
                        <path d="M78,45.7 L78,35.3 C78,34.5824 77.4026667,34 76.6666667,34 L63.3333333,34 C62.5973333,34 62,34.5824 62,35.3 L62,45.7 C62,46.4176 62.5973333,47 63.3333333,47 L76.6666667,47 C77.4026667,47 78,46.4176 78,45.7 Z M72.8666667,36.6 L70,38.836 L67.1333333,36.6 L72.8666667,36.6 Z M64.6666667,38.004 L67.8666667,40.5 L64.6666667,42.996 L64.6666667,38.004 Z M67.1333333,44.4 L70,42.164 L72.8666667,44.4 L67.1333333,44.4 Z M75.3333333,42.996 L72.1333333,40.5 L75.3333333,38.004 L75.3333333,42.996 Z" id="Shape" fill="#1F2833"></path>
                    </g>
                </g>
            </g>
        </g>
    </g>
</svg>